font.ufo
<glyph name="quotedbl" format="1">
  <advance width="357"/>
  <unicode hex="0022"/>
  <outline>
    <contour>
      <point x="128" y="548" type="line"/>
      <point x="132" y="740" type="line"/>
      <point x="86" y="740" type="line"/>
      <point x="90" y="548" type="line"/>
    </contour>
    <contour>
      <point x="267" y="548" type="line"/>
      <point x="271" y="740" type="line"/>
      <point x="225" y="740" type="line"/>
      <point x="229" y="548" type="line"/>
    </contour>
  </outline>
</glyph>
<glyph name="numbersign" format="1">
  <advance width="515"/>
  <unicode hex="0023"/>
  <outline>
    <contour>
      <point x="47" y="243" type="line"/>
      <point x="409" y="243" type="line"/>
      <point x="417" y="278" type="line"/>
      <point x="55" y="278" type="line"/>
    </contour>
    <contour>
      <point x="98" y="483" type="line"/>
      <point x="459" y="483" type="line"/>
      <point x="468" y="517" type="line"/>
      <point x="106" y="517" type="line"/>
    </contour>
    <contour>
      <point x="295" y="39" type="line"/>
      <point x="449" y="722" type="line"/>
      <point x="408" y="722" type="line"/>
      <point x="254" y="39" type="line"/>
    </contour>
    <contour>
      <point x="114" y="46" type="line"/>
      <point x="265" y="722" type="line"/>
      <point x="224" y="722" type="line"/>
      <point x="74" y="46" type="line"/>
    </contour>
  </outline>
</glyph>
<glyph name="ampersand" format="1">
  <advance width="509"/>
  <unicode hex="0026"/>
  <outline>
    <contour>
      <point x="486" y="11" type="line"/>
      <point x="408" y="123"/>
      <point x="330" y="240"/>
      <point x="250" y="353" type="curve"/>
      <point x="204" y="424"/>
      <point x="149" y="486"/>
      <point x="149" y="573" type="curve"/>
      <point x="149" y="636"/>
      <point x="170" y="691"/>
      <point x="222" y="691" type="curve"/>
      <point x="277" y="691"/>
      <point x="300" y="639"/>
      <point x="300" y="575" type="curve"/>
      <point x="300" y="495"/>
      <point x="255" y="444"/>
      <point x="191" y="394" type="curve"/>
      <point x="116" y="333"/>
      <point x="61" y="275"/>
      <point x="61" y="181" type="curve"/>
      <point x="61" y="75"/>
      <point x="117" y="-5"/>
      <point x="216" y="-5" type="curve"/>
      <point x="377" y="-5"/>
      <point x="424" y="148"/>
      <point x="462" y="317" type="curve"/>
      <point x="426" y="325"/>
      <point x="462" y="317"/>
      <point x="426" y="325" type="curve"/>
      <point x="392" y="174"/>
      <point x="352" y="31"/>
      <point x="218" y="31" type="curve"/>
      <point x="143" y="31"/>
      <point x="103" y="97"/>
      <point x="103" y="181" type="curve"/>
      <point x="103" y="262"/>
      <point x="149" y="312"/>
      <point x="212" y="364" type="curve"/>
      <point x="286" y="424"/>
      <point x="342" y="482"/>
      <point x="343" y="576" type="curve"/>
      <point x="343" y="661"/>
      <point x="302" y="727"/>
      <point x="224" y="727" type="curve"/>
      <point x="146" y="727"/>
      <point x="109" y="658"/>
      <point x="109" y="573" type="curve"/>
      <point x="109" y="477"/>
      <point x="166" y="410"/>
      <point x="220" y="332" type="curve"/>
      <point x="298" y="220"/>
      <point x="377" y="101"/>
      <point x="455" y="-10" type="curve"/>
    </contour>
  </outline>
</glyph>
<glyph name="quotesingle" format="1">
  <advance width="218"/>
  <unicode hex="0027"/>
  <outline>
    <contour>
      <point x="128" y="548" type="line"/>
      <point x="132" y="740" type="line"/>
      <point x="86" y="740" type="line"/>
      <point x="90" y="548" type="line"/>
    </contour>
  </outline>
</glyph>
<glyph name="parenright" format="1">
  <advance width="282"/>
  <unicode hex="0029"/>
  <outline>
    <contour>
      <point x="38" y="-271" type="curve"/>
      <point x="174" y="-75"/>
      <point x="228" y="88"/>
      <point x="228" y="327" type="curve"/>
      <point x="228" y="560"/>
      <point x="181" y="721"/>
      <point x="41" y="908" type="curve"/>
      <point x="14" y="885"/>
      <point x="41" y="908"/>
      <point x="14" y="885" type="curve"/>
      <point x="147" y="703"/>
      <point x="185" y="547"/>
      <point x="185" y="326" type="curve"/>
      <point x="185" y="99"/>
      <point x="138" y="-59"/>
      <point x="10" y="-248" type="curve"/>
      <point x="38" y="-271"/>
      <point x="10" y="-248"/>
    </contour>
  </outline>
</glyph>
<glyph name="asterisk" format="1">
  <advance width="537"/>
  <unicode hex="002A"/>
  <outline>
    <contour>
      <point x="286" y="530" type="line"/>
      <point x="289" y="722" type="line"/>
      <point x="249" y="722" type="line"/>
      <point x="252" y="530" type="line"/>
    </contour>
    <contour>
      <point x="274" y="515" type="line"/>
      <point x="459" y="571" type="line"/>
      <point x="445" y="609" type="line"/>
      <point x="263" y="545" type="line"/>
    </contour>
    <contour>
      <point x="256" y="520" type="line"/>
      <point x="368" y="363" type="line"/>
      <point x="400" y="388" type="line"/>
      <point x="282" y="540" type="line"/>
    </contour>
    <contour>
      <point x="256" y="540" type="line"/>
      <point x="138" y="388" type="line"/>
      <point x="170" y="363" type="line"/>
      <point x="281" y="520" type="line"/>
    </contour>
    <contour>
      <point x="274" y="545" type="line"/>
      <point x="92" y="609" type="line"/>
      <point x="79" y="571" type="line"/>
      <point x="264" y="515" type="line"/>
    </contour>
  </outline>
</glyph>
<glyph name="hyphen" format="1">
  <advance width="371"/>
  <unicode hex="002D"/>
  <outline>
    <contour>
      <point x="83" y="255" type="curve"/>
      <point x="152" y="255"/>
      <point x="221" y="255"/>
      <point x="289" y="255" type="curve"/>
      <point x="289" y="293"/>
      <point x="289" y="255"/>
      <point x="289" y="293" type="curve"/>
      <point x="221" y="293"/>
      <point x="152" y="293"/>
      <point x="83" y="293" type="curve"/>
      <point x="83" y="255"/>
      <point x="83" y="293"/>
    </contour>
  </outline>
</glyph>
<glyph name="slash" format="1">
  <advance width="416"/>
  <unicode hex="002F"/>
  <outline>
    <contour>
      <point x="78" y="-59" type="curve"/>
      <point x="178" y="238"/>
      <point x="278" y="537"/>
      <point x="379" y="834" type="curve"/>
      <point x="338" y="834"/>
      <point x="379" y="834"/>
      <point x="338" y="834" type="curve"/>
      <point x="237" y="537"/>
      <point x="137" y="238"/>
      <point x="36" y="-59" type="curve"/>
      <point x="78" y="-59"/>
      <point x="36" y="-59"/>
    </contour>
  </outline>
</glyph>
<glyph name="zero" format="1">
  <advance width="551"/>
  <unicode hex="0030"/>
  <outline>
    <contour>
      <point x="107" y="360" type="curve"/>
      <point x="107" y="539"/>
      <point x="125" y="691"/>
      <point x="274" y="691" type="curve"/>
      <point x="424" y="691"/>
      <point x="444" y="540"/>
      <point x="444" y="363" type="curve"/>
      <point x="444" y="185"/>
      <point x="423" y="32"/>
      <point x="278" y="32" type="curve"/>
      <point x="134" y="32"/>
      <point x="107" y="182"/>
      <point x="107" y="360" type="curve"/>
      <point x="67" y="360"/>
      <point x="105" y="360"/>
      <point x="65" y="360" type="curve"/>
      <point x="65" y="159"/>
      <point x="101" y="-5"/>
      <point x="276" y="-5" type="curve"/>
      <point x="452" y="-5"/>
      <point x="485" y="160"/>
      <point x="485" y="363" type="curve"/>
      <point x="485" y="563"/>
      <point x="452" y="727"/>
      <point x="278" y="727" type="curve"/>
      <point x="101" y="727"/>
      <point x="65" y="563"/>
      <point x="65" y="360" type="curve"/>
      <point x="105" y="360"/>
      <point x="67" y="360"/>
    </contour>
  </outline>
</glyph>
<glyph name="colon" format="1">
  <advance width="218"/>
  <unicode hex="003A"/>
  <outline>
    <contour>
      <point x="135" y="402" type="curve"/>
      <point x="135" y="418"/>
      <point x="124" y="427"/>
      <point x="109" y="427" type="curve"/>
      <point x="93" y="427"/>
      <point x="83" y="417"/>
      <point x="83" y="402" type="curve"/>
      <point x="135" y="402"/>
      <point x="83" y="402"/>
      <point x="135" y="402" type="curve"/>
      <point x="135" y="385"/>
      <point x="124" y="377"/>
      <point x="109" y="377" type="curve"/>
      <point x="93" y="377"/>
      <point x="83" y="386"/>
      <point x="83" y="402" type="curve"/>
      <point x="135" y="402"/>
      <point x="83" y="402"/>
    </contour>
    <contour>
      <point x="135" y="21" type="curve"/>
      <point x="135" y="37"/>
      <point x="124" y="46"/>
      <point x="109" y="46" type="curve"/>
      <point x="93" y="46"/>
      <point x="83" y="36"/>
      <point x="83" y="21" type="curve"/>
      <point x="135" y="21"/>
      <point x="83" y="21"/>
      <point x="135" y="21" type="curve"/>
      <point x="135" y="4"/>
      <point x="124" y="-4"/>
      <point x="109" y="-4" type="curve"/>
      <point x="93" y="-4"/>
      <point x="83" y="4"/>
      <point x="83" y="21" type="curve"/>
      <point x="135" y="21"/>
      <point x="83" y="21"/>
    </contour>
  </outline>
</glyph>
<glyph name="less" format="1">
  <advance width="536"/>
  <unicode hex="003C"/>
  <outline>
    <contour>
      <point x="470" y="589" type="curve"/>
      <point x="327" y="499"/>
      <point x="183" y="409"/>
      <point x="40" y="319" type="curve"/>
      <point x="40" y="281"/>
      <point x="40" y="319"/>
      <point x="40" y="281" type="curve"/>
      <point x="183" y="371"/>
      <point x="327" y="461"/>
      <point x="470" y="551" type="curve"/>
      <point x="470" y="589"/>
      <point x="470" y="551"/>
    </contour>
    <contour>
      <point x="478" y="55" type="curve"/>
      <point x="331" y="143"/>
      <point x="185" y="231"/>
      <point x="40" y="319" type="curve"/>
      <point x="40" y="281"/>
      <point x="40" y="319"/>
      <point x="40" y="281" type="curve"/>
      <point x="185" y="193"/>
      <point x="331" y="105"/>
      <point x="478" y="17" type="curve"/>
      <point x="478" y="55"/>
      <point x="478" y="17"/>
    </contour>
  </outline>
</glyph>
<glyph name="equal" format="1">
  <advance width="614"/>
  <unicode hex="003D"/>
  <outline>
    <contour>
      <point x="85" y="199" type="curve"/>
      <point x="233" y="199"/>
      <point x="381" y="199"/>
      <point x="529" y="199" type="curve"/>
      <point x="529" y="236"/>
      <point x="529" y="199"/>
      <point x="529" y="236" type="curve"/>
      <point x="381" y="236"/>
      <point x="233" y="236"/>
      <point x="85" y="236" type="curve"/>
      <point x="85" y="199"/>
      <point x="85" y="236"/>
    </contour>
    <contour>
      <point x="85" y="421" type="curve"/>
      <point x="233" y="421"/>
      <point x="381" y="421"/>
      <point x="529" y="421" type="curve"/>
      <point x="529" y="458"/>
      <point x="529" y="421"/>
      <point x="529" y="458" type="curve"/>
      <point x="381" y="458"/>
      <point x="233" y="458"/>
      <point x="85" y="458" type="curve"/>
      <point x="85" y="421"/>
      <point x="85" y="458"/>
    </contour>
  </outline>
</glyph>
<glyph name="F" format="1">
  <advance width="488"/>
  <unicode hex="0046"/>
  <outline>
    <contour>
      <point x="159" y="0" type="curve"/>
      <point x="203" y="0"/>
      <point x="159" y="0"/>
      <point x="292" y="0" type="curve"/>
      <point x="292" y="35"/>
      <point x="292" y="0"/>
      <point x="292" y="35" type="curve"/>
      <point x="159" y="35"/>
      <point x="292" y="35"/>
      <point x="159" y="35" type="curve"/>
      <point x="159" y="0"/>
      <point x="159" y="35"/>
    </contour>
    <contour>
      <point x="159" y="722" type="curve"/>
      <point x="115" y="722"/>
      <point x="88" y="722"/>
      <point x="43" y="722" type="curve"/>
      <point x="43" y="687"/>
      <point x="43" y="722"/>
      <point x="43" y="687" type="curve"/>
      <point x="176" y="687"/>
      <point x="26" y="687"/>
      <point x="159" y="687" type="curve"/>
      <point x="159" y="722"/>
      <point x="159" y="687"/>
    </contour>
    <contour>
      <point x="159" y="35" type="curve"/>
      <point x="26" y="35"/>
      <point x="176" y="35"/>
      <point x="43" y="35" type="curve"/>
      <point x="43" y="0"/>
      <point x="43" y="35"/>
      <point x="43" y="0" type="curve"/>
      <point x="88" y="0"/>
      <point x="115" y="0"/>
      <point x="159" y="0" type="curve"/>
      <point x="159" y="35"/>
      <point x="159" y="0"/>
    </contour>
    <contour>
      <point x="406" y="705" type="curve"/>
      <point x="406" y="585"/>
      <point x="406" y="713"/>
      <point x="406" y="593" type="curve"/>
      <point x="441" y="593"/>
      <point x="406" y="593"/>
      <point x="441" y="593" type="curve"/>
      <point x="441" y="713"/>
      <point x="441" y="585"/>
      <point x="441" y="705" type="curve"/>
      <point x="406" y="705"/>
      <point x="441" y="705"/>
    </contour>
    <contour>
      <point x="162" y="356" type="curve"/>
      <point x="238" y="356"/>
      <point x="313" y="356"/>
      <point x="389" y="356" type="curve"/>
      <point x="389" y="391"/>
      <point x="389" y="356"/>
      <point x="389" y="391" type="curve"/>
      <point x="313" y="391"/>
      <point x="238" y="391"/>
      <point x="162" y="391" type="curve"/>
      <point x="162" y="356"/>
      <point x="162" y="391"/>
    </contour>
    <contour>
      <point x="180" y="0" type="curve"/>
      <point x="180" y="722" type="line"/>
      <point x="138" y="722"/>
      <point x="180" y="722"/>
      <point x="138" y="722" type="curve"/>
      <point x="138" y="481"/>
      <point x="138" y="241"/>
      <point x="138" y="0" type="curve"/>
      <point x="180" y="0"/>
      <point x="138" y="0"/>
    </contour>
    <contour>
      <point x="151" y="687" type="curve"/>
      <point x="248" y="687"/>
      <point x="344" y="687"/>
      <point x="441" y="687" type="curve"/>
      <point x="441" y="722"/>
      <point x="441" y="687"/>
      <point x="441" y="722" type="curve"/>
      <point x="344" y="722"/>
      <point x="248" y="722"/>
      <point x="151" y="722" type="curve"/>
      <point x="151" y="687"/>
      <point x="151" y="722"/>
    </contour>
  </outline>
</glyph>
<glyph name="G" format="1">
  <advance width="589"/>
  <unicode hex="0047"/>
  <outline>
    <contour>
      <point x="304" y="818" type="move" name="top"/>
    </contour>
    <contour>
      <point x="320" y="-68" type="move" name="bottom"/>
    </contour>
    <contour>
      <point x="474" y="642" type="curve"/>
      <point x="474" y="520"/>
      <point x="474" y="651"/>
      <point x="474" y="528" type="curve"/>
      <point x="509" y="528"/>
      <point x="474" y="528"/>
      <point x="509" y="528" type="curve"/>
      <point x="509" y="651"/>
      <point x="509" y="520"/>
      <point x="509" y="642" type="curve"/>
      <point x="474" y="642"/>
      <point x="509" y="642"/>
    </contour>
    <contour>
      <point x="509" y="326" type="curve"/>
      <point x="457" y="326"/>
      <point x="404" y="326"/>
      <point x="353" y="326" type="curve"/>
      <point x="353" y="292"/>
      <point x="353" y="326"/>
      <point x="353" y="292" type="curve"/>
      <point x="404" y="292"/>
      <point x="457" y="292"/>
      <point x="509" y="292" type="curve"/>
      <point x="509" y="326"/>
      <point x="509" y="292"/>
    </contour>
    <contour>
      <point x="521" y="77" type="curve"/>
      <point x="521" y="161"/>
      <point x="521" y="243"/>
      <point x="521" y="326" type="curve"/>
      <point x="483" y="326"/>
      <point x="521" y="326"/>
      <point x="483" y="326" type="curve"/>
      <point x="483" y="243"/>
      <point x="483" y="161"/>
      <point x="483" y="77" type="curve"/>
      <point x="521" y="77"/>
      <point x="483" y="77"/>
    </contour>
    <contour>
      <point x="509" y="642" type="curve"/>
      <point x="448" y="697"/>
      <point x="388" y="727"/>
      <point x="306" y="727" type="curve"/>
      <point x="124" y="727"/>
      <point x="62" y="571"/>
      <point x="62" y="364" type="curve"/>
      <point x="62" y="152"/>
      <point x="127" y="-5"/>
      <point x="314" y="-5" type="curve"/>
      <point x="401" y="-5"/>
      <point x="453" y="24"/>
      <point x="521" y="77" type="curve"/>
      <point x="498" y="106"/>
      <point x="521" y="77"/>
      <point x="498" y="106" type="curve"/>
      <point x="452" y="65"/>
      <point x="390" y="32"/>
      <point x="314" y="32" type="curve"/>
      <point x="149" y="32"/>
      <point x="104" y="178"/>
      <point x="104" y="368" type="curve"/>
      <point x="104" y="547"/>
      <point x="149" y="690"/>
      <point x="306" y="690" type="curve"/>
      <point x="379" y="690"/>
      <point x="433" y="662"/>
      <point x="488" y="613" type="curve"/>
      <point x="509" y="642"/>
      <point x="488" y="613"/>
    </contour>
  </outline>
</glyph>
<glyph name="H" format="1">
  <advance width="666"/>
  <unicode hex="0048"/>
  <outline>
    <contour>
      <point x="512" y="687" type="curve"/>
      <point x="644" y="687"/>
      <point x="495" y="687"/>
      <point x="627" y="687" type="curve"/>
      <point x="627" y="722"/>
      <point x="627" y="687"/>
      <point x="627" y="722" type="curve"/>
      <point x="583" y="722"/>
      <point x="556" y="722"/>
      <point x="512" y="722" type="curve"/>
      <point x="512" y="687"/>
      <point x="512" y="722"/>
    </contour>
    <contour>
      <point x="512" y="0" type="curve"/>
      <point x="556" y="0"/>
      <point x="583" y="0"/>
      <point x="627" y="0" type="curve"/>
      <point x="627" y="35"/>
      <point x="627" y="0"/>
      <point x="627" y="35" type="curve"/>
      <point x="495" y="35"/>
      <point x="644" y="35"/>
      <point x="512" y="35" type="curve"/>
      <point x="512" y="0"/>
      <point x="512" y="35"/>
    </contour>
    <contour>
      <point x="512" y="35" type="curve"/>
      <point x="379" y="35"/>
      <point x="529" y="35"/>
      <point x="396" y="35" type="curve"/>
      <point x="396" y="0"/>
      <point x="396" y="35"/>
      <point x="396" y="0" type="curve"/>
      <point x="440" y="0"/>
      <point x="467" y="0"/>
      <point x="512" y="0" type="curve"/>
      <point x="512" y="35"/>
      <point x="512" y="0"/>
    </contour>
    <contour>
      <point x="512" y="722" type="curve"/>
      <point x="467" y="722"/>
      <point x="440" y="722"/>
      <point x="396" y="722" type="curve"/>
      <point x="396" y="687"/>
      <point x="396" y="722"/>
      <point x="396" y="687" type="curve"/>
      <point x="529" y="687"/>
      <point x="379" y="687"/>
      <point x="512" y="687" type="curve"/>
      <point x="512" y="722"/>
      <point x="512" y="687"/>
    </contour>
    <contour>
      <point x="155" y="687" type="curve"/>
      <point x="288" y="687"/>
      <point x="138" y="687"/>
      <point x="271" y="687" type="curve"/>
      <point x="271" y="722"/>
      <point x="271" y="687"/>
      <point x="271" y="722" type="curve"/>
      <point x="227" y="722"/>
      <point x="200" y="722"/>
      <point x="155" y="722" type="curve"/>
      <point x="155" y="687"/>
      <point x="155" y="722"/>
    </contour>
    <contour>
      <point x="155" y="722" type="curve"/>
      <point x="111" y="722"/>
      <point x="84" y="722"/>
      <point x="40" y="722" type="curve"/>
      <point x="40" y="687"/>
      <point x="40" y="722"/>
      <point x="40" y="687" type="curve"/>
      <point x="172" y="687"/>
      <point x="23" y="687"/>
      <point x="155" y="687" type="curve"/>
      <point x="155" y="722"/>
      <point x="155" y="687"/>
    </contour>
    <contour>
      <point x="155" y="0" type="curve"/>
      <point x="200" y="0"/>
      <point x="138" y="0"/>
      <point x="271" y="0" type="curve"/>
      <point x="271" y="35"/>
      <point x="271" y="0"/>
      <point x="271" y="35" type="curve"/>
      <point x="138" y="35"/>
      <point x="288" y="35"/>
      <point x="155" y="35" type="curve"/>
      <point x="155" y="0"/>
      <point x="155" y="35"/>
    </contour>
    <contour>
      <point x="155" y="35" type="curve"/>
      <point x="23" y="35"/>
      <point x="172" y="35"/>
      <point x="40" y="35" type="curve"/>
      <point x="40" y="0"/>
      <point x="40" y="35"/>
      <point x="40" y="0" type="curve"/>
      <point x="84" y="0"/>
      <point x="111" y="0"/>
      <point x="155" y="0" type="curve"/>
      <point x="155" y="35"/>
      <point x="155" y="0"/>
    </contour>
    <contour>
      <point x="176" y="0" type="curve"/>
      <point x="176" y="722" type="line"/>
      <point x="135" y="722"/>
      <point x="176" y="722"/>
      <point x="135" y="722" type="curve"/>
      <point x="135" y="481"/>
      <point x="135" y="241"/>
      <point x="135" y="0" type="curve"/>
      <point x="176" y="0"/>
      <point x="135" y="0"/>
    </contour>
    <contour>
      <point x="510" y="380" type="curve"/>
      <point x="391" y="380"/>
      <point x="273" y="380"/>
      <point x="155" y="380" type="curve"/>
      <point x="155" y="345"/>
      <point x="155" y="380"/>
      <point x="155" y="345" type="curve"/>
      <point x="273" y="345"/>
      <point x="391" y="345"/>
      <point x="510" y="345" type="curve"/>
      <point x="510" y="380"/>
      <point x="510" y="345"/>
    </contour>
    <contour>
      <point x="531" y="8" type="curve"/>
      <point x="531" y="243"/>
      <point x="531" y="479"/>
      <point x="531" y="714" type="curve"/>
      <point x="490" y="714"/>
      <point x="531" y="714"/>
      <point x="490" y="714" type="curve"/>
      <point x="490" y="8" type="line"/>
      <point x="531" y="8"/>
      <point x="490" y="8"/>
    </contour>
  </outline>
</glyph>
<glyph name="S" format="1">
  <advance width="456"/>
  <unicode hex="0053"/>
  <outline>
    <contour>
      <point x="230" y="818" type="move" name="top"/>
    </contour>
    <contour>
      <point x="225" y="-67" type="move" name="bottom"/>
    </contour>
    <contour>
      <point x="326" y="663" type="curve"/>
      <point x="326" y="543"/>
      <point x="326" y="668"/>
      <point x="326" y="548" type="curve"/>
      <point x="361" y="548"/>
      <point x="326" y="548"/>
      <point x="361" y="548" type="curve"/>
      <point x="361" y="668"/>
      <point x="361" y="543"/>
      <point x="361" y="663" type="curve"/>
      <point x="326" y="663"/>
      <point x="361" y="663"/>
    </contour>
    <contour>
      <point x="105" y="57" type="curve"/>
      <point x="105" y="177"/>
      <point x="105" y="54"/>
      <point x="105" y="174" type="curve"/>
      <point x="70" y="174"/>
      <point x="105" y="174"/>
      <point x="70" y="174" type="curve"/>
      <point x="70" y="54"/>
      <point x="70" y="177"/>
      <point x="70" y="57" type="curve"/>
      <point x="105" y="57"/>
      <point x="70" y="57"/>
    </contour>
    <contour>
      <point x="70" y="57" type="curve"/>
      <point x="106" y="23"/>
      <point x="154" y="-5"/>
      <point x="215" y="-5" type="curve"/>
      <point x="323" y="-5"/>
      <point x="388" y="63"/>
      <point x="388" y="173" type="curve"/>
      <point x="388" y="278"/>
      <point x="331" y="333"/>
      <point x="244" y="393" type="curve"/>
      <point x="174" y="439"/>
      <point x="124" y="481"/>
      <point x="124" y="559" type="curve"/>
      <point x="123" y="635"/>
      <point x="158" y="691"/>
      <point x="227" y="691" type="curve"/>
      <point x="274" y="691"/>
      <point x="318" y="661"/>
      <point x="341" y="634" type="curve"/>
      <point x="355" y="653"/>
      <point x="348" y="645"/>
      <point x="361" y="663" type="curve"/>
      <point x="324" y="700"/>
      <point x="285" y="725"/>
      <point x="228" y="725" type="curve"/>
      <point x="132" y="725"/>
      <point x="81" y="658"/>
      <point x="81" y="558" type="curve"/>
      <point x="81" y="463"/>
      <point x="137" y="415"/>
      <point x="217" y="361" type="curve"/>
      <point x="293" y="310"/>
      <point x="346" y="260"/>
      <point x="346" y="173" type="curve"/>
      <point x="346" y="93"/>
      <point x="294" y="31"/>
      <point x="217" y="31" type="curve"/>
      <point x="164" y="31"/>
      <point x="124" y="60"/>
      <point x="93" y="90" type="curve"/>
      <point x="77" y="68"/>
      <point x="86" y="79"/>
    </contour>
  </outline>
</glyph>
<glyph name="V" format="1">
  <advance width="610"/>
  <unicode hex="0056"/>
  <outline>
    <contour>
      <point x="479" y="722" type="curve"/>
      <point x="437" y="722"/>
      <point x="401" y="722"/>
      <point x="358" y="722" type="curve"/>
      <point x="358" y="687"/>
      <point x="358" y="722"/>
      <point x="358" y="687" type="curve"/>
      <point x="486" y="687"/>
      <point x="351" y="687"/>
      <point x="479" y="687" type="curve"/>
      <point x="479" y="722"/>
      <point x="479" y="687"/>
    </contour>
    <contour>
      <point x="97" y="722" type="curve"/>
      <point x="57" y="722"/>
      <point x="24" y="722"/>
      <point x="-16" y="722" type="curve"/>
      <point x="-16" y="687"/>
      <point x="-16" y="722"/>
      <point x="-16" y="687" type="curve"/>
      <point x="105" y="687"/>
      <point x="-23" y="687"/>
      <point x="97" y="687" type="curve"/>
      <point x="97" y="722"/>
      <point x="97" y="687"/>
    </contour>
    <contour>
      <point x="480" y="687" type="curve"/>
      <point x="601" y="687"/>
      <point x="472" y="687"/>
      <point x="594" y="687" type="curve"/>
      <point x="594" y="722"/>
      <point x="594" y="687"/>
      <point x="594" y="722" type="curve"/>
      <point x="553" y="722"/>
      <point x="520" y="722"/>
      <point x="480" y="722" type="curve"/>
      <point x="480" y="687"/>
      <point x="480" y="722"/>
    </contour>
    <contour>
      <point x="99" y="687" type="curve"/>
      <point x="227" y="687"/>
      <point x="91" y="687"/>
      <point x="220" y="687" type="curve"/>
      <point x="220" y="722"/>
      <point x="220" y="687"/>
      <point x="220" y="722" type="curve"/>
      <point x="177" y="722"/>
      <point x="141" y="722"/>
      <point x="99" y="722" type="curve"/>
      <point x="99" y="687"/>
      <point x="99" y="722"/>
    </contour>
    <contour>
      <point x="467" y="722" type="curve"/>
      <point x="402" y="481"/>
      <point x="337" y="241"/>
      <point x="273" y="0" type="curve"/>
      <point x="317" y="0"/>
      <point x="270" y="0"/>
      <point x="315" y="0" type="curve"/>
      <point x="380" y="241"/>
      <point x="445" y="481"/>
      <point x="511" y="722" type="curve"/>
      <point x="467" y="722"/>
      <point x="511" y="722"/>
    </contour>
    <contour>
      <point x="66" y="722" type="curve"/>
      <point x="133" y="481"/>
      <point x="200" y="241"/>
      <point x="266" y="0" type="curve"/>
      <point x="311" y="0"/>
      <point x="264" y="0"/>
      <point x="309" y="0" type="curve"/>
      <point x="243" y="241"/>
      <point x="177" y="481"/>
      <point x="112" y="722" type="curve"/>
      <point x="66" y="722"/>
      <point x="112" y="722"/>
    </contour>
  </outline>
</glyph>
<glyph name="backslash" format="1">
  <advance width="398"/>
  <unicode hex="005C"/>
  <outline>
    <contour>
      <point x="359" y="-68" type="curve"/>
      <point x="267" y="236"/>
      <point x="174" y="540"/>
      <point x="82" y="844" type="curve"/>
      <point x="39" y="844"/>
      <point x="82" y="844"/>
      <point x="39" y="844" type="curve"/>
      <point x="131" y="540"/>
      <point x="223" y="236"/>
      <point x="316" y="-68" type="curve"/>
      <point x="359" y="-68"/>
      <point x="316" y="-68"/>
    </contour>
  </outline>
</glyph>
<glyph name="asciicircum" format="1">
  <advance width="427"/>
  <unicode hex="005E"/>
  <outline>
    <contour>
      <point x="111" y="464" type="curve"/>
      <point x="152" y="577"/>
      <point x="193" y="689"/>
      <point x="234" y="802" type="curve"/>
      <point x="192" y="802"/>
      <point x="234" y="802"/>
      <point x="192" y="802" type="curve"/>
      <point x="151" y="689"/>
      <point x="110" y="577"/>
      <point x="69" y="464" type="curve"/>
      <point x="111" y="464"/>
      <point x="69" y="464"/>
    </contour>
    <contour>
      <point x="359" y="464" type="curve"/>
      <point x="318" y="573"/>
      <point x="274" y="692"/>
      <point x="234" y="802" type="curve"/>
      <point x="192" y="802"/>
      <point x="234" y="802"/>
      <point x="192" y="802" type="curve"/>
      <point x="233" y="692"/>
      <point x="277" y="573"/>
      <point x="318" y="464" type="curve"/>
      <point x="359" y="464"/>
      <point x="318" y="464"/>
    </contour>
  </outline>
</glyph>
<glyph name="underscore" format="1">
  <advance width="483"/>
  <unicode hex="005F"/>
  <outline>
    <contour>
      <point x="-1" y="-206" type="curve"/>
      <point x="161" y="-206"/>
      <point x="321" y="-206"/>
      <point x="482" y="-206" type="curve"/>
      <point x="482" y="-171"/>
      <point x="482" y="-206"/>
      <point x="482" y="-171" type="curve"/>
      <point x="321" y="-171"/>
      <point x="161" y="-171"/>
      <point x="-1" y="-171" type="curve"/>
      <point x="-1" y="-206"/>
      <point x="-1" y="-171"/>
    </contour>
  </outline>
</glyph>
<glyph name="grave" format="1">
  <advance width="342"/>
  <unicode hex="0060"/>
  <outline>
    <contour>
      <point x="155" y="590" type="move" name="_top"/>
    </contour>
    <contour>
      <point x="177" y="590" type="line"/>
      <point x="108" y="756" type="line"/>
      <point x="56" y="756" type="line"/>
      <point x="137" y="590" type="line"/>
    </contour>
  </outline>
</glyph>
<glyph name="d" format="1">
  <advance width="506"/>
  <unicode hex="0064"/>
  <outline>
    <contour>
      <point x="378" y="800" type="curve"/>
      <point x="334" y="800"/>
      <point x="307" y="800"/>
      <point x="263" y="800" type="curve"/>
      <point x="263" y="765"/>
      <point x="263" y="800"/>
      <point x="263" y="765" type="curve"/>
      <point x="396" y="765"/>
      <point x="246" y="765"/>
      <point x="378" y="765" type="curve"/>
      <point x="378" y="800"/>
      <point x="378" y="765"/>
    </contour>
    <contour>
      <point x="379" y="0" type="curve"/>
      <point x="424" y="0"/>
      <point x="451" y="0"/>
      <point x="495" y="0" type="curve"/>
      <point x="495" y="35"/>
      <point x="495" y="0"/>
      <point x="495" y="35" type="curve"/>
      <point x="362" y="35"/>
      <point x="512" y="35"/>
      <point x="379" y="35" type="curve"/>
      <point x="379" y="0"/>
      <point x="379" y="35"/>
    </contour>
    <contour>
      <point x="386" y="440" type="curve"/>
      <point x="361" y="497"/>
      <point x="307" y="537"/>
      <point x="238" y="537" type="curve"/>
      <point x="106" y="537"/>
      <point x="58" y="410"/>
      <point x="58" y="264" type="curve"/>
      <point x="58" y="119"/>
      <point x="109" y="-4"/>
      <point x="239" y="-4" type="curve"/>
      <point x="314" y="-4"/>
      <point x="360" y="49"/>
      <point x="386" y="127" type="curve"/>
      <point x="366" y="151"/>
      <point x="386" y="127"/>
      <point x="366" y="151" type="curve"/>
      <point x="343" y="82"/>
      <point x="302" y="31"/>
      <point x="242" y="31" type="curve"/>
      <point x="137" y="31"/>
      <point x="99" y="141"/>
      <point x="99" y="265" type="curve"/>
      <point x="99" y="390"/>
      <point x="136" y="502"/>
      <point x="243" y="502" type="curve"/>
      <point x="296" y="502"/>
      <point x="345" y="466"/>
      <point x="366" y="414" type="curve"/>
      <point x="386" y="440"/>
      <point x="366" y="414"/>
    </contour>
    <contour>
      <point x="401" y="0" type="curve"/>
      <point x="401" y="267"/>
      <point x="401" y="533"/>
      <point x="401" y="800" type="curve"/>
      <point x="357" y="800"/>
      <point x="401" y="800"/>
      <point x="357" y="800" type="curve"/>
      <point x="357" y="533"/>
      <point x="357" y="267"/>
      <point x="357" y="0" type="curve"/>
      <point x="401" y="0"/>
      <point x="357" y="0"/>
    </contour>
  </outline>
</glyph>
<glyph name="k" format="1">
  <advance width="465"/>
  <unicode hex="006B"/>
  <outline>
    <contour>
      <point x="284" y="-68" type="move" name="bottom"/>
    </contour>
    <contour>
      <point x="123" y="35" type="curve"/>
      <point x="-1" y="35"/>
      <point x="130" y="35"/>
      <point x="7" y="35" type="curve"/>
      <point x="7" y="0"/>
      <point x="7" y="35"/>
      <point x="7" y="0" type="curve"/>
      <point x="48" y="0"/>
      <point x="82" y="0"/>
      <point x="123" y="0" type="curve"/>
      <point x="123" y="35"/>
      <point x="123" y="0"/>
    </contour>
    <contour>
      <point x="344" y="0" type="curve"/>
      <point x="381" y="0"/>
      <point x="412" y="0"/>
      <point x="450" y="0" type="curve"/>
      <point x="450" y="35"/>
      <point x="450" y="0"/>
      <point x="450" y="35" type="curve"/>
      <point x="338" y="35"/>
      <point x="456" y="35"/>
      <point x="345" y="35" type="curve"/>
      <point x="345" y="0"/>
      <point x="344" y="35"/>
    </contour>
    <contour>
      <point x="331" y="498" type="curve"/>
      <point x="431" y="498"/>
      <point x="324" y="498"/>
      <point x="425" y="498" type="curve"/>
      <point x="425" y="533"/>
      <point x="425" y="498"/>
      <point x="425" y="533" type="curve"/>
      <point x="391" y="533"/>
      <point x="364" y="533"/>
      <point x="331" y="533" type="curve"/>
      <point x="331" y="498"/>
      <point x="331" y="533"/>
    </contour>
    <contour>
      <point x="123" y="0" type="curve"/>
      <point x="157" y="0"/>
      <point x="116" y="0"/>
      <point x="219" y="0" type="curve"/>
      <point x="219" y="35"/>
      <point x="219" y="0"/>
      <point x="219" y="35" type="curve"/>
      <point x="116" y="35"/>
      <point x="226" y="35"/>
      <point x="123" y="35" type="curve"/>
      <point x="123" y="0"/>
      <point x="123" y="35"/>
    </contour>
    <contour>
      <point x="335" y="533" type="curve"/>
      <point x="294" y="533"/>
      <point x="260" y="533"/>
      <point x="218" y="533" type="curve"/>
      <point x="218" y="498"/>
      <point x="218" y="533"/>
      <point x="218" y="498" type="curve"/>
      <point x="343" y="498"/>
      <point x="211" y="498"/>
      <point x="335" y="498" type="curve"/>
      <point x="335" y="533"/>
      <point x="335" y="498"/>
    </contour>
    <contour>
      <point x="124" y="800" type="curve"/>
      <point x="83" y="800"/>
      <point x="49" y="800"/>
      <point x="8" y="800" type="curve"/>
      <point x="8" y="765"/>
      <point x="8" y="800"/>
      <point x="8" y="765" type="curve"/>
      <point x="131" y="765"/>
      <point x="0" y="765"/>
      <point x="124" y="765" type="curve"/>
      <point x="124" y="800"/>
      <point x="124" y="765"/>
    </contour>
    <contour>
      <point x="143" y="0" type="curve"/>
      <point x="143" y="800" type="line"/>
      <point x="102" y="800"/>
      <point x="143" y="800"/>
      <point x="102" y="800" type="curve"/>
      <point x="102" y="533"/>
      <point x="102" y="267"/>
      <point x="102" y="0" type="curve"/>
      <point x="143" y="0"/>
      <point x="102" y="0"/>
    </contour>
    <contour>
      <point x="320" y="533" type="curve"/>
      <point x="128" y="275" type="line"/>
      <point x="179" y="275"/>
      <point x="125" y="275"/>
      <point x="175" y="275" type="curve"/>
      <point x="365" y="525" type="line"/>
      <point x="316" y="525"/>
      <point x="368" y="533"/>
    </contour>
    <contour>
      <point x="381" y="10" type="curve"/>
      <point x="175" y="275" type="line"/>
      <point x="125" y="275"/>
      <point x="179" y="275"/>
      <point x="128" y="275" type="curve"/>
      <point x="338" y="0" type="line"/>
      <point x="385" y="0"/>
      <point x="335" y="10"/>
    </contour>
  </outline>
</glyph>
<glyph name="braceleft" format="1">
  <advance width="249"/>
  <unicode hex="007B"/>
  <outline>
    <contour>
      <point x="202" y="-87" type="curve"/>
      <point x="146" y="-87"/>
      <point x="139" y="-32"/>
      <point x="139" y="32" type="curve"/>
      <point x="139" y="90"/>
      <point x="139" y="148"/>
      <point x="139" y="205" type="curve"/>
      <point x="139" y="289"/>
      <point x="113" y="357"/>
      <point x="38" y="357" type="curve"/>
      <point x="38" y="321"/>
      <point x="38" y="357"/>
      <point x="38" y="321" type="curve"/>
      <point x="90" y="321"/>
      <point x="101" y="269"/>
      <point x="101" y="209" type="curve"/>
      <point x="101" y="151"/>
      <point x="101" y="92"/>
      <point x="101" y="34" type="curve"/>
      <point x="101" y="-53"/>
      <point x="126" y="-122"/>
      <point x="202" y="-122" type="curve"/>
      <point x="202" y="-87"/>
      <point x="202" y="-122"/>
    </contour>
    <contour>
      <point x="202" y="799" type="curve"/>
      <point x="126" y="799"/>
      <point x="101" y="731"/>
      <point x="101" y="645" type="curve"/>
      <point x="101" y="585"/>
      <point x="101" y="526"/>
      <point x="101" y="467" type="curve"/>
      <point x="101" y="407"/>
      <point x="90" y="357"/>
      <point x="38" y="357" type="curve"/>
      <point x="38" y="321"/>
      <point x="38" y="357"/>
      <point x="38" y="321" type="curve"/>
      <point x="113" y="321"/>
      <point x="139" y="387"/>
      <point x="139" y="472" type="curve"/>
      <point x="139" y="530"/>
      <point x="139" y="587"/>
      <point x="139" y="645" type="curve"/>
      <point x="139" y="708"/>
      <point x="146" y="764"/>
      <point x="202" y="764" type="curve"/>
      <point x="202" y="799"/>
      <point x="202" y="764"/>
    </contour>
  </outline>
</glyph>
<glyph name="section" format="1">
  <advance width="398"/>
  <unicode hex="00A7"/>
  <outline>
    <contour>
      <point x="310" y="707" type="curve"/>
      <point x="274" y="736"/>
      <point x="246" y="751"/>
      <point x="202" y="751" type="curve"/>
      <point x="127" y="751"/>
      <point x="89" y="697"/>
      <point x="89" y="622" type="curve"/>
      <point x="89" y="554"/>
      <point x="121" y="507"/>
      <point x="182" y="476" type="curve"/>
      <point x="243" y="447"/>
      <point x="296" y="425"/>
      <point x="296" y="361" type="curve"/>
      <point x="296" y="298"/>
      <point x="273" y="253"/>
      <point x="214" y="236" type="curve"/>
      <point x="238" y="208"/>
      <point x="214" y="236"/>
      <point x="238" y="208" type="curve"/>
      <point x="309" y="231"/>
      <point x="338" y="286"/>
      <point x="338" y="361" type="curve"/>
      <point x="337" y="441"/>
      <point x="278" y="476"/>
      <point x="203" y="509" type="curve"/>
      <point x="155" y="532"/>
      <point x="129" y="569"/>
      <point x="129" y="622" type="curve"/>
      <point x="129" y="674"/>
      <point x="149" y="717"/>
      <point x="200" y="717" type="curve"/>
      <point x="238" y="717"/>
      <point x="261" y="702"/>
      <point x="289" y="681" type="curve"/>
      <point x="310" y="707"/>
      <point x="289" y="681"/>
    </contour>
    <contour>
      <point x="160" y="515" type="curve"/>
      <point x="95" y="487"/>
      <point x="65" y="438"/>
      <point x="65" y="367" type="curve"/>
      <point x="65" y="290"/>
      <point x="115" y="248"/>
      <point x="187" y="216" type="curve"/>
      <point x="239" y="191"/>
      <point x="277" y="162"/>
      <point x="277" y="105" type="curve"/>
      <point x="277" y="48"/>
      <point x="253" y="5"/>
      <point x="202" y="5" type="curve"/>
      <point x="157" y="5"/>
      <point x="132" y="25"/>
      <point x="100" y="55" type="curve"/>
      <point x="75" y="30"/>
      <point x="100" y="55"/>
      <point x="75" y="30" type="curve"/>
      <point x="114" y="-9"/>
      <point x="149" y="-29"/>
      <point x="200" y="-29" type="curve"/>
      <point x="275" y="-29"/>
      <point x="317" y="25"/>
      <point x="317" y="105" type="curve"/>
      <point x="316" y="175"/>
      <point x="279" y="219"/>
      <point x="213" y="249" type="curve"/>
      <point x="155" y="277"/>
      <point x="106" y="305"/>
      <point x="106" y="367" type="curve"/>
      <point x="106" y="425"/>
      <point x="128" y="466"/>
      <point x="181" y="489" type="curve"/>
      <point x="160" y="515"/>
      <point x="181" y="489"/>
    </contour>
    <contour>
      <point x="110" y="30" type="curve"/>
      <point x="110" y="150"/>
      <point x="110" y="29"/>
      <point x="110" y="149" type="curve"/>
      <point x="75" y="149"/>
      <point x="110" y="149"/>
      <point x="75" y="149" type="curve"/>
      <point x="75" y="29"/>
      <point x="75" y="150"/>
      <point x="75" y="30" type="curve"/>
      <point x="110" y="30"/>
      <point x="75" y="30"/>
    </contour>
    <contour>
      <point x="310" y="588" type="curve"/>
      <point x="310" y="708"/>
      <point x="310" y="587"/>
      <point x="310" y="707" type="curve"/>
      <point x="275" y="707"/>
      <point x="310" y="707"/>
      <point x="275" y="707" type="curve"/>
      <point x="275" y="587"/>
      <point x="275" y="708"/>
      <point x="275" y="588" type="curve"/>
      <point x="310" y="588"/>
      <point x="275" y="588"/>
    </contour>
  </outline>
</glyph>
<glyph name="dieresis" format="1">
  <advance width="332"/>
  <unicode hex="00A8"/>
  <outline>
    <contour>
      <point x="125" y="648" type="move" name="_top"/>
    </contour>
    <contour>
      <point x="100" y="669" type="curve"/>
      <point x="100" y="686"/>
      <point x="89" y="694"/>
      <point x="74" y="694" type="curve"/>
      <point x="58" y="694"/>
      <point x="48" y="684"/>
      <point x="48" y="669" type="curve"/>
      <point x="100" y="669"/>
      <point x="48" y="669"/>
      <point x="100" y="669" type="curve"/>
      <point x="100" y="653"/>
      <point x="90" y="644"/>
      <point x="74" y="644" type="curve"/>
      <point x="58" y="644"/>
      <point x="48" y="653"/>
      <point x="48" y="669" type="curve"/>
      <point x="100" y="669"/>
      <point x="48" y="669"/>
    </contour>
    <contour>
      <point x="201" y="669" type="curve"/>
      <point x="201" y="686"/>
      <point x="190" y="694"/>
      <point x="175" y="694" type="curve"/>
      <point x="159" y="694"/>
      <point x="149" y="684"/>
      <point x="149" y="669" type="curve"/>
      <point x="201" y="669"/>
      <point x="149" y="669"/>
      <point x="201" y="669" type="curve"/>
      <point x="201" y="653"/>
      <point x="191" y="644"/>
      <point x="175" y="644" type="curve"/>
      <point x="159" y="644"/>
      <point x="149" y="653"/>
      <point x="149" y="669" type="curve"/>
      <point x="201" y="669"/>
      <point x="149" y="669"/>
    </contour>
  </outline>
</glyph>
<glyph name="ordfeminine" format="1">
  <advance width="373"/>
  <unicode hex="00AA"/>
  <outline>
    <contour>
      <point x="87" y="718" type="curve"/>
      <point x="87" y="691"/>
      <point x="87" y="690"/>
      <point x="87" y="663" type="curve"/>
      <point x="105" y="663"/>
      <point x="98" y="663"/>
      <point x="116" y="663" type="curve"/>
      <point x="116" y="690"/>
      <point x="116" y="691"/>
      <point x="116" y="718" type="curve"/>
      <point x="98" y="718"/>
      <point x="105" y="718"/>
    </contour>
    <contour>
      <point x="266" y="429" type="curve"/>
      <point x="266" y="520"/>
      <point x="266" y="588"/>
      <point x="266" y="679" type="curve"/>
      <point x="266" y="734"/>
      <point x="232" y="767"/>
      <point x="177" y="767" type="curve"/>
      <point x="137" y="767"/>
      <point x="112" y="747"/>
      <point x="87" y="718" type="curve"/>
      <point x="97" y="705"/>
      <point x="95" y="709"/>
      <point x="105" y="694" type="curve"/>
      <point x="121" y="715"/>
      <point x="140" y="737"/>
      <point x="173" y="737" type="curve"/>
      <point x="211" y="737"/>
      <point x="232" y="711"/>
      <point x="232" y="671" type="curve"/>
      <point x="232" y="583"/>
      <point x="232" y="518"/>
      <point x="232" y="429" type="curve"/>
      <point x="254" y="429"/>
      <point x="245" y="429"/>
    </contour>
    <contour>
      <point x="250" y="429" type="curve"/>
      <point x="269" y="429"/>
      <point x="281" y="429"/>
      <point x="300" y="429" type="curve"/>
      <point x="300" y="446"/>
      <point x="300" y="441"/>
      <point x="300" y="458" type="curve"/>
      <point x="274" y="458"/>
      <point x="277" y="458"/>
      <point x="250" y="458" type="curve"/>
      <point x="250" y="441"/>
      <point x="250" y="446"/>
    </contour>
    <contour>
      <point x="248" y="634" type="curve"/>
      <point x="216" y="629"/>
      <point x="195" y="626"/>
      <point x="163" y="620" type="curve"/>
      <point x="109" y="609"/>
      <point x="74" y="577"/>
      <point x="74" y="521" type="curve"/>
      <point x="74" y="466"/>
      <point x="104" y="428"/>
      <point x="160" y="428" type="curve"/>
      <point x="211" y="428"/>
      <point x="233" y="466"/>
      <point x="258" y="510" type="curve"/>
      <point x="248" y="519"/>
      <point x="251" y="517"/>
      <point x="241" y="526" type="curve"/>
      <point x="222" y="489"/>
      <point x="207" y="457"/>
      <point x="167" y="457" type="curve"/>
      <point x="127" y="457"/>
      <point x="107" y="485"/>
      <point x="107" y="524" type="curve"/>
      <point x="107" y="562"/>
      <point x="129" y="586"/>
      <point x="163" y="593" type="curve"/>
      <point x="195" y="599"/>
      <point x="217" y="603"/>
      <point x="250" y="609" type="curve"/>
      <point x="249" y="624"/>
      <point x="249" y="620"/>
    </contour>
  </outline>
</glyph>
<glyph name="guillemotleft" format="1">
  <advance width="503"/>
  <unicode hex="00AB"/>
  <outline>
    <contour>
      <point x="250" y="413" type="curve"/>
      <point x="243" y="408"/>
      <point x="76" y="303"/>
      <point x="70" y="298" type="curve"/>
      <point x="70" y="260"/>
      <point x="70" y="295"/>
      <point x="70" y="257" type="curve"/>
      <point x="76" y="262"/>
      <point x="243" y="368"/>
      <point x="250" y="373" type="curve"/>
      <point x="250" y="412"/>
      <point x="250" y="375"/>
    </contour>
    <contour>
      <point x="250" y="182" type="curve"/>
      <point x="244" y="187"/>
      <point x="76" y="293"/>
      <point x="70" y="298" type="curve"/>
      <point x="70" y="260"/>
      <point x="70" y="295"/>
      <point x="70" y="257" type="curve"/>
      <point x="76" y="252"/>
      <point x="244" y="148"/>
      <point x="250" y="144" type="curve"/>
      <point x="250" y="181"/>
      <point x="250" y="145"/>
    </contour>
    <contour>
      <point x="412" y="413" type="curve"/>
      <point x="406" y="408"/>
      <point x="239" y="303"/>
      <point x="233" y="298" type="curve"/>
      <point x="233" y="260"/>
      <point x="233" y="295"/>
      <point x="233" y="257" type="curve"/>
      <point x="239" y="262"/>
      <point x="406" y="368"/>
      <point x="412" y="373" type="curve"/>
      <point x="412" y="412"/>
      <point x="412" y="375"/>
    </contour>
    <contour>
      <point x="413" y="182" type="curve"/>
      <point x="407" y="187"/>
      <point x="239" y="293"/>
      <point x="233" y="298" type="curve"/>
      <point x="233" y="260"/>
      <point x="233" y="295"/>
      <point x="233" y="257" type="curve"/>
      <point x="239" y="252"/>
      <point x="407" y="148"/>
      <point x="413" y="144" type="curve"/>
      <point x="413" y="181"/>
      <point x="413" y="145"/>
    </contour>
  </outline>
</glyph>
<glyph name="logicalnot" format="1">
  <advance width="613"/>
  <unicode hex="00AC"/>
  <outline>
    <contour>
      <point x="104" y="291" type="curve"/>
      <point x="528" y="291" type="line"/>
      <point x="528" y="329"/>
      <point x="528" y="291"/>
      <point x="528" y="329" type="curve"/>
      <point x="104" y="329" type="line"/>
      <point x="104" y="291"/>
      <point x="104" y="329"/>
    </contour>
    <contour>
      <point x="528" y="151" type="curve"/>
      <point x="528" y="329" type="line"/>
      <point x="487" y="329"/>
      <point x="528" y="329"/>
      <point x="487" y="329" type="curve"/>
      <point x="487" y="151" type="line"/>
      <point x="528" y="151"/>
      <point x="487" y="151"/>
    </contour>
  </outline>
</glyph>
<glyph name="registered" format="1">
  <advance width="594"/>
  <unicode hex="00AE"/>
  <outline>
    <contour>
      <point x="98" y="319" type="curve"/>
      <point x="98" y="480"/>
      <point x="156" y="616"/>
      <point x="300" y="616" type="curve"/>
      <point x="441" y="616"/>
      <point x="497" y="479"/>
      <point x="497" y="318" type="curve"/>
      <point x="497" y="162"/>
      <point x="444" y="26"/>
      <point x="304" y="26" type="curve"/>
      <point x="162" y="26"/>
      <point x="98" y="159"/>
      <point x="98" y="319" type="curve"/>
      <point x="72" y="319"/>
      <point x="89" y="319"/>
      <point x="63" y="319" type="curve"/>
      <point x="63" y="142"/>
      <point x="141" y="-4"/>
      <point x="303" y="-4" type="curve"/>
      <point x="462" y="-4"/>
      <point x="531" y="143"/>
      <point x="531" y="320" type="curve"/>
      <point x="531" y="498"/>
      <point x="460" y="646"/>
      <point x="300" y="646" type="curve"/>
      <point x="138" y="646"/>
      <point x="63" y="499"/>
      <point x="63" y="319" type="curve"/>
      <point x="89" y="319"/>
      <point x="72" y="319"/>
    </contour>
    <contour>
      <point x="364" y="148" type="curve"/>
      <point x="385" y="148"/>
      <point x="400" y="148"/>
      <point x="420" y="148" type="curve"/>
      <point x="420" y="179"/>
      <point x="420" y="148"/>
      <point x="420" y="179" type="curve"/>
      <point x="409" y="179"/>
      <point x="400" y="179"/>
      <point x="388" y="179" type="curve"/>
      <point x="367" y="164"/>
      <point x="380" y="182"/>
    </contour>
    <contour>
      <point x="265" y="494" type="curve"/>
      <point x="239" y="494"/>
      <point x="214" y="494"/>
      <point x="188" y="494" type="curve"/>
      <point x="188" y="462"/>
      <point x="188" y="494"/>
      <point x="188" y="462" type="curve"/>
      <point x="202" y="462"/>
      <point x="214" y="462"/>
      <point x="227" y="462" type="curve"/>
      <point x="265" y="494"/>
      <point x="227" y="462"/>
    </contour>
    <contour>
      <point x="265" y="179" type="curve"/>
      <point x="239" y="179"/>
      <point x="214" y="179"/>
      <point x="188" y="179" type="curve"/>
      <point x="188" y="148"/>
      <point x="188" y="179"/>
      <point x="188" y="148" type="curve"/>
      <point x="202" y="148"/>
      <point x="214" y="148"/>
      <point x="227" y="148" type="curve"/>
      <point x="265" y="179"/>
      <point x="227" y="148"/>
    </contour>
    <contour>
      <point x="227" y="148" type="curve"/>
      <point x="251" y="148"/>
      <point x="273" y="148"/>
      <point x="296" y="148" type="curve"/>
      <point x="296" y="179"/>
      <point x="296" y="148"/>
      <point x="296" y="179" type="curve"/>
      <point x="285" y="179"/>
      <point x="275" y="179"/>
      <point x="265" y="179" type="curve"/>
      <point x="227" y="148"/>
      <point x="265" y="179"/>
    </contour>
    <contour>
      <point x="296" y="311" type="curve"/>
      <point x="314" y="265"/>
      <point x="347" y="193"/>
      <point x="364" y="148" type="curve"/>
      <point x="389" y="170"/>
      <point x="372" y="152"/>
      <point x="388" y="179" type="curve"/>
      <point x="334" y="310" type="line"/>
      <point x="291" y="310"/>
      <point x="339" y="312"/>
    </contour>
    <contour>
      <point x="263" y="179" type="curve"/>
      <point x="263" y="284"/>
      <point x="263" y="389"/>
      <point x="263" y="494" type="curve"/>
      <point x="225" y="462"/>
      <point x="265" y="494"/>
      <point x="227" y="462" type="curve"/>
      <point x="227" y="357"/>
      <point x="227" y="252"/>
      <point x="227" y="148" type="curve"/>
      <point x="265" y="179"/>
      <point x="225" y="148"/>
    </contour>
    <contour>
      <point x="247" y="291" type="curve"/>
      <point x="261" y="291"/>
      <point x="276" y="291"/>
      <point x="290" y="291" type="curve"/>
      <point x="350" y="291"/>
      <point x="383" y="327"/>
      <point x="383" y="392" type="curve"/>
      <point x="383" y="451"/>
      <point x="354" y="494"/>
      <point x="299" y="494" type="curve"/>
      <point x="288" y="494"/>
      <point x="276" y="494"/>
      <point x="265" y="494" type="curve"/>
      <point x="227" y="462"/>
      <point x="265" y="494"/>
      <point x="227" y="462" type="curve"/>
      <point x="249" y="462"/>
      <point x="271" y="462"/>
      <point x="293" y="462" type="curve"/>
      <point x="330" y="462"/>
      <point x="348" y="431"/>
      <point x="348" y="390" type="curve"/>
      <point x="348" y="349"/>
      <point x="332" y="323"/>
      <point x="296" y="323" type="curve"/>
      <point x="279" y="323"/>
      <point x="263" y="323"/>
      <point x="247" y="323" type="curve"/>
      <point x="247" y="291"/>
      <point x="247" y="323"/>
    </contour>
  </outline>
</glyph>
<glyph name="macron" format="1">
  <advance width="279"/>
  <unicode hex="00AF"/>
  <outline>
    <contour>
      <point x="104" y="647" type="move" name="_top"/>
    </contour>
    <contour>
      <point x="182" y="681" type="curve"/>
      <point x="130" y="681"/>
      <point x="76" y="681"/>
      <point x="23" y="681" type="curve"/>
      <point x="23" y="647"/>
      <point x="23" y="681"/>
      <point x="23" y="647" type="curve"/>
      <point x="76" y="647"/>
      <point x="130" y="647"/>
      <point x="182" y="647" type="curve"/>
      <point x="182" y="681"/>
      <point x="182" y="647"/>
    </contour>
  </outline>
</glyph>
<glyph name="degree" format="1">
  <advance width="387"/>
  <unicode hex="00B0"/>
  <outline>
    <contour>
      <point x="319" y="459" type="curve"/>
      <point x="319" y="570"/>
      <point x="291" y="660"/>
      <point x="193" y="660" type="curve"/>
      <point x="96" y="660"/>
      <point x="69" y="571"/>
      <point x="69" y="461" type="curve"/>
      <point x="95" y="461"/>
      <point x="79" y="461"/>
      <point x="105" y="461" type="curve"/>
      <point x="105" y="549"/>
      <point x="114" y="628"/>
      <point x="191" y="628" type="curve"/>
      <point x="268" y="628"/>
      <point x="281" y="549"/>
      <point x="281" y="459" type="curve"/>
      <point x="281" y="366"/>
      <point x="273" y="285"/>
      <point x="194" y="285" type="curve"/>
      <point x="113" y="285"/>
      <point x="105" y="368"/>
      <point x="105" y="461" type="curve"/>
      <point x="79" y="461"/>
      <point x="95" y="461"/>
      <point x="69" y="461" type="curve"/>
      <point x="69" y="346"/>
      <point x="93" y="252"/>
      <point x="193" y="252" type="curve"/>
      <point x="293" y="252"/>
      <point x="319" y="345"/>
    </contour>
  </outline>
</glyph>
<glyph name="threesuperior" format="1">
  <advance width="358"/>
  <unicode hex="00B3"/>
  <outline>
    <contour>
      <point x="193" y="713" type="move" name="_top"/>
    </contour>
    <contour>
      <point x="178" y="292" type="move" name="_bottom"/>
    </contour>
    <contour>
      <point x="107" y="641" type="curve"/>
      <point x="122" y="662"/>
      <point x="140" y="682"/>
      <point x="168" y="682" type="curve"/>
      <point x="212" y="682"/>
      <point x="236" y="650"/>
      <point x="236" y="603" type="curve"/>
      <point x="236" y="554"/>
      <point x="192" y="525"/>
      <point x="138" y="520" type="curve"/>
      <point x="138" y="493"/>
      <point x="138" y="520"/>
      <point x="138" y="493" type="curve"/>
      <point x="215" y="496"/>
      <point x="273" y="534"/>
      <point x="273" y="606" type="curve"/>
      <point x="273" y="671"/>
      <point x="236" y="713"/>
      <point x="172" y="713" type="curve"/>
      <point x="134" y="713"/>
      <point x="102" y="690"/>
      <point x="83" y="660" type="curve"/>
      <point x="107" y="641"/>
      <point x="83" y="660"/>
    </contour>
    <contour>
      <point x="79" y="326" type="curve"/>
      <point x="103" y="304"/>
      <point x="130" y="292"/>
      <point x="163" y="292" type="curve"/>
      <point x="237" y="289"/>
      <point x="285" y="333"/>
      <point x="284" y="407" type="curve"/>
      <point x="284" y="481"/>
      <point x="219" y="510"/>
      <point x="138" y="513" type="curve"/>
      <point x="138" y="490"/>
      <point x="138" y="513"/>
      <point x="138" y="490" type="curve"/>
      <point x="201" y="485"/>
      <point x="247" y="457"/>
      <point x="247" y="406" type="curve"/>
      <point x="246" y="355"/>
      <point x="217" y="321"/>
      <point x="167" y="323" type="curve"/>
      <point x="141" y="323"/>
      <point x="118" y="333"/>
      <point x="98" y="349" type="curve"/>
      <point x="79" y="326"/>
      <point x="98" y="349"/>
    </contour>
  </outline>
</glyph>
<glyph name="acute" format="1">
  <advance width="211"/>
  <unicode hex="00B4"/>
  <outline>
    <contour>
      <point x="33" y="590" type="move" name="_top"/>
    </contour>
    <contour>
      <point x="52" y="590" type="line"/>
      <point x="133" y="756" type="line"/>
      <point x="80" y="756" type="line"/>
      <point x="12" y="590" type="line"/>
    </contour>
  </outline>
</glyph>
<glyph name="periodcentered" format="1">
  <advance width="213"/>
  <unicode hex="00B7"/>
  <outline>
    <contour>
      <point x="132" y="440" type="curve"/>
      <point x="132" y="456"/>
      <point x="122" y="465"/>
      <point x="106" y="465" type="curve"/>
      <point x="90" y="465"/>
      <point x="81" y="455"/>
      <point x="81" y="440" type="curve"/>
      <point x="132" y="440"/>
      <point x="81" y="440"/>
      <point x="132" y="440" type="curve"/>
      <point x="132" y="423"/>
      <point x="122" y="415"/>
      <point x="106" y="415" type="curve"/>
      <point x="90" y="415"/>
      <point x="81" y="424"/>
      <point x="81" y="440" type="curve"/>
      <point x="132" y="440"/>
      <point x="81" y="440"/>
    </contour>
  </outline>
</glyph>
<glyph name="ordmasculine" format="1">
  <advance width="359"/>
  <unicode hex="00BA"/>
  <outline>
    <contour>
      <point x="105" y="604" type="curve"/>
      <point x="105" y="677"/>
      <point x="119" y="737"/>
      <point x="181" y="737" type="curve"/>
      <point x="240" y="737"/>
      <point x="253" y="676"/>
      <point x="253" y="602" type="curve"/>
      <point x="253" y="521"/>
      <point x="241" y="454"/>
      <point x="185" y="454" type="curve"/>
      <point x="117" y="454"/>
      <point x="105" y="523"/>
      <point x="105" y="604" type="curve"/>
      <point x="85" y="604"/>
      <point x="93" y="604"/>
      <point x="72" y="604" type="curve"/>
      <point x="72" y="504"/>
      <point x="97" y="424"/>
      <point x="183" y="424" type="curve"/>
      <point x="263" y="424"/>
      <point x="287" y="503"/>
      <point x="287" y="602" type="curve"/>
      <point x="287" y="694"/>
      <point x="264" y="765"/>
      <point x="183" y="765" type="curve"/>
      <point x="97" y="765"/>
      <point x="72" y="694"/>
      <point x="72" y="604" type="curve"/>
      <point x="93" y="604"/>
      <point x="85" y="604"/>
    </contour>
  </outline>
</glyph>
<glyph name="Aacute" format="1">
  <advance width="609"/>
  <unicode hex="00C1"/>
  <outline>
    <contour>
      <point x="94" y="35" type="curve"/>
      <point x="-39" y="35"/>
      <point x="113" y="35"/>
      <point x="-20" y="35" type="curve"/>
      <point x="-20" y="0"/>
      <point x="-20" y="35"/>
      <point x="-20" y="0" type="curve"/>
      <point x="24" y="0"/>
      <point x="50" y="0"/>
      <point x="94" y="0" type="curve"/>
      <point x="94" y="35"/>
      <point x="94" y="0"/>
    </contour>
    <contour>
      <point x="94" y="0" type="curve"/>
      <point x="142" y="0"/>
      <point x="77" y="0"/>
      <point x="219" y="0" type="curve"/>
      <point x="219" y="35"/>
      <point x="219" y="0"/>
      <point x="219" y="35" type="curve"/>
      <point x="77" y="35"/>
      <point x="236" y="35"/>
      <point x="94" y="35" type="curve"/>
      <point x="94" y="0"/>
      <point x="94" y="35"/>
    </contour>
    <contour>
      <point x="481" y="0" type="curve"/>
      <point x="525" y="0"/>
      <point x="551" y="0"/>
      <point x="595" y="0" type="curve"/>
      <point x="595" y="35"/>
      <point x="595" y="0"/>
      <point x="595" y="35" type="curve"/>
      <point x="463" y="35"/>
      <point x="614" y="35"/>
      <point x="481" y="35" type="curve"/>
      <point x="481" y="0"/>
      <point x="481" y="35"/>
    </contour>
    <contour>
      <point x="481" y="35" type="curve"/>
      <point x="339" y="35"/>
      <point x="498" y="35"/>
      <point x="356" y="35" type="curve"/>
      <point x="356" y="0"/>
      <point x="356" y="35"/>
      <point x="356" y="0" type="curve"/>
      <point x="403" y="0"/>
      <point x="434" y="0"/>
      <point x="481" y="0" type="curve"/>
      <point x="481" y="35"/>
      <point x="481" y="0"/>
    </contour>
    <contour>
      <point x="413" y="279" type="curve"/>
      <point x="333" y="279"/>
      <point x="254" y="279"/>
      <point x="174" y="279" type="curve"/>
      <point x="157" y="243"/>
      <point x="174" y="279"/>
      <point x="157" y="243" type="curve"/>
      <point x="247" y="243"/>
      <point x="336" y="243"/>
      <point x="426" y="243" type="curve"/>
      <point x="413" y="279"/>
      <point x="426" y="243"/>
    </contour>
    <contour>
      <point x="510" y="0" type="curve"/>
      <point x="447" y="241"/>
      <point x="382" y="481"/>
      <point x="318" y="722" type="curve"/>
      <point x="280" y="722"/>
      <point x="318" y="722"/>
      <point x="280" y="722" type="curve"/>
      <point x="343" y="481"/>
      <point x="405" y="241"/>
      <point x="467" y="0" type="curve"/>
      <point x="510" y="0"/>
      <point x="467" y="0"/>
    </contour>
    <contour>
      <point x="109" y="0" type="curve"/>
      <point x="178" y="241"/>
      <point x="246" y="481"/>
      <point x="316" y="722" type="curve"/>
      <point x="279" y="722"/>
      <point x="316" y="722"/>
      <point x="279" y="722" type="curve"/>
      <point x="208" y="481"/>
      <point x="134" y="241"/>
      <point x="63" y="0" type="curve"/>
      <point x="109" y="0"/>
      <point x="63" y="0"/>
    </contour>
    <contour>
      <point x="317" y="818" type="line"/>
      <point x="397" y="984" type="line"/>
      <point x="345" y="984" type="line"/>
      <point x="276" y="818" type="line"/>
    </contour>
  </outline>
</glyph>
<glyph name="Edieresis" format="1">
  <advance width="509"/>
  <unicode hex="00CB"/>
  <outline>
    <contour>
      <point x="462" y="17" type="curve"/>
      <point x="462" y="137"/>
      <point x="462" y="9"/>
      <point x="462" y="129" type="curve"/>
      <point x="427" y="129"/>
      <point x="462" y="129"/>
      <point x="427" y="129" type="curve"/>
      <point x="427" y="9"/>
      <point x="427" y="137"/>
      <point x="427" y="17" type="curve"/>
      <point x="462" y="17"/>
      <point x="427" y="17"/>
    </contour>
    <contour>
      <point x="403" y="705" type="curve"/>
      <point x="403" y="585"/>
      <point x="403" y="713"/>
      <point x="403" y="593" type="curve"/>
      <point x="438" y="593"/>
      <point x="403" y="593"/>
      <point x="438" y="593" type="curve"/>
      <point x="438" y="713"/>
      <point x="438" y="585"/>
      <point x="438" y="705" type="curve"/>
      <point x="403" y="705"/>
      <point x="438" y="705"/>
    </contour>
    <contour>
      <point x="159" y="35" type="curve"/>
      <point x="26" y="35"/>
      <point x="176" y="35"/>
      <point x="43" y="35" type="curve"/>
      <point x="43" y="0"/>
      <point x="43" y="35"/>
      <point x="43" y="0" type="curve"/>
      <point x="88" y="0"/>
      <point x="115" y="0"/>
      <point x="159" y="0" type="curve"/>
      <point x="159" y="35"/>
      <point x="159" y="0"/>
    </contour>
    <contour>
      <point x="159" y="722" type="curve"/>
      <point x="115" y="722"/>
      <point x="88" y="722"/>
      <point x="43" y="722" type="curve"/>
      <point x="43" y="687"/>
      <point x="43" y="722"/>
      <point x="43" y="687" type="curve"/>
      <point x="176" y="687"/>
      <point x="26" y="687"/>
      <point x="159" y="687" type="curve"/>
      <point x="159" y="722"/>
      <point x="159" y="687"/>
    </contour>
    <contour>
      <point x="161" y="356" type="curve"/>
      <point x="239" y="356"/>
      <point x="316" y="356"/>
      <point x="393" y="356" type="curve"/>
      <point x="393" y="391"/>
      <point x="393" y="356"/>
      <point x="393" y="391" type="curve"/>
      <point x="316" y="391"/>
      <point x="239" y="391"/>
      <point x="161" y="391" type="curve"/>
      <point x="161" y="356"/>
      <point x="161" y="391"/>
    </contour>
    <contour>
      <point x="151" y="687" type="curve"/>
      <point x="247" y="687"/>
      <point x="342" y="687"/>
      <point x="438" y="687" type="curve"/>
      <point x="438" y="722"/>
      <point x="438" y="687"/>
      <point x="438" y="722" type="curve"/>
      <point x="342" y="722"/>
      <point x="247" y="722"/>
      <point x="151" y="722" type="curve"/>
      <point x="151" y="687"/>
      <point x="151" y="722"/>
    </contour>
    <contour>
      <point x="180" y="0" type="curve"/>
      <point x="180" y="722" type="line"/>
      <point x="138" y="722"/>
      <point x="180" y="722"/>
      <point x="138" y="722" type="curve"/>
      <point x="138" y="481"/>
      <point x="138" y="241"/>
      <point x="138" y="0" type="curve"/>
      <point x="180" y="0"/>
      <point x="138" y="0"/>
    </contour>
    <contour>
      <point x="151" y="0" type="curve"/>
      <point x="255" y="0"/>
      <point x="358" y="0"/>
      <point x="462" y="0" type="curve"/>
      <point x="462" y="35"/>
      <point x="462" y="0"/>
      <point x="462" y="35" type="curve"/>
      <point x="358" y="35"/>
      <point x="255" y="35"/>
      <point x="151" y="35" type="curve"/>
      <point x="151" y="0"/>
      <point x="151" y="35"/>
    </contour>
    <contour>
      <point x="234" y="840" type="curve"/>
      <point x="234" y="856"/>
      <point x="224" y="865"/>
      <point x="208" y="865" type="curve"/>
      <point x="192" y="865"/>
      <point x="183" y="855"/>
      <point x="183" y="840" type="curve"/>
      <point x="234" y="840"/>
      <point x="183" y="840"/>
      <point x="234" y="840" type="curve"/>
      <point x="234" y="823"/>
      <point x="224" y="815"/>
      <point x="208" y="815" type="curve"/>
      <point x="192" y="815"/>
      <point x="183" y="824"/>
      <point x="183" y="840" type="curve"/>
      <point x="234" y="840"/>
      <point x="183" y="840"/>
    </contour>
    <contour>
      <point x="335" y="840" type="curve"/>
      <point x="335" y="856"/>
      <point x="325" y="865"/>
      <point x="309" y="865" type="curve"/>
      <point x="293" y="865"/>
      <point x="284" y="855"/>
      <point x="284" y="840" type="curve"/>
      <point x="335" y="840"/>
      <point x="284" y="840"/>
      <point x="335" y="840" type="curve"/>
      <point x="335" y="823"/>
      <point x="325" y="815"/>
      <point x="309" y="815" type="curve"/>
      <point x="293" y="815"/>
      <point x="284" y="824"/>
      <point x="284" y="840" type="curve"/>
      <point x="335" y="840"/>
      <point x="284" y="840"/>
    </contour>
  </outline>
</glyph>
<glyph name="Iacute" format="1">
  <advance width="311"/>
  <unicode hex="00CD"/>
  <outline>
    <contour>
      <point x="156" y="722" type="curve"/>
      <point x="111" y="722"/>
      <point x="84" y="722"/>
      <point x="40" y="722" type="curve"/>
      <point x="40" y="687"/>
      <point x="40" y="722"/>
      <point x="40" y="687" type="curve"/>
      <point x="173" y="687"/>
      <point x="23" y="687"/>
      <point x="156" y="687" type="curve"/>
      <point x="156" y="722"/>
      <point x="156" y="687"/>
    </contour>
    <contour>
      <point x="156" y="687" type="curve"/>
      <point x="289" y="687"/>
      <point x="139" y="687"/>
      <point x="272" y="687" type="curve"/>
      <point x="272" y="722"/>
      <point x="272" y="687"/>
      <point x="272" y="722" type="curve"/>
      <point x="227" y="722"/>
      <point x="200" y="722"/>
      <point x="156" y="722" type="curve"/>
      <point x="156" y="687"/>
      <point x="156" y="722"/>
    </contour>
    <contour>
      <point x="156" y="0" type="curve"/>
      <point x="200" y="0"/>
      <point x="227" y="0"/>
      <point x="272" y="0" type="curve"/>
      <point x="272" y="35"/>
      <point x="272" y="0"/>
      <point x="272" y="35" type="curve"/>
      <point x="139" y="35"/>
      <point x="289" y="35"/>
      <point x="156" y="35" type="curve"/>
      <point x="156" y="0"/>
      <point x="156" y="35"/>
    </contour>
    <contour>
      <point x="156" y="35" type="curve"/>
      <point x="23" y="35"/>
      <point x="173" y="35"/>
      <point x="40" y="35" type="curve"/>
      <point x="40" y="0"/>
      <point x="40" y="35"/>
      <point x="40" y="0" type="curve"/>
      <point x="84" y="0"/>
      <point x="111" y="0"/>
      <point x="156" y="0" type="curve"/>
      <point x="156" y="35"/>
      <point x="156" y="0"/>
    </contour>
    <contour>
      <point x="176" y="0" type="curve"/>
      <point x="176" y="241"/>
      <point x="176" y="481"/>
      <point x="176" y="722" type="curve"/>
      <point x="135" y="722"/>
      <point x="176" y="722"/>
      <point x="135" y="722" type="curve"/>
      <point x="135" y="481"/>
      <point x="135" y="241"/>
      <point x="135" y="0" type="curve"/>
      <point x="176" y="0"/>
      <point x="135" y="0"/>
    </contour>
    <contour>
      <point x="175" y="818" type="line"/>
      <point x="256" y="984" type="line"/>
      <point x="204" y="984" type="line"/>
      <point x="135" y="818" type="line"/>
    </contour>
  </outline>
</glyph>
<glyph name="Icircumflex" format="1">
  <advance width="306"/>
  <unicode hex="00CE"/>
  <outline>
    <contour>
      <point x="154" y="722" type="curve"/>
      <point x="110" y="722"/>
      <point x="83" y="722"/>
      <point x="38" y="722" type="curve"/>
      <point x="38" y="687"/>
      <point x="38" y="722"/>
      <point x="38" y="687" type="curve"/>
      <point x="171" y="687"/>
      <point x="21" y="687"/>
      <point x="154" y="687" type="curve"/>
      <point x="154" y="722"/>
      <point x="154" y="687"/>
    </contour>
    <contour>
      <point x="154" y="687" type="curve"/>
      <point x="288" y="687"/>
      <point x="137" y="687"/>
      <point x="271" y="687" type="curve"/>
      <point x="271" y="722"/>
      <point x="271" y="687"/>
      <point x="271" y="722" type="curve"/>
      <point x="225" y="722"/>
      <point x="198" y="722"/>
      <point x="154" y="722" type="curve"/>
      <point x="154" y="687"/>
      <point x="154" y="722"/>
    </contour>
    <contour>
      <point x="154" y="0" type="curve"/>
      <point x="198" y="0"/>
      <point x="225" y="0"/>
      <point x="271" y="0" type="curve"/>
      <point x="271" y="35"/>
      <point x="271" y="0"/>
      <point x="271" y="35" type="curve"/>
      <point x="137" y="35"/>
      <point x="288" y="35"/>
      <point x="154" y="35" type="curve"/>
      <point x="154" y="0"/>
      <point x="154" y="35"/>
    </contour>
    <contour>
      <point x="154" y="35" type="curve"/>
      <point x="21" y="35"/>
      <point x="171" y="35"/>
      <point x="38" y="35" type="curve"/>
      <point x="38" y="0"/>
      <point x="38" y="35"/>
      <point x="38" y="0" type="curve"/>
      <point x="83" y="0"/>
      <point x="110" y="0"/>
      <point x="154" y="0" type="curve"/>
      <point x="154" y="35"/>
      <point x="154" y="0"/>
    </contour>
    <contour>
      <point x="175" y="0" type="curve"/>
      <point x="175" y="241"/>
      <point x="175" y="481"/>
      <point x="175" y="722" type="curve"/>
      <point x="133" y="722"/>
      <point x="175" y="722"/>
      <point x="133" y="722" type="curve"/>
      <point x="133" y="481"/>
      <point x="133" y="241"/>
      <point x="133" y="0" type="curve"/>
      <point x="175" y="0"/>
      <point x="133" y="0"/>
    </contour>
    <contour>
      <point x="92" y="818" type="line"/>
      <point x="172" y="984" type="line"/>
      <point x="120" y="984" type="line"/>
      <point x="52" y="818" type="line"/>
    </contour>
    <contour>
      <point x="258" y="818" type="line"/>
      <point x="189" y="984" type="line"/>
      <point x="137" y="984" type="line"/>
      <point x="217" y="818" type="line"/>
    </contour>
  </outline>
</glyph>
<glyph name="Idieresis" format="1">
  <advance width="311"/>
  <unicode hex="00CF"/>
  <outline>
    <contour>
      <point x="156" y="722" type="curve"/>
      <point x="112" y="722"/>
      <point x="84" y="722"/>
      <point x="40" y="722" type="curve"/>
      <point x="40" y="687"/>
      <point x="40" y="722"/>
      <point x="40" y="687" type="curve"/>
      <point x="173" y="687"/>
      <point x="23" y="687"/>
      <point x="156" y="687" type="curve"/>
      <point x="156" y="722"/>
      <point x="156" y="687"/>
    </contour>
    <contour>
      <point x="156" y="687" type="curve"/>
      <point x="289" y="687"/>
      <point x="139" y="687"/>
      <point x="272" y="687" type="curve"/>
      <point x="272" y="722"/>
      <point x="272" y="687"/>
      <point x="272" y="722" type="curve"/>
      <point x="227" y="722"/>
      <point x="200" y="722"/>
      <point x="156" y="722" type="curve"/>
      <point x="156" y="687"/>
      <point x="156" y="722"/>
    </contour>
    <contour>
      <point x="156" y="0" type="curve"/>
      <point x="200" y="0"/>
      <point x="227" y="0"/>
      <point x="272" y="0" type="curve"/>
      <point x="272" y="35"/>
      <point x="272" y="0"/>
      <point x="272" y="35" type="curve"/>
      <point x="139" y="35"/>
      <point x="289" y="35"/>
      <point x="156" y="35" type="curve"/>
      <point x="156" y="0"/>
      <point x="156" y="35"/>
    </contour>
    <contour>
      <point x="156" y="35" type="curve"/>
      <point x="23" y="35"/>
      <point x="173" y="35"/>
      <point x="40" y="35" type="curve"/>
      <point x="40" y="0"/>
      <point x="40" y="35"/>
      <point x="40" y="0" type="curve"/>
      <point x="84" y="0"/>
      <point x="112" y="0"/>
      <point x="156" y="0" type="curve"/>
      <point x="156" y="35"/>
      <point x="156" y="0"/>
    </contour>
    <contour>
      <point x="176" y="0" type="curve"/>
      <point x="176" y="241"/>
      <point x="176" y="481"/>
      <point x="176" y="722" type="curve"/>
      <point x="135" y="722"/>
      <point x="176" y="722"/>
      <point x="135" y="722" type="curve"/>
      <point x="135" y="481"/>
      <point x="135" y="241"/>
      <point x="135" y="0" type="curve"/>
      <point x="176" y="0"/>
      <point x="135" y="0"/>
    </contour>
    <contour>
      <point x="132" y="840" type="curve"/>
      <point x="132" y="856"/>
      <point x="121" y="865"/>
      <point x="105" y="865" type="curve"/>
      <point x="90" y="865"/>
      <point x="80" y="855"/>
      <point x="80" y="840" type="curve"/>
      <point x="132" y="840"/>
      <point x="80" y="840"/>
      <point x="132" y="840" type="curve"/>
      <point x="132" y="823"/>
      <point x="121" y="815"/>
      <point x="105" y="815" type="curve"/>
      <point x="90" y="815"/>
      <point x="80" y="824"/>
      <point x="80" y="840" type="curve"/>
      <point x="132" y="840"/>
      <point x="80" y="840"/>
    </contour>
    <contour>
      <point x="233" y="840" type="curve"/>
      <point x="233" y="856"/>
      <point x="222" y="865"/>
      <point x="206" y="865" type="curve"/>
      <point x="191" y="865"/>
      <point x="181" y="855"/>
      <point x="181" y="840" type="curve"/>
      <point x="233" y="840"/>
      <point x="181" y="840"/>
      <point x="233" y="840" type="curve"/>
      <point x="233" y="823"/>
      <point x="222" y="815"/>
      <point x="206" y="815" type="curve"/>
      <point x="190" y="815"/>
      <point x="181" y="824"/>
      <point x="181" y="840" type="curve"/>
      <point x="233" y="840"/>
      <point x="181" y="840"/>
    </contour>
  </outline>
</glyph>
<glyph name="Eth" format="1">
  <advance width="597"/>
  <unicode hex="00D0"/>
  <outline>
    <contour>
      <point x="160" y="35" type="curve"/>
      <point x="27" y="35"/>
      <point x="177" y="35"/>
      <point x="44" y="35" type="curve"/>
      <point x="44" y="0"/>
      <point x="44" y="35"/>
      <point x="44" y="0" type="curve"/>
      <point x="89" y="0"/>
      <point x="116" y="0"/>
      <point x="160" y="0" type="curve"/>
      <point x="160" y="35"/>
      <point x="160" y="0"/>
    </contour>
    <contour>
      <point x="160" y="722" type="curve"/>
      <point x="116" y="722"/>
      <point x="89" y="722"/>
      <point x="44" y="722" type="curve"/>
      <point x="44" y="687"/>
      <point x="44" y="722"/>
      <point x="44" y="687" type="curve"/>
      <point x="177" y="687"/>
      <point x="27" y="687"/>
      <point x="160" y="687" type="curve"/>
      <point x="160" y="722"/>
      <point x="160" y="687"/>
    </contour>
    <contour>
      <point x="138" y="722" type="curve"/>
      <point x="138" y="481"/>
      <point x="138" y="241"/>
      <point x="138" y="0" type="curve"/>
      <point x="180" y="0"/>
      <point x="138" y="0"/>
      <point x="180" y="0" type="curve"/>
      <point x="180" y="241"/>
      <point x="180" y="481"/>
      <point x="180" y="722" type="curve"/>
      <point x="138" y="722"/>
      <point x="180" y="722"/>
    </contour>
    <contour>
      <point x="160" y="0" type="curve"/>
      <point x="205" y="0"/>
      <point x="236" y="0"/>
      <point x="282" y="0" type="curve"/>
      <point x="468" y="0"/>
      <point x="536" y="150"/>
      <point x="536" y="356" type="curve"/>
      <point x="536" y="567"/>
      <point x="465" y="722"/>
      <point x="274" y="722" type="curve"/>
      <point x="232" y="722"/>
      <point x="202" y="722"/>
      <point x="160" y="722" type="curve"/>
      <point x="160" y="699"/>
      <point x="160" y="710"/>
      <point x="160" y="687" type="curve"/>
      <point x="202" y="687"/>
      <point x="231" y="687"/>
      <point x="272" y="687" type="curve"/>
      <point x="441" y="687"/>
      <point x="495" y="544"/>
      <point x="495" y="355" type="curve"/>
      <point x="495" y="174"/>
      <point x="446" y="35"/>
      <point x="286" y="35" type="curve"/>
      <point x="239" y="35"/>
      <point x="206" y="35"/>
      <point x="160" y="35" type="curve"/>
      <point x="160" y="12"/>
      <point x="160" y="23"/>
    </contour>
    <contour>
      <point x="68" y="388" type="curve"/>
      <point x="140" y="388"/>
      <point x="213" y="388"/>
      <point x="285" y="388" type="curve"/>
      <point x="285" y="426"/>
      <point x="285" y="388"/>
      <point x="285" y="426" type="curve"/>
      <point x="213" y="426"/>
      <point x="140" y="426"/>
      <point x="68" y="426" type="curve"/>
      <point x="68" y="388"/>
      <point x="68" y="426"/>
    </contour>
  </outline>
</glyph>
<glyph name="multiply" format="1">
  <advance width="530"/>
  <unicode hex="00D7"/>
  <outline>
    <contour>
      <point x="101" y="117" type="line"/>
      <point x="456" y="475" type="line"/>
      <point x="429" y="501" type="line"/>
      <point x="74" y="143" type="line"/>
    </contour>
    <contour>
      <point x="456" y="143" type="line"/>
      <point x="101" y="501" type="line"/>
      <point x="74" y="475" type="line"/>
      <point x="429" y="117" type="line"/>
    </contour>
  </outline>
</glyph>
<glyph name="Oslash" format="1">
  <advance width="579"/>
  <unicode hex="00D8"/>
  <outline>
    <contour>
      <point x="155" y="-67" type="line"/>
      <point x="458" y="768" type="line"/>
      <point x="425" y="779" type="line"/>
      <point x="122" y="-53" type="line"/>
    </contour>
    <contour>
      <point x="106" y="360" type="curve"/>
      <point x="106" y="536"/>
      <point x="135" y="691"/>
      <point x="288" y="691" type="curve"/>
      <point x="439" y="691"/>
      <point x="473" y="538"/>
      <point x="473" y="363" type="curve"/>
      <point x="473" y="189"/>
      <point x="443" y="32"/>
      <point x="291" y="32" type="curve"/>
      <point x="138" y="32"/>
      <point x="106" y="184"/>
      <point x="106" y="360" type="curve"/>
      <point x="64" y="360"/>
      <point x="106" y="360"/>
      <point x="64" y="360" type="curve"/>
      <point x="64" y="160"/>
      <point x="114" y="-5"/>
      <point x="289" y="-5" type="curve"/>
      <point x="465" y="-5"/>
      <point x="515" y="162"/>
      <point x="515" y="363" type="curve"/>
      <point x="515" y="561"/>
      <point x="465" y="727"/>
      <point x="290" y="727" type="curve"/>
      <point x="114" y="727"/>
      <point x="64" y="560"/>
      <point x="64" y="360" type="curve"/>
      <point x="106" y="360"/>
      <point x="64" y="360"/>
    </contour>
  </outline>
</glyph>
<glyph name="atilde" format="1">
  <advance width="445"/>
  <unicode hex="00E3"/>
  <outline>
    <contour>
      <point x="77" y="464" type="curve"/>
      <point x="77" y="345"/>
      <point x="77" y="472"/>
      <point x="77" y="353" type="curve"/>
      <point x="111" y="353"/>
      <point x="77" y="353"/>
      <point x="111" y="353" type="curve"/>
      <point x="111" y="472"/>
      <point x="111" y="345"/>
      <point x="111" y="464" type="curve"/>
      <point x="77" y="464"/>
      <point x="111" y="464"/>
    </contour>
    <contour>
      <point x="350" y="0" type="curve"/>
      <point x="350" y="129"/>
      <point x="350" y="258"/>
      <point x="350" y="387" type="curve"/>
      <point x="350" y="485"/>
      <point x="309" y="538"/>
      <point x="220" y="538" type="curve"/>
      <point x="152" y="538"/>
      <point x="107" y="502"/>
      <point x="77" y="464" type="curve"/>
      <point x="98" y="435"/>
      <point x="77" y="464"/>
      <point x="98" y="435" type="curve"/>
      <point x="120" y="463"/>
      <point x="160" y="502"/>
      <point x="214" y="502" type="curve"/>
      <point x="283" y="502"/>
      <point x="309" y="458"/>
      <point x="309" y="378" type="curve"/>
      <point x="309" y="252"/>
      <point x="309" y="126"/>
      <point x="309" y="0" type="curve"/>
      <point x="350" y="0"/>
      <point x="309" y="0"/>
    </contour>
    <contour>
      <point x="331" y="0" type="curve"/>
      <point x="369" y="0"/>
      <point x="401" y="0"/>
      <point x="440" y="0" type="curve"/>
      <point x="440" y="35"/>
      <point x="440" y="0"/>
      <point x="440" y="35" type="curve"/>
      <point x="323" y="35"/>
      <point x="447" y="35"/>
      <point x="331" y="35" type="curve"/>
      <point x="331" y="0"/>
      <point x="331" y="35"/>
    </contour>
    <contour>
      <point x="327" y="325" type="curve"/>
      <point x="272" y="315"/>
      <point x="245" y="310"/>
      <point x="189" y="299" type="curve"/>
      <point x="108" y="283"/>
      <point x="60" y="232"/>
      <point x="60" y="145" type="curve"/>
      <point x="60" y="56"/>
      <point x="91" y="-5"/>
      <point x="176" y="-5" type="curve"/>
      <point x="270" y="-5"/>
      <point x="307" y="73"/>
      <point x="343" y="151" type="curve"/>
      <point x="319" y="172"/>
      <point x="343" y="151"/>
      <point x="319" y="172" type="curve"/>
      <point x="295" y="101"/>
      <point x="257" y="30"/>
      <point x="185" y="30" type="curve"/>
      <point x="119" y="30"/>
      <point x="101" y="79"/>
      <point x="101" y="147" type="curve"/>
      <point x="101" y="212"/>
      <point x="133" y="256"/>
      <point x="188" y="268" type="curve"/>
      <point x="246" y="279"/>
      <point x="272" y="284"/>
      <point x="330" y="294" type="curve"/>
      <point x="327" y="325"/>
      <point x="330" y="294"/>
    </contour>
    <contour>
      <point x="332" y="796" type="curve"/>
      <point x="322" y="748"/>
      <point x="316" y="702"/>
      <point x="285" y="702" type="curve"/>
      <point x="256" y="702"/>
      <point x="243" y="722"/>
      <point x="227" y="747" type="curve"/>
      <point x="207" y="775"/>
      <point x="192" y="798"/>
      <point x="158" y="798" type="curve"/>
      <point x="99" y="798"/>
      <point x="87" y="740"/>
      <point x="76" y="677" type="curve"/>
      <point x="108" y="663"/>
      <point x="76" y="677"/>
      <point x="108" y="663" type="curve"/>
      <point x="118" y="714"/>
      <point x="124" y="758"/>
      <point x="162" y="758" type="curve"/>
      <point x="189" y="758"/>
      <point x="198" y="737"/>
      <point x="212" y="715" type="curve"/>
      <point x="234" y="684"/>
      <point x="252" y="662"/>
      <point x="288" y="662" type="curve"/>
      <point x="347" y="662"/>
      <point x="353" y="722"/>
      <point x="367" y="784" type="curve"/>
      <point x="332" y="796"/>
      <point x="367" y="784"/>
    </contour>
  </outline>
</glyph>
<glyph name="ae" format="1">
  <advance width="680"/>
  <unicode hex="00E6"/>
  <outline>
    <contour>
      <point x="75" y="464" type="curve"/>
      <point x="75" y="345"/>
      <point x="75" y="489"/>
      <point x="75" y="370" type="curve"/>
      <point x="110" y="370"/>
      <point x="75" y="370"/>
      <point x="110" y="370" type="curve"/>
      <point x="110" y="489"/>
      <point x="110" y="345"/>
      <point x="110" y="464" type="curve"/>
      <point x="75" y="464"/>
      <point x="110" y="464"/>
    </contour>
    <contour>
      <point x="348" y="280" type="curve"/>
      <point x="348" y="396"/>
      <point x="348" y="272"/>
      <point x="348" y="387" type="curve"/>
      <point x="348" y="485"/>
      <point x="308" y="537"/>
      <point x="218" y="537" type="curve"/>
      <point x="151" y="537"/>
      <point x="106" y="502"/>
      <point x="75" y="464" type="curve"/>
      <point x="94" y="434"/>
      <point x="75" y="464"/>
      <point x="94" y="434" type="curve"/>
      <point x="118" y="467"/>
      <point x="154" y="502"/>
      <point x="213" y="502" type="curve"/>
      <point x="282" y="502"/>
      <point x="308" y="457"/>
      <point x="308" y="376" type="curve"/>
      <point x="308" y="264"/>
      <point x="308" y="392"/>
      <point x="308" y="280" type="curve"/>
      <point x="348" y="280"/>
      <point x="307" y="280"/>
    </contour>
    <contour>
      <point x="331" y="300" type="curve"/>
      <point x="271" y="300"/>
      <point x="243" y="302"/>
      <point x="186" y="291" type="curve"/>
      <point x="105" y="275"/>
      <point x="59" y="231"/>
      <point x="59" y="145" type="curve"/>
      <point x="59" y="56"/>
      <point x="90" y="-5"/>
      <point x="175" y="-5" type="curve"/>
      <point x="269" y="-5"/>
      <point x="311" y="65"/>
      <point x="350" y="147" type="curve"/>
      <point x="329" y="166"/>
      <point x="344" y="147"/>
      <point x="323" y="166" type="curve"/>
      <point x="289" y="95"/>
      <point x="256" y="30"/>
      <point x="183" y="30" type="curve"/>
      <point x="117" y="30"/>
      <point x="100" y="78"/>
      <point x="100" y="146" type="curve"/>
      <point x="100" y="211"/>
      <point x="135" y="247"/>
      <point x="190" y="258" type="curve"/>
      <point x="247" y="269"/>
      <point x="275" y="266"/>
      <point x="332" y="266" type="curve"/>
      <point x="330" y="296"/>
      <point x="332" y="270"/>
    </contour>
    <contour>
      <point x="328" y="266" type="curve"/>
      <point x="420" y="266"/>
      <point x="513" y="266"/>
      <point x="605" y="266" type="curve"/>
      <point x="618" y="266"/>
      <point x="605" y="266"/>
      <point x="618" y="266" type="curve"/>
      <point x="618" y="276"/>
      <point x="618" y="266"/>
      <point x="618" y="276" type="curve"/>
      <point x="618" y="284"/>
      <point x="618" y="293"/>
      <point x="618" y="301" type="curve"/>
      <point x="618" y="436"/>
      <point x="585" y="538"/>
      <point x="468" y="538" type="curve"/>
      <point x="341" y="538"/>
      <point x="307" y="427"/>
      <point x="307" y="281" type="curve"/>
      <point x="307" y="120"/>
      <point x="343" y="-5"/>
      <point x="481" y="-5" type="curve"/>
      <point x="540" y="-5"/>
      <point x="578" y="25"/>
      <point x="615" y="76" type="curve"/>
      <point x="587" y="99"/>
      <point x="615" y="76"/>
      <point x="587" y="99" type="curve"/>
      <point x="559" y="59"/>
      <point x="526" y="31"/>
      <point x="481" y="31" type="curve"/>
      <point x="370" y="31"/>
      <point x="349" y="143"/>
      <point x="349" y="281" type="curve"/>
      <point x="349" y="402"/>
      <point x="367" y="502"/>
      <point x="465" y="502" type="curve"/>
      <point x="559" y="502"/>
      <point x="579" y="415"/>
      <point x="579" y="305" type="curve"/>
      <point x="579" y="295"/>
      <point x="579" y="286"/>
      <point x="579" y="276" type="curve"/>
      <point x="583" y="280"/>
      <point x="588" y="284"/>
      <point x="592" y="288" type="curve"/>
      <point x="596" y="293"/>
      <point x="601" y="295"/>
      <point x="605" y="300" type="curve"/>
      <point x="513" y="300"/>
      <point x="420" y="300"/>
      <point x="328" y="300" type="curve"/>
      <point x="328" y="265"/>
      <point x="328" y="301"/>
    </contour>
  </outline>
</glyph>
<glyph name="igrave" format="1">
  <advance width="268"/>
  <unicode hex="00EC"/>
  <outline>
    <contour>
      <point x="148" y="35" type="curve"/>
      <point x="25" y="35"/>
      <point x="156" y="35"/>
      <point x="32" y="35" type="curve"/>
      <point x="32" y="0"/>
      <point x="32" y="35"/>
      <point x="32" y="0" type="curve"/>
      <point x="73" y="0"/>
      <point x="107" y="0"/>
      <point x="148" y="0" type="curve"/>
      <point x="148" y="35"/>
      <point x="148" y="0"/>
    </contour>
    <contour>
      <point x="148" y="0" type="curve"/>
      <point x="186" y="0"/>
      <point x="218" y="0"/>
      <point x="257" y="0" type="curve"/>
      <point x="257" y="35"/>
      <point x="257" y="0"/>
      <point x="257" y="35" type="curve"/>
      <point x="140" y="35"/>
      <point x="264" y="35"/>
      <point x="148" y="35" type="curve"/>
      <point x="148" y="0"/>
      <point x="148" y="35"/>
    </contour>
    <contour>
      <point x="148" y="533" type="curve"/>
      <point x="107" y="533"/>
      <point x="73" y="533"/>
      <point x="32" y="533" type="curve"/>
      <point x="32" y="498"/>
      <point x="32" y="533"/>
      <point x="32" y="498" type="curve"/>
      <point x="156" y="498"/>
      <point x="25" y="498"/>
      <point x="148" y="498" type="curve"/>
      <point x="148" y="533"/>
      <point x="148" y="498"/>
    </contour>
    <contour>
      <point x="170" y="0" type="curve"/>
      <point x="170" y="178"/>
      <point x="170" y="355"/>
      <point x="170" y="533" type="curve"/>
      <point x="126" y="533"/>
      <point x="170" y="533"/>
      <point x="126" y="533" type="curve"/>
      <point x="126" y="355"/>
      <point x="126" y="178"/>
      <point x="126" y="0" type="curve"/>
      <point x="170" y="0"/>
      <point x="126" y="0"/>
    </contour>
    <contour>
      <point x="169" y="662" type="line"/>
      <point x="100" y="828" type="line"/>
      <point x="48" y="828" type="line"/>
      <point x="128" y="662" type="line"/>
    </contour>
  </outline>
</glyph>
<glyph name="icircumflex" format="1">
  <advance width="266"/>
  <unicode hex="00EE"/>
  <outline>
    <contour>
      <point x="149" y="35" type="curve"/>
      <point x="26" y="35"/>
      <point x="157" y="35"/>
      <point x="33" y="35" type="curve"/>
      <point x="33" y="0"/>
      <point x="33" y="35"/>
      <point x="33" y="0" type="curve"/>
      <point x="75" y="0"/>
      <point x="108" y="0"/>
      <point x="149" y="0" type="curve"/>
      <point x="149" y="35"/>
      <point x="149" y="0"/>
    </contour>
    <contour>
      <point x="149" y="0" type="curve"/>
      <point x="188" y="0"/>
      <point x="219" y="0"/>
      <point x="258" y="0" type="curve"/>
      <point x="258" y="35"/>
      <point x="258" y="0"/>
      <point x="258" y="35" type="curve"/>
      <point x="141" y="35"/>
      <point x="265" y="35"/>
      <point x="149" y="35" type="curve"/>
      <point x="149" y="0"/>
      <point x="149" y="35"/>
    </contour>
    <contour>
      <point x="149" y="533" type="curve"/>
      <point x="108" y="533"/>
      <point x="75" y="533"/>
      <point x="33" y="533" type="curve"/>
      <point x="33" y="498"/>
      <point x="33" y="533"/>
      <point x="33" y="498" type="curve"/>
      <point x="157" y="498"/>
      <point x="25" y="498"/>
      <point x="149" y="498" type="curve"/>
      <point x="149" y="533"/>
      <point x="149" y="498"/>
    </contour>
    <contour>
      <point x="171" y="0" type="curve"/>
      <point x="171" y="178"/>
      <point x="171" y="355"/>
      <point x="171" y="533" type="curve"/>
      <point x="127" y="533"/>
      <point x="171" y="533"/>
      <point x="127" y="533" type="curve"/>
      <point x="127" y="355"/>
      <point x="127" y="178"/>
      <point x="127" y="0" type="curve"/>
      <point x="171" y="0"/>
      <point x="127" y="0"/>
    </contour>
    <contour>
      <point x="85" y="662" type="line"/>
      <point x="165" y="828" type="line"/>
      <point x="113" y="828" type="line"/>
      <point x="44" y="662" type="line"/>
    </contour>
    <contour>
      <point x="250" y="662" type="line"/>
      <point x="182" y="828" type="line"/>
      <point x="130" y="828" type="line"/>
      <point x="210" y="662" type="line"/>
    </contour>
  </outline>
</glyph>
<glyph name="idieresis" format="1">
  <advance width="270"/>
  <unicode hex="00EF"/>
  <outline>
    <contour>
      <point x="149" y="35" type="curve"/>
      <point x="26" y="35"/>
      <point x="157" y="35"/>
      <point x="34" y="35" type="curve"/>
      <point x="33" y="0"/>
      <point x="34" y="35"/>
      <point x="33" y="0" type="curve"/>
      <point x="74" y="0"/>
      <point x="108" y="0"/>
      <point x="149" y="0" type="curve"/>
      <point x="149" y="35"/>
      <point x="149" y="0"/>
    </contour>
    <contour>
      <point x="149" y="0" type="curve"/>
      <point x="187" y="0"/>
      <point x="219" y="0"/>
      <point x="258" y="0" type="curve"/>
      <point x="258" y="35"/>
      <point x="258" y="0"/>
      <point x="258" y="35" type="curve"/>
      <point x="142" y="35"/>
      <point x="266" y="35"/>
      <point x="149" y="35" type="curve"/>
      <point x="149" y="0"/>
      <point x="149" y="35"/>
    </contour>
    <contour>
      <point x="149" y="533" type="curve"/>
      <point x="108" y="533"/>
      <point x="74" y="533"/>
      <point x="34" y="533" type="curve"/>
      <point x="33" y="498"/>
      <point x="34" y="533"/>
      <point x="33" y="498" type="curve"/>
      <point x="157" y="498"/>
      <point x="26" y="498"/>
      <point x="149" y="498" type="curve"/>
      <point x="149" y="533"/>
      <point x="149" y="498"/>
    </contour>
    <contour>
      <point x="171" y="0" type="curve"/>
      <point x="171" y="178"/>
      <point x="171" y="355"/>
      <point x="171" y="533" type="curve"/>
      <point x="127" y="533"/>
      <point x="171" y="533"/>
      <point x="127" y="533" type="curve"/>
      <point x="127" y="355"/>
      <point x="127" y="178"/>
      <point x="127" y="0" type="curve"/>
      <point x="171" y="0"/>
      <point x="127" y="0"/>
    </contour>
    <contour>
      <point x="123" y="684" type="curve"/>
      <point x="123" y="700"/>
      <point x="112" y="709"/>
      <point x="97" y="709" type="curve"/>
      <point x="81" y="709"/>
      <point x="71" y="699"/>
      <point x="71" y="684" type="curve"/>
      <point x="123" y="684"/>
      <point x="71" y="684"/>
      <point x="123" y="684" type="curve"/>
      <point x="123" y="667"/>
      <point x="112" y="659"/>
      <point x="97" y="659" type="curve"/>
      <point x="81" y="659"/>
      <point x="71" y="667"/>
      <point x="71" y="684" type="curve"/>
      <point x="123" y="684"/>
      <point x="71" y="684"/>
    </contour>
    <contour>
      <point x="224" y="684" type="curve"/>
      <point x="224" y="700"/>
      <point x="213" y="709"/>
      <point x="198" y="709" type="curve"/>
      <point x="182" y="709"/>
      <point x="172" y="699"/>
      <point x="172" y="684" type="curve"/>
      <point x="224" y="684"/>
      <point x="172" y="684"/>
      <point x="224" y="684" type="curve"/>
      <point x="224" y="667"/>
      <point x="213" y="659"/>
      <point x="198" y="659" type="curve"/>
      <point x="182" y="659"/>
      <point x="172" y="667"/>
      <point x="172" y="684" type="curve"/>
      <point x="224" y="684"/>
      <point x="172" y="684"/>
    </contour>
  </outline>
</glyph>
<glyph name="ocircumflex" format="1">
  <advance width="467"/>
  <unicode hex="00F4"/>
  <outline>
    <contour>
      <point x="100" y="268" type="curve"/>
      <point x="100" y="397"/>
      <point x="125" y="503"/>
      <point x="231" y="503" type="curve"/>
      <point x="341" y="503"/>
      <point x="365" y="396"/>
      <point x="365" y="266" type="curve"/>
      <point x="365" y="136"/>
      <point x="341" y="31"/>
      <point x="235" y="31" type="curve"/>
      <point x="120" y="31"/>
      <point x="100" y="138"/>
      <point x="100" y="268" type="curve"/>
      <point x="79" y="268"/>
      <point x="81" y="268"/>
      <point x="60" y="268" type="curve"/>
      <point x="60" y="115"/>
      <point x="98" y="-5"/>
      <point x="233" y="-5" type="curve"/>
      <point x="367" y="-5"/>
      <point x="406" y="113"/>
      <point x="406" y="266" type="curve"/>
      <point x="406" y="418"/>
      <point x="368" y="538"/>
      <point x="233" y="538" type="curve"/>
      <point x="99" y="538"/>
      <point x="60" y="418"/>
      <point x="60" y="268" type="curve"/>
      <point x="81" y="268"/>
      <point x="79" y="268"/>
    </contour>
    <contour>
      <point x="167" y="662" type="line"/>
      <point x="248" y="828" type="line"/>
      <point x="196" y="828" type="line"/>
      <point x="127" y="662" type="line"/>
    </contour>
    <contour>
      <point x="333" y="662" type="line"/>
      <point x="264" y="828" type="line"/>
      <point x="212" y="828" type="line"/>
      <point x="293" y="662" type="line"/>
    </contour>
  </outline>
</glyph>
<glyph name="ucircumflex" format="1">
  <advance width="503"/>
  <unicode hex="00FB"/>
  <outline>
    <contour>
      <point x="382" y="533" type="curve"/>
      <point x="342" y="533"/>
      <point x="308" y="533"/>
      <point x="267" y="533" type="curve"/>
      <point x="267" y="498"/>
      <point x="267" y="533"/>
      <point x="267" y="498" type="curve"/>
      <point x="390" y="498"/>
      <point x="259" y="498"/>
      <point x="382" y="498" type="curve"/>
      <point x="382" y="533"/>
      <point x="382" y="498"/>
    </contour>
    <contour>
      <point x="124" y="533" type="curve"/>
      <point x="83" y="533"/>
      <point x="49" y="533"/>
      <point x="8" y="533" type="curve"/>
      <point x="8" y="498"/>
      <point x="8" y="533"/>
      <point x="8" y="498" type="curve"/>
      <point x="132" y="498"/>
      <point x="0" y="498"/>
      <point x="124" y="498" type="curve"/>
      <point x="124" y="533"/>
      <point x="124" y="498"/>
    </contour>
    <contour>
      <point x="382" y="0" type="curve"/>
      <point x="421" y="0"/>
      <point x="452" y="0"/>
      <point x="491" y="0" type="curve"/>
      <point x="491" y="35"/>
      <point x="491" y="0"/>
      <point x="491" y="35" type="curve"/>
      <point x="375" y="35"/>
      <point x="499" y="35"/>
      <point x="382" y="35" type="curve"/>
      <point x="382" y="0"/>
      <point x="382" y="35"/>
    </contour>
    <contour>
      <point x="403" y="0" type="curve"/>
      <point x="403" y="178"/>
      <point x="403" y="355"/>
      <point x="403" y="533" type="curve"/>
      <point x="362" y="533"/>
      <point x="403" y="533"/>
      <point x="362" y="533" type="curve"/>
      <point x="362" y="355"/>
      <point x="362" y="178"/>
      <point x="362" y="0" type="curve"/>
      <point x="403" y="0"/>
      <point x="362" y="0"/>
    </contour>
    <contour>
      <point x="368" y="179" type="curve"/>
      <point x="350" y="108"/>
      <point x="305" y="31"/>
      <point x="248" y="31" type="curve"/>
      <point x="167" y="31"/>
      <point x="144" y="101"/>
      <point x="144" y="192" type="curve"/>
      <point x="144" y="305"/>
      <point x="144" y="419"/>
      <point x="144" y="533" type="curve"/>
      <point x="103" y="533"/>
      <point x="144" y="533"/>
      <point x="103" y="533" type="curve"/>
      <point x="103" y="418"/>
      <point x="103" y="304"/>
      <point x="103" y="189" type="curve"/>
      <point x="103" y="77"/>
      <point x="137" y="-5"/>
      <point x="245" y="-5" type="curve"/>
      <point x="322" y="-5"/>
      <point x="367" y="77"/>
      <point x="389" y="164" type="curve"/>
      <point x="368" y="180"/>
      <point x="389" y="164"/>
    </contour>
    <contour>
      <point x="175" y="662" type="line"/>
      <point x="255" y="828" type="line"/>
      <point x="203" y="828" type="line"/>
      <point x="134" y="662" type="line"/>
    </contour>
    <contour>
      <point x="340" y="662" type="line"/>
      <point x="272" y="828" type="line"/>
      <point x="220" y="828" type="line"/>
      <point x="300" y="662" type="line"/>
    </contour>
  </outline>
</glyph>
<glyph name="Aogonek" format="1">
  <advance width="608"/>
  <unicode hex="0104"/>
  <outline>
    <contour>
      <point x="94" y="35" type="curve"/>
      <point x="-39" y="35"/>
      <point x="113" y="35"/>
      <point x="-20" y="35" type="curve"/>
      <point x="-20" y="0"/>
      <point x="-20" y="35"/>
      <point x="-20" y="0" type="curve"/>
      <point x="24" y="0"/>
      <point x="50" y="0"/>
      <point x="94" y="0" type="curve"/>
      <point x="94" y="35"/>
      <point x="94" y="0"/>
    </contour>
    <contour>
      <point x="94" y="0" type="curve"/>
      <point x="142" y="0"/>
      <point x="77" y="0"/>
      <point x="219" y="0" type="curve"/>
      <point x="219" y="35"/>
      <point x="219" y="0"/>
      <point x="219" y="35" type="curve"/>
      <point x="77" y="35"/>
      <point x="236" y="35"/>
      <point x="94" y="35" type="curve"/>
      <point x="94" y="0"/>
      <point x="94" y="35"/>
    </contour>
    <contour>
      <point x="481" y="0" type="curve"/>
      <point x="525" y="0"/>
      <point x="551" y="0"/>
      <point x="595" y="0" type="curve"/>
      <point x="595" y="35"/>
      <point x="595" y="0"/>
      <point x="595" y="35" type="curve"/>
      <point x="463" y="35"/>
      <point x="614" y="35"/>
      <point x="481" y="35" type="curve"/>
      <point x="481" y="0"/>
      <point x="481" y="35"/>
    </contour>
    <contour>
      <point x="481" y="35" type="curve"/>
      <point x="339" y="35"/>
      <point x="498" y="35"/>
      <point x="356" y="35" type="curve"/>
      <point x="356" y="0"/>
      <point x="356" y="35"/>
      <point x="356" y="0" type="curve"/>
      <point x="403" y="0"/>
      <point x="434" y="0"/>
      <point x="481" y="0" type="curve"/>
      <point x="481" y="35"/>
      <point x="481" y="0"/>
    </contour>
    <contour>
      <point x="413" y="279" type="curve"/>
      <point x="333" y="279"/>
      <point x="254" y="279"/>
      <point x="174" y="279" type="curve"/>
      <point x="157" y="243"/>
      <point x="174" y="279"/>
      <point x="157" y="243" type="curve"/>
      <point x="247" y="243"/>
      <point x="336" y="243"/>
      <point x="426" y="243" type="curve"/>
      <point x="413" y="279"/>
      <point x="426" y="243"/>
    </contour>
    <contour>
      <point x="510" y="0" type="curve"/>
      <point x="447" y="241"/>
      <point x="382" y="481"/>
      <point x="318" y="722" type="curve"/>
      <point x="280" y="722"/>
      <point x="318" y="722"/>
      <point x="280" y="722" type="curve"/>
      <point x="343" y="481"/>
      <point x="405" y="241"/>
      <point x="467" y="0" type="curve"/>
      <point x="510" y="0"/>
      <point x="467" y="0"/>
    </contour>
    <contour>
      <point x="109" y="0" type="curve"/>
      <point x="178" y="241"/>
      <point x="246" y="481"/>
      <point x="316" y="722" type="curve"/>
      <point x="279" y="722"/>
      <point x="316" y="722"/>
      <point x="279" y="722" type="curve"/>
      <point x="208" y="481"/>
      <point x="134" y="241"/>
      <point x="63" y="0" type="curve"/>
      <point x="109" y="0"/>
      <point x="63" y="0"/>
    </contour>
    <contour>
      <point x="495" y="25" type="curve"/>
      <point x="445" y="-2"/>
      <point x="411" y="-37"/>
      <point x="411" y="-92" type="curve"/>
      <point x="411" y="-147"/>
      <point x="437" y="-192"/>
      <point x="488" y="-192" type="curve"/>
      <point x="515" y="-192"/>
      <point x="533" y="-177"/>
      <point x="553" y="-160" type="curve"/>
      <point x="539" y="-143"/>
      <point x="545" y="-153"/>
      <point x="531" y="-136" type="curve"/>
      <point x="519" y="-147"/>
      <point x="507" y="-157"/>
      <point x="491" y="-157" type="curve"/>
      <point x="460" y="-157"/>
      <point x="447" y="-127"/>
      <point x="447" y="-92" type="curve"/>
      <point x="447" y="-49"/>
      <point x="473" y="-21"/>
      <point x="511" y="1" type="curve"/>
      <point x="501" y="16"/>
      <point x="506" y="9"/>
    </contour>
  </outline>
</glyph>
<glyph name="Ccaron" format="1">
  <advance width="530"/>
  <unicode hex="010C"/>
  <outline>
    <contour>
      <point x="435" y="655" type="curve"/>
      <point x="435" y="535"/>
      <point x="435" y="655"/>
      <point x="435" y="535" type="curve"/>
      <point x="470" y="535"/>
      <point x="435" y="535"/>
      <point x="470" y="535" type="curve"/>
      <point x="470" y="655"/>
      <point x="470" y="535"/>
      <point x="470" y="655" type="curve"/>
      <point x="435" y="655"/>
      <point x="470" y="655"/>
    </contour>
    <contour>
      <point x="470" y="655" type="curve"/>
      <point x="424" y="694"/>
      <point x="370" y="727"/>
      <point x="303" y="727" type="curve"/>
      <point x="117" y="727"/>
      <point x="64" y="560"/>
      <point x="64" y="344" type="curve"/>
      <point x="64" y="147"/>
      <point x="115" y="-5"/>
      <point x="288" y="-5" type="curve"/>
      <point x="376" y="-5"/>
      <point x="429" y="33"/>
      <point x="484" y="96" type="curve"/>
      <point x="458" y="123"/>
      <point x="483" y="96"/>
      <point x="457" y="123" type="curve"/>
      <point x="410" y="69"/>
      <point x="365" y="34"/>
      <point x="290" y="34" type="curve"/>
      <point x="141" y="34"/>
      <point x="105" y="172"/>
      <point x="105" y="346" type="curve"/>
      <point x="105" y="535"/>
      <point x="143" y="690"/>
      <point x="302" y="690" type="curve"/>
      <point x="360" y="690"/>
      <point x="408" y="662"/>
      <point x="448" y="627" type="curve"/>
      <point x="470" y="655"/>
      <point x="448" y="627"/>
    </contour>
    <contour>
      <point x="364" y="985" type="line"/>
      <point x="283" y="819" type="line"/>
      <point x="335" y="819" type="line"/>
      <point x="404" y="985" type="line"/>
    </contour>
    <contour>
      <point x="198" y="985" type="line"/>
      <point x="267" y="819" type="line"/>
      <point x="319" y="819" type="line"/>
      <point x="238" y="985" type="line"/>
    </contour>
  </outline>
</glyph>
<glyph name="ccaron" format="1">
  <advance width="411"/>
  <unicode hex="010D"/>
  <outline>
    <contour>
      <point x="326" y="472" type="curve"/>
      <point x="326" y="352"/>
      <point x="326" y="481"/>
      <point x="326" y="361" type="curve"/>
      <point x="361" y="361"/>
      <point x="326" y="361"/>
      <point x="361" y="361" type="curve"/>
      <point x="361" y="481"/>
      <point x="361" y="352"/>
      <point x="361" y="472" type="curve"/>
      <point x="326" y="472"/>
      <point x="361" y="472"/>
    </contour>
    <contour>
      <point x="361" y="472" type="curve"/>
      <point x="330" y="507"/>
      <point x="287" y="538"/>
      <point x="239" y="538" type="curve"/>
      <point x="102" y="538"/>
      <point x="60" y="424"/>
      <point x="60" y="267" type="curve"/>
      <point x="60" y="110"/>
      <point x="100" y="-5"/>
      <point x="237" y="-5" type="curve"/>
      <point x="293" y="-5"/>
      <point x="341" y="33"/>
      <point x="369" y="89" type="curve"/>
      <point x="340" y="108"/>
      <point x="369" y="89"/>
      <point x="340" y="108" type="curve"/>
      <point x="320" y="73"/>
      <point x="284" y="31"/>
      <point x="239" y="31" type="curve"/>
      <point x="127" y="31"/>
      <point x="101" y="135"/>
      <point x="101" y="267" type="curve"/>
      <point x="101" y="399"/>
      <point x="130" y="502"/>
      <point x="238" y="502" type="curve"/>
      <point x="276" y="502"/>
      <point x="311" y="476"/>
      <point x="336" y="448" type="curve"/>
      <point x="361" y="472"/>
      <point x="336" y="448"/>
    </contour>
    <contour>
      <point x="296" y="829" type="line"/>
      <point x="215" y="663" type="line"/>
      <point x="267" y="663" type="line"/>
      <point x="336" y="829" type="line"/>
    </contour>
    <contour>
      <point x="130" y="829" type="line"/>
      <point x="199" y="663" type="line"/>
      <point x="251" y="663" type="line"/>
      <point x="170" y="829" type="line"/>
    </contour>
  </outline>
</glyph>
<glyph name="Imacron" format="1">
  <advance width="311"/>
  <unicode hex="012A"/>
  <outline>
    <contour>
      <point x="156" y="722" type="curve"/>
      <point x="111" y="722"/>
      <point x="84" y="722"/>
      <point x="40" y="722" type="curve"/>
      <point x="40" y="687"/>
      <point x="40" y="722"/>
      <point x="40" y="687" type="curve"/>
      <point x="173" y="687"/>
      <point x="23" y="687"/>
      <point x="156" y="687" type="curve"/>
      <point x="156" y="722"/>
      <point x="156" y="687"/>
    </contour>
    <contour>
      <point x="156" y="687" type="curve"/>
      <point x="289" y="687"/>
      <point x="139" y="687"/>
      <point x="272" y="687" type="curve"/>
      <point x="272" y="722"/>
      <point x="272" y="687"/>
      <point x="272" y="722" type="curve"/>
      <point x="227" y="722"/>
      <point x="200" y="722"/>
      <point x="156" y="722" type="curve"/>
      <point x="156" y="687"/>
      <point x="156" y="722"/>
    </contour>
    <contour>
      <point x="156" y="0" type="curve"/>
      <point x="200" y="0"/>
      <point x="227" y="0"/>
      <point x="272" y="0" type="curve"/>
      <point x="272" y="35"/>
      <point x="272" y="0"/>
      <point x="272" y="35" type="curve"/>
      <point x="139" y="35"/>
      <point x="289" y="35"/>
      <point x="156" y="35" type="curve"/>
      <point x="156" y="0"/>
      <point x="156" y="35"/>
    </contour>
    <contour>
      <point x="156" y="35" type="curve"/>
      <point x="23" y="35"/>
      <point x="173" y="35"/>
      <point x="40" y="35" type="curve"/>
      <point x="40" y="0"/>
      <point x="40" y="35"/>
      <point x="40" y="0" type="curve"/>
      <point x="84" y="0"/>
      <point x="111" y="0"/>
      <point x="156" y="0" type="curve"/>
      <point x="156" y="35"/>
      <point x="156" y="0"/>
    </contour>
    <contour>
      <point x="176" y="0" type="curve"/>
      <point x="176" y="241"/>
      <point x="176" y="481"/>
      <point x="176" y="722" type="curve"/>
      <point x="135" y="722"/>
      <point x="176" y="722"/>
      <point x="135" y="722" type="curve"/>
      <point x="135" y="481"/>
      <point x="135" y="241"/>
      <point x="135" y="0" type="curve"/>
      <point x="176" y="0"/>
      <point x="135" y="0"/>
    </contour>
    <contour>
      <point x="235" y="852" type="curve"/>
      <point x="182" y="852"/>
      <point x="129" y="852"/>
      <point x="76" y="852" type="curve"/>
      <point x="76" y="818"/>
      <point x="76" y="852"/>
      <point x="76" y="818" type="curve"/>
      <point x="129" y="818"/>
      <point x="182" y="818"/>
      <point x="235" y="818" type="curve"/>
      <point x="235" y="852"/>
      <point x="235" y="818"/>
    </contour>
  </outline>
</glyph>
<glyph name="Kcommaaccent" format="1">
  <advance width="552"/>
  <unicode hex="0136"/>
  <outline>
    <contour>
      <point x="420" y="722" type="curve"/>
      <point x="375" y="722"/>
      <point x="364" y="722"/>
      <point x="320" y="722" type="curve"/>
      <point x="320" y="687"/>
      <point x="320" y="722"/>
      <point x="320" y="687" type="curve"/>
      <point x="453" y="687"/>
      <point x="287" y="687"/>
      <point x="420" y="687" type="curve"/>
      <point x="420" y="722"/>
      <point x="420" y="687"/>
    </contour>
    <contour>
      <point x="433" y="0" type="curve"/>
      <point x="480" y="0"/>
      <point x="493" y="0"/>
      <point x="540" y="0" type="curve"/>
      <point x="540" y="35"/>
      <point x="540" y="0"/>
      <point x="540" y="35" type="curve"/>
      <point x="399" y="35"/>
      <point x="574" y="35"/>
      <point x="433" y="35" type="curve"/>
      <point x="433" y="0"/>
      <point x="433" y="35"/>
    </contour>
    <contour>
      <point x="415" y="687" type="curve"/>
      <point x="548" y="687"/>
      <point x="390" y="687"/>
      <point x="522" y="687" type="curve"/>
      <point x="522" y="722"/>
      <point x="522" y="687"/>
      <point x="522" y="722" type="curve"/>
      <point x="478" y="722"/>
      <point x="460" y="722"/>
      <point x="415" y="722" type="curve"/>
      <point x="415" y="687"/>
      <point x="415" y="722"/>
    </contour>
    <contour>
      <point x="155" y="722" type="curve"/>
      <point x="111" y="722"/>
      <point x="84" y="722"/>
      <point x="40" y="722" type="curve"/>
      <point x="40" y="687"/>
      <point x="40" y="722"/>
      <point x="40" y="687" type="curve"/>
      <point x="172" y="687"/>
      <point x="23" y="687"/>
      <point x="155" y="687" type="curve"/>
      <point x="155" y="722"/>
      <point x="155" y="687"/>
    </contour>
    <contour>
      <point x="155" y="687" type="curve"/>
      <point x="288" y="687"/>
      <point x="124" y="687"/>
      <point x="257" y="687" type="curve"/>
      <point x="257" y="722"/>
      <point x="257" y="687"/>
      <point x="257" y="722" type="curve"/>
      <point x="212" y="722"/>
      <point x="199" y="722"/>
      <point x="155" y="722" type="curve"/>
      <point x="155" y="687"/>
      <point x="155" y="722"/>
    </contour>
    <contour>
      <point x="155" y="0" type="curve"/>
      <point x="200" y="0"/>
      <point x="124" y="0"/>
      <point x="259" y="0" type="curve"/>
      <point x="259" y="35"/>
      <point x="259" y="0"/>
      <point x="259" y="35" type="curve"/>
      <point x="124" y="35"/>
      <point x="290" y="35"/>
      <point x="155" y="35" type="curve"/>
      <point x="155" y="0"/>
      <point x="155" y="35"/>
    </contour>
    <contour>
      <point x="155" y="35" type="curve"/>
      <point x="23" y="35"/>
      <point x="172" y="35"/>
      <point x="40" y="35" type="curve"/>
      <point x="40" y="0"/>
      <point x="40" y="35"/>
      <point x="40" y="0" type="curve"/>
      <point x="84" y="0"/>
      <point x="111" y="0"/>
      <point x="155" y="0" type="curve"/>
      <point x="155" y="35"/>
      <point x="155" y="0"/>
    </contour>
    <contour>
      <point x="410" y="722" type="curve"/>
      <point x="161" y="380" type="line"/>
      <point x="212" y="380"/>
      <point x="157" y="380"/>
      <point x="209" y="380" type="curve"/>
      <point x="454" y="713" type="line"/>
      <point x="406" y="713"/>
      <point x="459" y="722"/>
    </contour>
    <contour>
      <point x="176" y="0" type="curve"/>
      <point x="176" y="722" type="line"/>
      <point x="134" y="722"/>
      <point x="176" y="722"/>
      <point x="134" y="722" type="curve"/>
      <point x="134" y="481"/>
      <point x="134" y="241"/>
      <point x="134" y="0" type="curve"/>
      <point x="176" y="0"/>
      <point x="134" y="0"/>
    </contour>
    <contour>
      <point x="474" y="8" type="curve"/>
      <point x="209" y="380" type="line"/>
      <point x="157" y="380"/>
      <point x="212" y="380"/>
      <point x="161" y="380" type="curve"/>
      <point x="426" y="0" type="line"/>
      <point x="478" y="0"/>
      <point x="422" y="8"/>
    </contour>
    <contour>
      <point x="263" y="-237" type="line"/>
      <point x="298" y="-217"/>
      <point x="323" y="-184"/>
      <point x="323" y="-128" type="curve"/>
      <point x="323" y="-98"/>
      <point x="316" y="-77"/>
      <point x="293" y="-77" type="curve"/>
      <point x="276" y="-77"/>
      <point x="266" y="-85"/>
      <point x="266" y="-102" type="curve"/>
      <point x="266" y="-117"/>
      <point x="272" y="-126"/>
      <point x="287" y="-130" type="curve"/>
      <point x="287" y="-152"/>
      <point x="278" y="-190"/>
      <point x="249" y="-212" type="curve"/>
    </contour>
  </outline>
</glyph>
<glyph name="Lcommaaccent" format="1">
  <advance width="490"/>
  <unicode hex="013B"/>
  <outline>
    <contour>
      <point x="454" y="17" type="curve"/>
      <point x="454" y="137"/>
      <point x="454" y="9"/>
      <point x="454" y="129" type="curve"/>
      <point x="418" y="129"/>
      <point x="454" y="129"/>
      <point x="418" y="129" type="curve"/>
      <point x="418" y="9"/>
      <point x="418" y="137"/>
      <point x="418" y="17" type="curve"/>
      <point x="454" y="17"/>
      <point x="418" y="17"/>
    </contour>
    <contour>
      <point x="155" y="35" type="curve"/>
      <point x="22" y="35"/>
      <point x="172" y="35"/>
      <point x="39" y="35" type="curve"/>
      <point x="39" y="0"/>
      <point x="39" y="35"/>
      <point x="39" y="0" type="curve"/>
      <point x="83" y="0"/>
      <point x="110" y="0"/>
      <point x="155" y="0" type="curve"/>
      <point x="155" y="35"/>
      <point x="155" y="0"/>
    </contour>
    <contour>
      <point x="155" y="722" type="curve"/>
      <point x="110" y="722"/>
      <point x="83" y="722"/>
      <point x="39" y="722" type="curve"/>
      <point x="39" y="687"/>
      <point x="39" y="722"/>
      <point x="39" y="687" type="curve"/>
      <point x="172" y="687"/>
      <point x="22" y="687"/>
      <point x="155" y="687" type="curve"/>
      <point x="155" y="722"/>
      <point x="155" y="687"/>
    </contour>
    <contour>
      <point x="155" y="687" type="curve"/>
      <point x="287" y="687"/>
      <point x="138" y="687"/>
      <point x="270" y="687" type="curve"/>
      <point x="270" y="722"/>
      <point x="270" y="687"/>
      <point x="270" y="722" type="curve"/>
      <point x="226" y="722"/>
      <point x="199" y="722"/>
      <point x="155" y="722" type="curve"/>
      <point x="155" y="687"/>
      <point x="155" y="722"/>
    </contour>
    <contour>
      <point x="176" y="0" type="curve"/>
      <point x="176" y="241"/>
      <point x="176" y="481"/>
      <point x="176" y="722" type="curve"/>
      <point x="135" y="722"/>
      <point x="176" y="722"/>
      <point x="135" y="722" type="curve"/>
      <point x="135" y="481"/>
      <point x="135" y="241"/>
      <point x="135" y="0" type="curve"/>
      <point x="176" y="0"/>
      <point x="135" y="0"/>
    </contour>
    <contour>
      <point x="155" y="0" type="curve"/>
      <point x="255" y="0"/>
      <point x="354" y="0"/>
      <point x="454" y="0" type="curve"/>
      <point x="454" y="35"/>
      <point x="454" y="0"/>
      <point x="454" y="35" type="curve"/>
      <point x="354" y="35"/>
      <point x="255" y="35"/>
      <point x="155" y="35" type="curve"/>
      <point x="155" y="0"/>
      <point x="155" y="35"/>
    </contour>
    <contour>
      <point x="242" y="-236" type="line"/>
      <point x="277" y="-215"/>
      <point x="302" y="-182"/>
      <point x="302" y="-126" type="curve"/>
      <point x="302" y="-96"/>
      <point x="295" y="-75"/>
      <point x="273" y="-75" type="curve"/>
      <point x="255" y="-75"/>
      <point x="245" y="-84"/>
      <point x="245" y="-101" type="curve"/>
      <point x="245" y="-115"/>
      <point x="251" y="-125"/>
      <point x="267" y="-129" type="curve"/>
      <point x="267" y="-151"/>
      <point x="258" y="-189"/>
      <point x="229" y="-210" type="curve"/>
    </contour>
  </outline>
</glyph>
<glyph name="lcommaaccent" format="1">
  <advance width="267"/>
  <unicode hex="013C"/>
  <outline>
    <contour>
      <point x="134" y="35" type="curve"/>
      <point x="10" y="35"/>
      <point x="134" y="35"/>
      <point x="10" y="35" type="curve"/>
      <point x="10" y="0"/>
      <point x="10" y="35"/>
      <point x="10" y="0" type="curve"/>
      <point x="51" y="0"/>
      <point x="92" y="0"/>
      <point x="134" y="0" type="curve"/>
      <point x="134" y="35"/>
      <point x="134" y="0"/>
    </contour>
    <contour>
      <point x="135" y="800" type="curve"/>
      <point x="93" y="800"/>
      <point x="52" y="800"/>
      <point x="11" y="800" type="curve"/>
      <point x="11" y="765"/>
      <point x="11" y="800"/>
      <point x="11" y="765" type="curve"/>
      <point x="135" y="765"/>
      <point x="11" y="765"/>
      <point x="135" y="765" type="curve"/>
      <point x="135" y="800"/>
      <point x="135" y="765"/>
    </contour>
    <contour>
      <point x="134" y="0" type="curve"/>
      <point x="176" y="0"/>
      <point x="216" y="0"/>
      <point x="258" y="0" type="curve"/>
      <point x="258" y="35"/>
      <point x="258" y="0"/>
      <point x="258" y="35" type="curve"/>
      <point x="134" y="35"/>
      <point x="258" y="35"/>
      <point x="134" y="35" type="curve"/>
      <point x="134" y="0"/>
      <point x="134" y="35"/>
    </contour>
    <contour>
      <point x="154" y="0" type="curve"/>
      <point x="154" y="267"/>
      <point x="154" y="533"/>
      <point x="154" y="800" type="curve"/>
      <point x="112" y="800"/>
      <point x="154" y="800"/>
      <point x="112" y="800" type="curve"/>
      <point x="112" y="533"/>
      <point x="112" y="267"/>
      <point x="112" y="0" type="curve"/>
      <point x="154" y="0"/>
      <point x="112" y="0"/>
    </contour>
    <contour>
      <point x="91" y="-237" type="line"/>
      <point x="125" y="-217"/>
      <point x="151" y="-183"/>
      <point x="151" y="-128" type="curve"/>
      <point x="151" y="-98"/>
      <point x="144" y="-76"/>
      <point x="121" y="-76" type="curve"/>
      <point x="104" y="-76"/>
      <point x="94" y="-85"/>
      <point x="94" y="-102" type="curve"/>
      <point x="94" y="-116"/>
      <point x="100" y="-126"/>
      <point x="115" y="-130" type="curve"/>
      <point x="115" y="-152"/>
      <point x="106" y="-190"/>
      <point x="77" y="-211" type="curve"/>
    </contour>
  </outline>
</glyph>
<glyph name="Ncaron" format="1">
  <advance width="677"/>
  <unicode hex="0147"/>
  <outline>
    <contour>
      <point x="156" y="722" type="curve"/>
      <point x="112" y="722"/>
      <point x="85" y="722"/>
      <point x="41" y="722" type="curve"/>
      <point x="41" y="687"/>
      <point x="41" y="722"/>
      <point x="41" y="687" type="curve"/>
      <point x="173" y="687"/>
      <point x="24" y="687"/>
      <point x="156" y="687" type="curve"/>
      <point x="156" y="722"/>
      <point x="156" y="687"/>
    </contour>
    <contour>
      <point x="538" y="687" type="curve"/>
      <point x="670" y="687"/>
      <point x="521" y="687"/>
      <point x="653" y="687" type="curve"/>
      <point x="653" y="722"/>
      <point x="653" y="687"/>
      <point x="653" y="722" type="curve"/>
      <point x="609" y="722"/>
      <point x="582" y="722"/>
      <point x="538" y="722" type="curve"/>
      <point x="538" y="687"/>
      <point x="538" y="722"/>
    </contour>
    <contour>
      <point x="538" y="722" type="curve"/>
      <point x="494" y="722"/>
      <point x="467" y="722"/>
      <point x="424" y="722" type="curve"/>
      <point x="424" y="687"/>
      <point x="424" y="722"/>
      <point x="424" y="687" type="curve"/>
      <point x="555" y="687"/>
      <point x="406" y="687"/>
      <point x="538" y="687" type="curve"/>
      <point x="538" y="722"/>
      <point x="538" y="687"/>
    </contour>
    <contour>
      <point x="155" y="35" type="curve"/>
      <point x="23" y="35"/>
      <point x="172" y="35"/>
      <point x="40" y="35" type="curve"/>
      <point x="40" y="0"/>
      <point x="40" y="35"/>
      <point x="40" y="0" type="curve"/>
      <point x="84" y="0"/>
      <point x="111" y="0"/>
      <point x="155" y="0" type="curve"/>
      <point x="155" y="35"/>
      <point x="155" y="0"/>
    </contour>
    <contour>
      <point x="155" y="0" type="curve"/>
      <point x="198" y="0"/>
      <point x="138" y="0"/>
      <point x="269" y="0" type="curve"/>
      <point x="269" y="35"/>
      <point x="269" y="0"/>
      <point x="269" y="35" type="curve"/>
      <point x="138" y="35"/>
      <point x="286" y="35"/>
      <point x="155" y="35" type="curve"/>
      <point x="155" y="0"/>
      <point x="155" y="35"/>
    </contour>
    <contour>
      <point x="558" y="0" type="curve"/>
      <point x="431" y="241"/>
      <point x="305" y="481"/>
      <point x="179" y="722" type="curve"/>
      <point x="132" y="722"/>
      <point x="180" y="722"/>
      <point x="133" y="722" type="curve"/>
      <point x="259" y="481"/>
      <point x="386" y="241"/>
      <point x="512" y="0" type="curve"/>
      <point x="558" y="0"/>
      <point x="511" y="0"/>
    </contour>
    <contour>
      <point x="516" y="722" type="curve"/>
      <point x="516" y="481"/>
      <point x="516" y="241"/>
      <point x="516" y="0" type="curve"/>
      <point x="557" y="0"/>
      <point x="516" y="0"/>
      <point x="557" y="0" type="curve"/>
      <point x="557" y="241"/>
      <point x="557" y="481"/>
      <point x="557" y="722" type="curve"/>
      <point x="516" y="722"/>
      <point x="557" y="722"/>
    </contour>
    <contour>
      <point x="176" y="0" type="curve"/>
      <point x="176" y="241"/>
      <point x="176" y="481"/>
      <point x="176" y="722" type="curve"/>
      <point x="134" y="722"/>
      <point x="176" y="722"/>
      <point x="134" y="722" type="curve"/>
      <point x="134" y="481"/>
      <point x="134" y="241"/>
      <point x="134" y="0" type="curve"/>
      <point x="176" y="0"/>
      <point x="134" y="0"/>
    </contour>
    <contour>
      <point x="416" y="985" type="line"/>
      <point x="335" y="819" type="line"/>
      <point x="387" y="819" type="line"/>
      <point x="456" y="985" type="line"/>
    </contour>
    <contour>
      <point x="250" y="985" type="line"/>
      <point x="319" y="819" type="line"/>
      <point x="371" y="819" type="line"/>
      <point x="290" y="985" type="line"/>
    </contour>
  </outline>
</glyph>
<glyph name="Omacron" format="1">
  <advance width="579"/>
  <unicode hex="014C"/>
  <outline>
    <contour>
      <point x="106" y="360" type="curve"/>
      <point x="106" y="536"/>
      <point x="135" y="691"/>
      <point x="288" y="691" type="curve"/>
      <point x="439" y="691"/>
      <point x="473" y="538"/>
      <point x="473" y="363" type="curve"/>
      <point x="473" y="189"/>
      <point x="443" y="32"/>
      <point x="291" y="32" type="curve"/>
      <point x="138" y="32"/>
      <point x="106" y="184"/>
      <point x="106" y="360" type="curve"/>
      <point x="64" y="360"/>
      <point x="106" y="360"/>
      <point x="64" y="360" type="curve"/>
      <point x="64" y="160"/>
      <point x="114" y="-5"/>
      <point x="289" y="-5" type="curve"/>
      <point x="465" y="-5"/>
      <point x="515" y="162"/>
      <point x="515" y="363" type="curve"/>
      <point x="515" y="561"/>
      <point x="465" y="727"/>
      <point x="290" y="727" type="curve"/>
      <point x="114" y="727"/>
      <point x="64" y="560"/>
      <point x="64" y="360" type="curve"/>
      <point x="106" y="360"/>
      <point x="64" y="360"/>
    </contour>
    <contour>
      <point x="367" y="852" type="curve"/>
      <point x="314" y="852"/>
      <point x="261" y="852"/>
      <point x="208" y="852" type="curve"/>
      <point x="208" y="818"/>
      <point x="208" y="852"/>
      <point x="208" y="818" type="curve"/>
      <point x="261" y="818"/>
      <point x="314" y="818"/>
      <point x="367" y="818" type="curve"/>
      <point x="367" y="852"/>
      <point x="367" y="818"/>
    </contour>
  </outline>
</glyph>
<glyph name="omacron" format="1">
  <advance width="467"/>
  <unicode hex="014D"/>
  <outline>
    <contour>
      <point x="100" y="268" type="curve"/>
      <point x="100" y="397"/>
      <point x="125" y="503"/>
      <point x="231" y="503" type="curve"/>
      <point x="341" y="503"/>
      <point x="365" y="396"/>
      <point x="365" y="266" type="curve"/>
      <point x="365" y="136"/>
      <point x="341" y="31"/>
      <point x="235" y="31" type="curve"/>
      <point x="120" y="31"/>
      <point x="100" y="138"/>
      <point x="100" y="268" type="curve"/>
      <point x="79" y="268"/>
      <point x="81" y="268"/>
      <point x="60" y="268" type="curve"/>
      <point x="60" y="115"/>
      <point x="98" y="-5"/>
      <point x="233" y="-5" type="curve"/>
      <point x="367" y="-5"/>
      <point x="406" y="113"/>
      <point x="406" y="266" type="curve"/>
      <point x="406" y="418"/>
      <point x="368" y="538"/>
      <point x="233" y="538" type="curve"/>
      <point x="99" y="538"/>
      <point x="60" y="418"/>
      <point x="60" y="268" type="curve"/>
      <point x="81" y="268"/>
      <point x="79" y="268"/>
    </contour>
    <contour>
      <point x="309" y="696" type="curve"/>
      <point x="256" y="696"/>
      <point x="202" y="696"/>
      <point x="150" y="696" type="curve"/>
      <point x="150" y="662"/>
      <point x="150" y="696"/>
      <point x="150" y="662" type="curve"/>
      <point x="202" y="662"/>
      <point x="256" y="662"/>
      <point x="309" y="662" type="curve"/>
      <point x="309" y="696"/>
      <point x="309" y="662"/>
    </contour>
  </outline>
</glyph>
<glyph name="Ohungarumlaut" format="1">
  <advance width="579"/>
  <unicode hex="0150"/>
  <outline>
    <contour>
      <point x="106" y="360" type="curve"/>
      <point x="106" y="536"/>
      <point x="135" y="691"/>
      <point x="288" y="691" type="curve"/>
      <point x="439" y="691"/>
      <point x="473" y="538"/>
      <point x="473" y="363" type="curve"/>
      <point x="473" y="189"/>
      <point x="443" y="32"/>
      <point x="291" y="32" type="curve"/>
      <point x="138" y="32"/>
      <point x="106" y="184"/>
      <point x="106" y="360" type="curve"/>
      <point x="64" y="360"/>
      <point x="106" y="360"/>
      <point x="64" y="360" type="curve"/>
      <point x="64" y="160"/>
      <point x="114" y="-5"/>
      <point x="289" y="-5" type="curve"/>
      <point x="465" y="-5"/>
      <point x="515" y="162"/>
      <point x="515" y="363" type="curve"/>
      <point x="515" y="561"/>
      <point x="465" y="727"/>
      <point x="290" y="727" type="curve"/>
      <point x="114" y="727"/>
      <point x="64" y="560"/>
      <point x="64" y="360" type="curve"/>
      <point x="106" y="360"/>
      <point x="64" y="360"/>
    </contour>
    <contour>
      <point x="237" y="841" type="line"/>
      <point x="318" y="1007" type="line"/>
      <point x="266" y="1007" type="line"/>
      <point x="197" y="841" type="line"/>
    </contour>
    <contour>
      <point x="353" y="841" type="line"/>
      <point x="433" y="1007" type="line"/>
      <point x="381" y="1007" type="line"/>
      <point x="312" y="841" type="line"/>
    </contour>
  </outline>
</glyph>
<glyph name="ohungarumlaut" format="1">
  <advance width="467"/>
  <unicode hex="0151"/>
  <outline>
    <contour>
      <point x="100" y="268" type="curve"/>
      <point x="100" y="397"/>
      <point x="125" y="503"/>
      <point x="231" y="503" type="curve"/>
      <point x="341" y="503"/>
      <point x="365" y="396"/>
      <point x="365" y="266" type="curve"/>
      <point x="365" y="136"/>
      <point x="341" y="31"/>
      <point x="235" y="31" type="curve"/>
      <point x="120" y="31"/>
      <point x="100" y="138"/>
      <point x="100" y="268" type="curve"/>
      <point x="79" y="268"/>
      <point x="81" y="268"/>
      <point x="60" y="268" type="curve"/>
      <point x="60" y="115"/>
      <point x="98" y="-5"/>
      <point x="233" y="-5" type="curve"/>
      <point x="367" y="-5"/>
      <point x="406" y="113"/>
      <point x="406" y="266" type="curve"/>
      <point x="406" y="418"/>
      <point x="368" y="538"/>
      <point x="233" y="538" type="curve"/>
      <point x="99" y="538"/>
      <point x="60" y="418"/>
      <point x="60" y="268" type="curve"/>
      <point x="81" y="268"/>
      <point x="79" y="268"/>
    </contour>
    <contour>
      <point x="179" y="685" type="line"/>
      <point x="259" y="851" type="line"/>
      <point x="207" y="851" type="line"/>
      <point x="139" y="685" type="line"/>
    </contour>
    <contour>
      <point x="294" y="685" type="line"/>
      <point x="375" y="851" type="line"/>
      <point x="323" y="851" type="line"/>
      <point x="254" y="685" type="line"/>
    </contour>
  </outline>
</glyph>
<glyph name="Rcaron" format="1">
  <advance width="605"/>
  <unicode hex="0158"/>
  <outline>
    <contour>
      <point x="476" y="0" type="curve"/>
      <point x="518" y="0"/>
      <point x="543" y="0"/>
      <point x="586" y="0" type="curve"/>
      <point x="586" y="35"/>
      <point x="586" y="0"/>
      <point x="586" y="35" type="curve"/>
      <point x="459" y="35"/>
      <point x="603" y="35"/>
      <point x="476" y="35" type="curve"/>
      <point x="476" y="0"/>
      <point x="476" y="35"/>
    </contour>
    <contour>
      <point x="158" y="722" type="curve"/>
      <point x="113" y="722"/>
      <point x="86" y="722"/>
      <point x="42" y="722" type="curve"/>
      <point x="42" y="687"/>
      <point x="42" y="722"/>
      <point x="42" y="687" type="curve"/>
      <point x="175" y="687"/>
      <point x="25" y="687"/>
      <point x="158" y="687" type="curve"/>
      <point x="158" y="722"/>
      <point x="158" y="687"/>
    </contour>
    <contour>
      <point x="158" y="35" type="curve"/>
      <point x="25" y="35"/>
      <point x="175" y="35"/>
      <point x="42" y="35" type="curve"/>
      <point x="42" y="0"/>
      <point x="42" y="35"/>
      <point x="42" y="0" type="curve"/>
      <point x="86" y="0"/>
      <point x="113" y="0"/>
      <point x="158" y="0" type="curve"/>
      <point x="158" y="35"/>
      <point x="158" y="0"/>
    </contour>
    <contour>
      <point x="158" y="0" type="curve"/>
      <point x="202" y="0"/>
      <point x="141" y="0"/>
      <point x="273" y="0" type="curve"/>
      <point x="273" y="35"/>
      <point x="273" y="0"/>
      <point x="273" y="35" type="curve"/>
      <point x="141" y="35"/>
      <point x="291" y="35"/>
      <point x="158" y="35" type="curve"/>
      <point x="158" y="0"/>
      <point x="158" y="35"/>
    </contour>
    <contour>
      <point x="282" y="354" type="curve"/>
      <point x="342" y="236"/>
      <point x="403" y="118"/>
      <point x="462" y="0" type="curve"/>
      <point x="509" y="0"/>
      <point x="461" y="0"/>
      <point x="507" y="0" type="curve"/>
      <point x="447" y="118"/>
      <point x="387" y="236"/>
      <point x="326" y="354" type="curve"/>
      <point x="280" y="354"/>
      <point x="328" y="354"/>
    </contour>
    <contour>
      <point x="179" y="0" type="curve"/>
      <point x="179" y="241"/>
      <point x="179" y="481"/>
      <point x="179" y="722" type="curve"/>
      <point x="138" y="722"/>
      <point x="179" y="722"/>
      <point x="138" y="722" type="curve"/>
      <point x="138" y="481"/>
      <point x="138" y="241"/>
      <point x="138" y="0" type="curve"/>
      <point x="179" y="0"/>
      <point x="138" y="0"/>
    </contour>
    <contour>
      <point x="161" y="334" type="curve"/>
      <point x="201" y="334"/>
      <point x="241" y="334"/>
      <point x="282" y="334" type="curve"/>
      <point x="393" y="334"/>
      <point x="448" y="414"/>
      <point x="448" y="534" type="curve"/>
      <point x="448" y="650"/>
      <point x="391" y="722"/>
      <point x="280" y="722" type="curve"/>
      <point x="237" y="722"/>
      <point x="203" y="722"/>
      <point x="161" y="722" type="curve"/>
      <point x="161" y="687"/>
      <point x="161" y="722"/>
      <point x="161" y="687" type="curve"/>
      <point x="201" y="687"/>
      <point x="232" y="687"/>
      <point x="273" y="687" type="curve"/>
      <point x="363" y="687"/>
      <point x="406" y="626"/>
      <point x="406" y="531" type="curve"/>
      <point x="406" y="436"/>
      <point x="370" y="369"/>
      <point x="284" y="369" type="curve"/>
      <point x="243" y="369"/>
      <point x="201" y="369"/>
      <point x="161" y="369" type="curve"/>
      <point x="161" y="334"/>
      <point x="161" y="369"/>
    </contour>
    <contour>
      <point x="313" y="985" type="line"/>
      <point x="233" y="819" type="line"/>
      <point x="285" y="819" type="line"/>
      <point x="354" y="985" type="line"/>
    </contour>
    <contour>
      <point x="148" y="985" type="line"/>
      <point x="216" y="819" type="line"/>
      <point x="268" y="819" type="line"/>
      <point x="188" y="985" type="line"/>
    </contour>
  </outline>
</glyph>
<glyph name="rcaron" format="1">
  <advance width="355"/>
  <unicode hex="0159"/>
  <outline>
    <contour>
      <point x="149" y="0" type="curve"/>
      <point x="189" y="0"/>
      <point x="220" y="0"/>
      <point x="258" y="0" type="curve"/>
      <point x="258" y="35"/>
      <point x="258" y="0"/>
      <point x="258" y="35" type="curve"/>
      <point x="141" y="35"/>
      <point x="265" y="35"/>
      <point x="149" y="35" type="curve"/>
      <point x="149" y="0"/>
      <point x="149" y="35"/>
    </contour>
    <contour>
      <point x="149" y="35" type="curve"/>
      <point x="26" y="35"/>
      <point x="157" y="35"/>
      <point x="33" y="35" type="curve"/>
      <point x="33" y="0"/>
      <point x="33" y="35"/>
      <point x="33" y="0" type="curve"/>
      <point x="75" y="0"/>
      <point x="108" y="0"/>
      <point x="149" y="0" type="curve"/>
      <point x="149" y="35"/>
      <point x="149" y="0"/>
    </contour>
    <contour>
      <point x="149" y="533" type="curve"/>
      <point x="108" y="533"/>
      <point x="75" y="533"/>
      <point x="33" y="533" type="curve"/>
      <point x="33" y="498"/>
      <point x="33" y="533"/>
      <point x="33" y="498" type="curve"/>
      <point x="157" y="498"/>
      <point x="26" y="498"/>
      <point x="149" y="498" type="curve"/>
      <point x="149" y="533"/>
      <point x="149" y="498"/>
    </contour>
    <contour>
      <point x="170" y="0" type="curve"/>
      <point x="170" y="178"/>
      <point x="170" y="355"/>
      <point x="170" y="533" type="curve"/>
      <point x="128" y="533"/>
      <point x="170" y="533"/>
      <point x="128" y="533" type="curve"/>
      <point x="128" y="355"/>
      <point x="128" y="178"/>
      <point x="128" y="0" type="curve"/>
      <point x="170" y="0"/>
      <point x="128" y="0"/>
    </contour>
    <contour>
      <point x="160" y="358" type="curve"/>
      <point x="179" y="448"/>
      <point x="249" y="502"/>
      <point x="326" y="502" type="curve"/>
      <point x="326" y="542"/>
      <point x="326" y="498"/>
      <point x="326" y="538" type="curve"/>
      <point x="239" y="538"/>
      <point x="166" y="478"/>
      <point x="142" y="386" type="curve"/>
      <point x="161" y="367"/>
      <point x="147" y="375"/>
    </contour>
    <contour>
      <point x="215" y="828" type="line"/>
      <point x="135" y="662" type="line"/>
      <point x="187" y="662" type="line"/>
      <point x="256" y="828" type="line"/>
    </contour>
    <contour>
      <point x="50" y="828" type="line"/>
      <point x="118" y="662" type="line"/>
      <point x="170" y="662" type="line"/>
      <point x="90" y="828" type="line"/>
    </contour>
  </outline>
</glyph>
<glyph name="sacute" format="1">
  <advance width="393"/>
  <unicode hex="015B"/>
  <outline>
    <contour>
      <point x="60" y="49" type="curve"/>
      <point x="104" y="17"/>
      <point x="150" y="-5"/>
      <point x="203" y="-5" type="curve"/>
      <point x="289" y="-5"/>
      <point x="333" y="52"/>
      <point x="333" y="136" type="curve"/>
      <point x="332" y="221"/>
      <point x="281" y="261"/>
      <point x="204" y="295" type="curve" smooth="yes"/>
      <point x="148" y="319"/>
      <point x="119" y="354"/>
      <point x="119" y="416" type="curve"/>
      <point x="119" y="464"/>
      <point x="144" y="502"/>
      <point x="193" y="502" type="curve"/>
      <point x="230" y="502"/>
      <point x="260" y="486"/>
      <point x="287" y="461" type="curve"/>
      <point x="300" y="482"/>
      <point x="293" y="472"/>
      <point x="306" y="492" type="curve"/>
      <point x="274" y="520"/>
      <point x="238" y="538"/>
      <point x="194" y="538" type="curve"/>
      <point x="122" y="538"/>
      <point x="81" y="487"/>
      <point x="81" y="416" type="curve"/>
      <point x="81" y="338"/>
      <point x="119" y="292"/>
      <point x="191" y="261" type="curve" smooth="yes"/>
      <point x="251" y="234"/>
      <point x="293" y="203"/>
      <point x="292" y="134" type="curve"/>
      <point x="292" y="76"/>
      <point x="262" y="31"/>
      <point x="207" y="31" type="curve"/>
      <point x="160" y="31"/>
      <point x="120" y="51"/>
      <point x="81" y="79" type="curve"/>
      <point x="60" y="49"/>
      <point x="81" y="79"/>
    </contour>
    <contour>
      <point x="271" y="492" type="curve"/>
      <point x="271" y="370"/>
      <point x="271" y="501"/>
      <point x="271" y="379" type="curve"/>
      <point x="306" y="379"/>
      <point x="271" y="379"/>
      <point x="306" y="379" type="curve"/>
      <point x="306" y="501"/>
      <point x="306" y="370"/>
      <point x="306" y="492" type="curve"/>
      <point x="283" y="492"/>
      <point x="294" y="492"/>
    </contour>
    <contour>
      <point x="95" y="49" type="curve"/>
      <point x="95" y="171"/>
      <point x="95" y="40"/>
      <point x="95" y="163" type="curve"/>
      <point x="60" y="163"/>
      <point x="95" y="163"/>
      <point x="60" y="163" type="curve"/>
      <point x="60" y="40"/>
      <point x="60" y="171"/>
      <point x="60" y="49" type="curve"/>
      <point x="95" y="49"/>
      <point x="60" y="49"/>
    </contour>
    <contour>
      <point x="218" y="662" type="line"/>
      <point x="298" y="828" type="line"/>
      <point x="246" y="828" type="line"/>
      <point x="178" y="662" type="line"/>
    </contour>
  </outline>
</glyph>
<glyph name="Tcommaaccent" format="1">
  <advance width="527"/>
  <unicode hex="0162"/>
  <outline>
    <contour>
      <point x="44" y="704" type="curve"/>
      <point x="44" y="584"/>
      <point x="44" y="713"/>
      <point x="44" y="593" type="curve"/>
      <point x="79" y="593"/>
      <point x="44" y="593"/>
      <point x="79" y="593" type="curve"/>
      <point x="79" y="713"/>
      <point x="79" y="584"/>
      <point x="79" y="704" type="curve"/>
      <point x="44" y="704"/>
      <point x="79" y="704"/>
    </contour>
    <contour>
      <point x="447" y="704" type="curve"/>
      <point x="447" y="584"/>
      <point x="447" y="713"/>
      <point x="447" y="593" type="curve"/>
      <point x="483" y="593"/>
      <point x="447" y="593"/>
      <point x="483" y="593" type="curve"/>
      <point x="483" y="713"/>
      <point x="483" y="584"/>
      <point x="483" y="704" type="curve"/>
      <point x="447" y="704"/>
      <point x="483" y="704"/>
    </contour>
    <contour>
      <point x="263" y="0" type="curve"/>
      <point x="305" y="0"/>
      <point x="338" y="0"/>
      <point x="379" y="0" type="curve"/>
      <point x="379" y="35"/>
      <point x="379" y="0"/>
      <point x="379" y="35" type="curve"/>
      <point x="255" y="35"/>
      <point x="387" y="35"/>
      <point x="263" y="35" type="curve"/>
      <point x="263" y="0"/>
      <point x="263" y="35"/>
    </contour>
    <contour>
      <point x="263" y="35" type="curve"/>
      <point x="139" y="35"/>
      <point x="271" y="35"/>
      <point x="147" y="35" type="curve"/>
      <point x="147" y="0"/>
      <point x="147" y="35"/>
      <point x="147" y="0" type="curve"/>
      <point x="188" y="0"/>
      <point x="222" y="0"/>
      <point x="263" y="0" type="curve"/>
      <point x="263" y="35"/>
      <point x="263" y="0"/>
    </contour>
    <contour>
      <point x="284" y="0" type="curve"/>
      <point x="284" y="237"/>
      <point x="284" y="473"/>
      <point x="284" y="710" type="curve"/>
      <point x="243" y="710"/>
      <point x="284" y="710"/>
      <point x="243" y="710" type="curve"/>
      <point x="242" y="473"/>
      <point x="243" y="237"/>
      <point x="243" y="0" type="curve"/>
      <point x="284" y="0"/>
      <point x="243" y="0"/>
    </contour>
    <contour>
      <point x="44" y="684" type="curve"/>
      <point x="190" y="684"/>
      <point x="337" y="684"/>
      <point x="483" y="684" type="curve"/>
      <point x="483" y="723"/>
      <point x="483" y="684"/>
      <point x="483" y="722" type="curve"/>
      <point x="337" y="722"/>
      <point x="190" y="722"/>
      <point x="44" y="722" type="curve"/>
      <point x="44" y="684"/>
      <point x="44" y="723"/>
    </contour>
    <contour>
      <point x="222" y="-237" type="line"/>
      <point x="257" y="-217"/>
      <point x="283" y="-184"/>
      <point x="283" y="-128" type="curve"/>
      <point x="283" y="-98"/>
      <point x="275" y="-76"/>
      <point x="253" y="-76" type="curve"/>
      <point x="235" y="-76"/>
      <point x="225" y="-85"/>
      <point x="225" y="-102" type="curve"/>
      <point x="225" y="-116"/>
      <point x="232" y="-126"/>
      <point x="247" y="-130" type="curve"/>
      <point x="247" y="-152"/>
      <point x="238" y="-190"/>
      <point x="209" y="-211" type="curve"/>
    </contour>
  </outline>
</glyph>
<glyph name="tcommaaccent" format="1">
  <advance width="316"/>
  <unicode hex="0163"/>
  <outline>
    <contour>
      <point x="19" y="498" type="curve"/>
      <point x="296" y="498" type="line"/>
      <point x="296" y="533"/>
      <point x="296" y="498"/>
      <point x="296" y="533" type="curve"/>
      <point x="19" y="533" type="line"/>
      <point x="19" y="498"/>
      <point x="19" y="533"/>
    </contour>
    <contour>
      <point x="273" y="58" type="curve"/>
      <point x="253" y="42"/>
      <point x="237" y="32"/>
      <point x="212" y="32" type="curve"/>
      <point x="159" y="32"/>
      <point x="149" y="82"/>
      <point x="149" y="149" type="curve"/>
      <point x="149" y="681" type="line"/>
      <point x="128" y="668"/>
      <point x="128" y="660"/>
      <point x="107" y="647" type="curve"/>
      <point x="107" y="147" type="line"/>
      <point x="107" y="57"/>
      <point x="129" y="-5"/>
      <point x="207" y="-5" type="curve"/>
      <point x="241" y="-5"/>
      <point x="264" y="5"/>
      <point x="292" y="25" type="curve"/>
      <point x="273" y="58"/>
      <point x="292" y="25"/>
    </contour>
    <contour>
      <point x="162" y="-236" type="line"/>
      <point x="197" y="-216"/>
      <point x="222" y="-183"/>
      <point x="222" y="-127" type="curve"/>
      <point x="222" y="-97"/>
      <point x="215" y="-76"/>
      <point x="192" y="-76" type="curve"/>
      <point x="175" y="-76"/>
      <point x="165" y="-84"/>
      <point x="165" y="-101" type="curve"/>
      <point x="165" y="-116"/>
      <point x="171" y="-125"/>
      <point x="186" y="-129" type="curve"/>
      <point x="186" y="-151"/>
      <point x="177" y="-189"/>
      <point x="148" y="-210" type="curve"/>
    </contour>
  </outline>
</glyph>
<glyph name="Tcaron" format="1">
  <advance width="527"/>
  <unicode hex="0164"/>
  <outline>
    <contour>
      <point x="44" y="704" type="curve"/>
      <point x="44" y="584"/>
      <point x="44" y="713"/>
      <point x="44" y="593" type="curve"/>
      <point x="79" y="593"/>
      <point x="44" y="593"/>
      <point x="79" y="593" type="curve"/>
      <point x="79" y="713"/>
      <point x="79" y="584"/>
      <point x="79" y="704" type="curve"/>
      <point x="44" y="704"/>
      <point x="79" y="704"/>
    </contour>
    <contour>
      <point x="447" y="704" type="curve"/>
      <point x="447" y="584"/>
      <point x="447" y="713"/>
      <point x="447" y="593" type="curve"/>
      <point x="483" y="593"/>
      <point x="447" y="593"/>
      <point x="483" y="593" type="curve"/>
      <point x="483" y="713"/>
      <point x="483" y="584"/>
      <point x="483" y="704" type="curve"/>
      <point x="447" y="704"/>
      <point x="483" y="704"/>
    </contour>
    <contour>
      <point x="263" y="0" type="curve"/>
      <point x="305" y="0"/>
      <point x="338" y="0"/>
      <point x="379" y="0" type="curve"/>
      <point x="379" y="35"/>
      <point x="379" y="0"/>
      <point x="379" y="35" type="curve"/>
      <point x="255" y="35"/>
      <point x="387" y="35"/>
      <point x="263" y="35" type="curve"/>
      <point x="263" y="0"/>
      <point x="263" y="35"/>
    </contour>
    <contour>
      <point x="263" y="35" type="curve"/>
      <point x="139" y="35"/>
      <point x="271" y="35"/>
      <point x="147" y="35" type="curve"/>
      <point x="147" y="0"/>
      <point x="147" y="35"/>
      <point x="147" y="0" type="curve"/>
      <point x="188" y="0"/>
      <point x="222" y="0"/>
      <point x="263" y="0" type="curve"/>
      <point x="263" y="35"/>
      <point x="263" y="0"/>
    </contour>
    <contour>
      <point x="284" y="0" type="curve"/>
      <point x="284" y="237"/>
      <point x="284" y="473"/>
      <point x="284" y="710" type="curve"/>
      <point x="243" y="710"/>
      <point x="284" y="710"/>
      <point x="243" y="710" type="curve"/>
      <point x="242" y="473"/>
      <point x="243" y="237"/>
      <point x="243" y="0" type="curve"/>
      <point x="284" y="0"/>
      <point x="243" y="0"/>
    </contour>
    <contour>
      <point x="44" y="684" type="curve"/>
      <point x="190" y="684"/>
      <point x="337" y="684"/>
      <point x="483" y="684" type="curve"/>
      <point x="483" y="723"/>
      <point x="483" y="684"/>
      <point x="483" y="722" type="curve"/>
      <point x="337" y="722"/>
      <point x="190" y="722"/>
      <point x="44" y="722" type="curve"/>
      <point x="44" y="684"/>
      <point x="44" y="723"/>
    </contour>
    <contour>
      <point x="326" y="985" type="line"/>
      <point x="246" y="819" type="line"/>
      <point x="298" y="819" type="line"/>
      <point x="367" y="985" type="line"/>
    </contour>
    <contour>
      <point x="161" y="985" type="line"/>
      <point x="229" y="819" type="line"/>
      <point x="281" y="819" type="line"/>
      <point x="201" y="985" type="line"/>
    </contour>
  </outline>
</glyph>
<glyph name="tcaron" format="1">
  <advance width="332"/>
  <unicode hex="0165"/>
  <outline>
    <contour>
      <point x="19" y="498" type="curve"/>
      <point x="296" y="498" type="line"/>
      <point x="296" y="533"/>
      <point x="296" y="498"/>
      <point x="296" y="533" type="curve"/>
      <point x="19" y="533" type="line"/>
      <point x="19" y="498"/>
      <point x="19" y="533"/>
    </contour>
    <contour>
      <point x="273" y="58" type="curve"/>
      <point x="253" y="42"/>
      <point x="237" y="32"/>
      <point x="212" y="32" type="curve"/>
      <point x="159" y="32"/>
      <point x="149" y="82"/>
      <point x="149" y="149" type="curve"/>
      <point x="149" y="681" type="line"/>
      <point x="128" y="668"/>
      <point x="128" y="660"/>
      <point x="107" y="647" type="curve"/>
      <point x="107" y="147" type="line"/>
      <point x="107" y="57"/>
      <point x="129" y="-5"/>
      <point x="207" y="-5" type="curve"/>
      <point x="241" y="-5"/>
      <point x="264" y="5"/>
      <point x="292" y="25" type="curve"/>
      <point x="273" y="58"/>
      <point x="292" y="25"/>
    </contour>
    <contour>
      <point x="285" y="663" type="line"/>
      <point x="320" y="683"/>
      <point x="346" y="716"/>
      <point x="346" y="772" type="curve"/>
      <point x="346" y="802"/>
      <point x="338" y="823"/>
      <point x="316" y="823" type="curve"/>
      <point x="298" y="823"/>
      <point x="288" y="815"/>
      <point x="288" y="798" type="curve"/>
      <point x="288" y="783"/>
      <point x="295" y="774"/>
      <point x="310" y="770" type="curve"/>
      <point x="310" y="748"/>
      <point x="301" y="710"/>
      <point x="272" y="688" type="curve"/>
    </contour>
  </outline>
</glyph>
<glyph name="uhungarumlaut" format="1">
  <advance width="503"/>
  <unicode hex="0171"/>
  <outline>
    <contour>
      <point x="382" y="533" type="curve"/>
      <point x="342" y="533"/>
      <point x="308" y="533"/>
      <point x="267" y="533" type="curve"/>
      <point x="267" y="498"/>
      <point x="267" y="533"/>
      <point x="267" y="498" type="curve"/>
      <point x="390" y="498"/>
      <point x="259" y="498"/>
      <point x="382" y="498" type="curve"/>
      <point x="382" y="533"/>
      <point x="382" y="498"/>
    </contour>
    <contour>
      <point x="124" y="533" type="curve"/>
      <point x="83" y="533"/>
      <point x="49" y="533"/>
      <point x="8" y="533" type="curve"/>
      <point x="8" y="498"/>
      <point x="8" y="533"/>
      <point x="8" y="498" type="curve"/>
      <point x="132" y="498"/>
      <point x="0" y="498"/>
      <point x="124" y="498" type="curve"/>
      <point x="124" y="533"/>
      <point x="124" y="498"/>
    </contour>
    <contour>
      <point x="382" y="0" type="curve"/>
      <point x="421" y="0"/>
      <point x="452" y="0"/>
      <point x="491" y="0" type="curve"/>
      <point x="491" y="35"/>
      <point x="491" y="0"/>
      <point x="491" y="35" type="curve"/>
      <point x="375" y="35"/>
      <point x="499" y="35"/>
      <point x="382" y="35" type="curve"/>
      <point x="382" y="0"/>
      <point x="382" y="35"/>
    </contour>
    <contour>
      <point x="403" y="0" type="curve"/>
      <point x="403" y="178"/>
      <point x="403" y="355"/>
      <point x="403" y="533" type="curve"/>
      <point x="362" y="533"/>
      <point x="403" y="533"/>
      <point x="362" y="533" type="curve"/>
      <point x="362" y="355"/>
      <point x="362" y="178"/>
      <point x="362" y="0" type="curve"/>
      <point x="403" y="0"/>
      <point x="362" y="0"/>
    </contour>
    <contour>
      <point x="368" y="179" type="curve"/>
      <point x="350" y="108"/>
      <point x="305" y="31"/>
      <point x="248" y="31" type="curve"/>
      <point x="167" y="31"/>
      <point x="144" y="101"/>
      <point x="144" y="192" type="curve"/>
      <point x="144" y="305"/>
      <point x="144" y="419"/>
      <point x="144" y="533" type="curve"/>
      <point x="103" y="533"/>
      <point x="144" y="533"/>
      <point x="103" y="533" type="curve"/>
      <point x="103" y="418"/>
      <point x="103" y="304"/>
      <point x="103" y="189" type="curve"/>
      <point x="103" y="77"/>
      <point x="137" y="-5"/>
      <point x="245" y="-5" type="curve"/>
      <point x="322" y="-5"/>
      <point x="367" y="77"/>
      <point x="389" y="164" type="curve"/>
      <point x="368" y="180"/>
      <point x="389" y="164"/>
    </contour>
    <contour>
      <point x="186" y="685" type="line"/>
      <point x="267" y="851" type="line"/>
      <point x="215" y="851" type="line"/>
      <point x="146" y="685" type="line"/>
    </contour>
    <contour>
      <point x="301" y="685" type="line"/>
      <point x="382" y="851" type="line"/>
      <point x="330" y="851" type="line"/>
      <point x="261" y="685" type="line"/>
    </contour>
  </outline>
</glyph>
<glyph name="uogonek" format="1">
  <advance width="504"/>
  <unicode hex="0173"/>
  <outline>
    <contour>
      <point x="382" y="533" type="curve"/>
      <point x="342" y="533"/>
      <point x="308" y="533"/>
      <point x="267" y="533" type="curve"/>
      <point x="267" y="498"/>
      <point x="267" y="533"/>
      <point x="267" y="498" type="curve"/>
      <point x="390" y="498"/>
      <point x="259" y="498"/>
      <point x="382" y="498" type="curve"/>
      <point x="382" y="533"/>
      <point x="382" y="498"/>
    </contour>
    <contour>
      <point x="124" y="533" type="curve"/>
      <point x="83" y="533"/>
      <point x="49" y="533"/>
      <point x="8" y="533" type="curve"/>
      <point x="8" y="498"/>
      <point x="8" y="533"/>
      <point x="8" y="498" type="curve"/>
      <point x="132" y="498"/>
      <point x="0" y="498"/>
      <point x="124" y="498" type="curve"/>
      <point x="124" y="533"/>
      <point x="124" y="498"/>
    </contour>
    <contour>
      <point x="382" y="0" type="curve"/>
      <point x="421" y="0"/>
      <point x="452" y="0"/>
      <point x="491" y="0" type="curve"/>
      <point x="491" y="35"/>
      <point x="491" y="0"/>
      <point x="491" y="35" type="curve"/>
      <point x="375" y="35"/>
      <point x="499" y="35"/>
      <point x="382" y="35" type="curve"/>
      <point x="382" y="0"/>
      <point x="382" y="35"/>
    </contour>
    <contour>
      <point x="403" y="0" type="curve"/>
      <point x="403" y="178"/>
      <point x="403" y="355"/>
      <point x="403" y="533" type="curve"/>
      <point x="362" y="533"/>
      <point x="403" y="533"/>
      <point x="362" y="533" type="curve"/>
      <point x="362" y="355"/>
      <point x="362" y="178"/>
      <point x="362" y="0" type="curve"/>
      <point x="403" y="0"/>
      <point x="362" y="0"/>
    </contour>
    <contour>
      <point x="368" y="179" type="curve"/>
      <point x="350" y="108"/>
      <point x="305" y="31"/>
      <point x="248" y="31" type="curve"/>
      <point x="167" y="31"/>
      <point x="144" y="101"/>
      <point x="144" y="192" type="curve"/>
      <point x="144" y="305"/>
      <point x="144" y="419"/>
      <point x="144" y="533" type="curve"/>
      <point x="103" y="533"/>
      <point x="144" y="533"/>
      <point x="103" y="533" type="curve"/>
      <point x="103" y="418"/>
      <point x="103" y="304"/>
      <point x="103" y="189" type="curve"/>
      <point x="103" y="77"/>
      <point x="137" y="-5"/>
      <point x="245" y="-5" type="curve"/>
      <point x="322" y="-5"/>
      <point x="367" y="77"/>
      <point x="389" y="164" type="curve"/>
      <point x="368" y="180"/>
      <point x="389" y="164"/>
    </contour>
    <contour>
      <point x="390" y="24" type="curve"/>
      <point x="340" y="-2"/>
      <point x="306" y="-37"/>
      <point x="306" y="-92" type="curve"/>
      <point x="306" y="-148"/>
      <point x="332" y="-192"/>
      <point x="383" y="-192" type="curve"/>
      <point x="410" y="-192"/>
      <point x="428" y="-178"/>
      <point x="448" y="-160" type="curve"/>
      <point x="434" y="-143"/>
      <point x="440" y="-153"/>
      <point x="426" y="-136" type="curve"/>
      <point x="413" y="-148"/>
      <point x="402" y="-157"/>
      <point x="386" y="-157" type="curve"/>
      <point x="355" y="-157"/>
      <point x="342" y="-127"/>
      <point x="342" y="-92" type="curve"/>
      <point x="342" y="-50"/>
      <point x="368" y="-22"/>
      <point x="406" y="0" type="curve"/>
      <point x="395" y="16"/>
      <point x="400" y="9"/>
    </contour>
  </outline>
</glyph>
<glyph name="Ydieresis" format="1">
  <advance width="555"/>
  <unicode hex="0178"/>
  <outline>
    <contour>
      <point x="262" y="35" type="curve"/>
      <point x="139" y="35"/>
      <point x="270" y="35"/>
      <point x="147" y="35" type="curve"/>
      <point x="147" y="0"/>
      <point x="147" y="35"/>
      <point x="147" y="0" type="curve"/>
      <point x="187" y="0"/>
      <point x="221" y="0"/>
      <point x="262" y="0" type="curve"/>
      <point x="262" y="35"/>
      <point x="262" y="0"/>
    </contour>
    <contour>
      <point x="262" y="0" type="curve"/>
      <point x="303" y="0"/>
      <point x="337" y="0"/>
      <point x="378" y="0" type="curve"/>
      <point x="378" y="35"/>
      <point x="378" y="0"/>
      <point x="378" y="35" type="curve"/>
      <point x="255" y="35"/>
      <point x="386" y="35"/>
      <point x="262" y="35" type="curve"/>
      <point x="262" y="0"/>
      <point x="262" y="35"/>
    </contour>
    <contour>
      <point x="426" y="722" type="curve"/>
      <point x="386" y="722"/>
      <point x="352" y="722"/>
      <point x="312" y="722" type="curve"/>
      <point x="312" y="687"/>
      <point x="312" y="722"/>
      <point x="312" y="687" type="curve"/>
      <point x="434" y="687"/>
      <point x="304" y="687"/>
      <point x="426" y="687" type="curve"/>
      <point x="426" y="722"/>
      <point x="426" y="687"/>
    </contour>
    <contour>
      <point x="105" y="722" type="curve"/>
      <point x="66" y="722"/>
      <point x="33" y="722"/>
      <point x="-5" y="722" type="curve"/>
      <point x="-6" y="687"/>
      <point x="-5" y="722"/>
      <point x="-6" y="687" type="curve"/>
      <point x="112" y="687"/>
      <point x="-13" y="687"/>
      <point x="105" y="687" type="curve"/>
      <point x="105" y="722"/>
      <point x="105" y="687"/>
    </contour>
    <contour>
      <point x="108" y="687" type="curve"/>
      <point x="230" y="687"/>
      <point x="100" y="687"/>
      <point x="222" y="687" type="curve"/>
      <point x="222" y="722"/>
      <point x="222" y="687"/>
      <point x="222" y="722" type="curve"/>
      <point x="182" y="722"/>
      <point x="148" y="722"/>
      <point x="108" y="722" type="curve"/>
      <point x="108" y="687"/>
      <point x="108" y="722"/>
    </contour>
    <contour>
      <point x="429" y="687" type="curve"/>
      <point x="548" y="687"/>
      <point x="421" y="687"/>
      <point x="540" y="687" type="curve"/>
      <point x="540" y="722"/>
      <point x="540" y="687"/>
      <point x="540" y="722" type="curve"/>
      <point x="501" y="722"/>
      <point x="469" y="722"/>
      <point x="429" y="722" type="curve"/>
      <point x="429" y="687"/>
      <point x="429" y="722"/>
    </contour>
    <contour>
      <point x="74" y="722" type="curve"/>
      <point x="130" y="594"/>
      <point x="185" y="466"/>
      <point x="240" y="337" type="curve"/>
      <point x="283" y="337"/>
      <point x="237" y="337"/>
      <point x="280" y="337" type="curve"/>
      <point x="226" y="466"/>
      <point x="172" y="594"/>
      <point x="118" y="722" type="curve"/>
      <point x="74" y="722"/>
      <point x="118" y="722"/>
    </contour>
    <contour>
      <point x="416" y="722" type="curve"/>
      <point x="358" y="593"/>
      <point x="302" y="466"/>
      <point x="243" y="337" type="curve"/>
      <point x="287" y="337"/>
      <point x="241" y="337"/>
      <point x="285" y="337" type="curve"/>
      <point x="343" y="465"/>
      <point x="401" y="594"/>
      <point x="460" y="722" type="curve"/>
      <point x="416" y="722"/>
      <point x="460" y="722"/>
    </contour>
    <contour>
      <point x="285" y="0" type="curve"/>
      <point x="285" y="115"/>
      <point x="285" y="230"/>
      <point x="285" y="345" type="curve"/>
      <point x="240" y="345"/>
      <point x="285" y="345"/>
      <point x="240" y="345" type="curve"/>
      <point x="240" y="230"/>
      <point x="240" y="115"/>
      <point x="240" y="0" type="curve"/>
      <point x="285" y="0"/>
      <point x="240" y="0"/>
    </contour>
    <contour>
      <point x="240" y="840" type="curve"/>
      <point x="240" y="856"/>
      <point x="229" y="865"/>
      <point x="214" y="865" type="curve"/>
      <point x="198" y="865"/>
      <point x="188" y="855"/>
      <point x="188" y="840" type="curve"/>
      <point x="240" y="840"/>
      <point x="188" y="840"/>
      <point x="240" y="840" type="curve"/>
      <point x="240" y="823"/>
      <point x="230" y="815"/>
      <point x="214" y="815" type="curve"/>
      <point x="198" y="815"/>
      <point x="188" y="824"/>
      <point x="188" y="840" type="curve"/>
      <point x="240" y="840"/>
      <point x="188" y="840"/>
    </contour>
    <contour>
      <point x="341" y="840" type="curve"/>
      <point x="341" y="856"/>
      <point x="330" y="865"/>
      <point x="315" y="865" type="curve"/>
      <point x="299" y="865"/>
      <point x="289" y="855"/>
      <point x="289" y="840" type="curve"/>
      <point x="341" y="840"/>
      <point x="289" y="840"/>
      <point x="341" y="840" type="curve"/>
      <point x="341" y="823"/>
      <point x="331" y="815"/>
      <point x="315" y="815" type="curve"/>
      <point x="299" y="815"/>
      <point x="289" y="824"/>
      <point x="289" y="840" type="curve"/>
      <point x="341" y="840"/>
      <point x="289" y="840"/>
    </contour>
  </outline>
</glyph>
<glyph name="Zacute" format="1">
  <advance width="510"/>
  <unicode hex="0179"/>
  <outline>
    <contour>
      <point x="71" y="705" type="curve"/>
      <point x="71" y="585"/>
      <point x="71" y="713"/>
      <point x="71" y="593" type="curve"/>
      <point x="105" y="593"/>
      <point x="71" y="593"/>
      <point x="105" y="593" type="curve"/>
      <point x="105" y="713"/>
      <point x="105" y="585"/>
      <point x="105" y="705" type="curve"/>
      <point x="71" y="705"/>
      <point x="105" y="705"/>
    </contour>
    <contour>
      <point x="467" y="17" type="curve"/>
      <point x="467" y="137"/>
      <point x="467" y="9"/>
      <point x="467" y="129" type="curve"/>
      <point x="433" y="129"/>
      <point x="467" y="129"/>
      <point x="433" y="129" type="curve"/>
      <point x="433" y="9"/>
      <point x="433" y="137"/>
      <point x="433" y="17" type="curve"/>
      <point x="467" y="17"/>
      <point x="433" y="17"/>
    </contour>
    <contour>
      <point x="71" y="687" type="curve"/>
      <point x="185" y="687"/>
      <point x="307" y="687"/>
      <point x="421" y="687" type="curve"/>
      <point x="418" y="691"/>
      <point x="412" y="693"/>
      <point x="409" y="696" type="curve"/>
      <point x="406" y="698"/>
      <point x="406" y="703"/>
      <point x="403" y="706" type="curve"/>
      <point x="399" y="701"/>
      <point x="395" y="700"/>
      <point x="393" y="695" type="curve"/>
      <point x="40" y="35" type="line"/>
      <point x="40" y="16"/>
      <point x="40" y="35"/>
      <point x="40" y="16" type="curve"/>
      <point x="40" y="0"/>
      <point x="40" y="16"/>
      <point x="40" y="0" type="curve"/>
      <point x="53" y="0"/>
      <point x="40" y="0"/>
      <point x="53" y="0" type="curve"/>
      <point x="462" y="0"/>
      <point x="331" y="0"/>
      <point x="467" y="0" type="curve"/>
      <point x="467" y="35"/>
      <point x="467" y="0"/>
      <point x="467" y="35" type="curve"/>
      <point x="331" y="35"/>
      <point x="190" y="35"/>
      <point x="53" y="35" type="curve"/>
      <point x="56" y="32"/>
      <point x="60" y="30"/>
      <point x="64" y="28" type="curve"/>
      <point x="68" y="25"/>
      <point x="68" y="19"/>
      <point x="72" y="16" type="curve"/>
      <point x="75" y="21"/>
      <point x="79" y="23"/>
      <point x="83" y="27" type="curve"/>
      <point x="437" y="687" type="line"/>
      <point x="437" y="706"/>
      <point x="437" y="687"/>
      <point x="437" y="706" type="curve"/>
      <point x="437" y="722"/>
      <point x="437" y="706"/>
      <point x="437" y="722" type="curve"/>
      <point x="421" y="722"/>
      <point x="437" y="722"/>
      <point x="421" y="722" type="curve"/>
      <point x="307" y="722"/>
      <point x="185" y="722"/>
      <point x="71" y="722" type="curve"/>
      <point x="71" y="687"/>
      <point x="71" y="722"/>
    </contour>
    <contour>
      <point x="278" y="818" type="line"/>
      <point x="358" y="984" type="line"/>
      <point x="306" y="984" type="line"/>
      <point x="238" y="818" type="line"/>
    </contour>
  </outline>
</glyph>
<glyph name="Zdotaccent" format="1">
  <advance width="510"/>
  <unicode hex="017B"/>
  <outline>
    <contour>
      <point x="71" y="705" type="curve"/>
      <point x="71" y="585"/>
      <point x="71" y="713"/>
      <point x="71" y="593" type="curve"/>
      <point x="105" y="593"/>
      <point x="71" y="593"/>
      <point x="105" y="593" type="curve"/>
      <point x="105" y="713"/>
      <point x="105" y="585"/>
      <point x="105" y="705" type="curve"/>
      <point x="71" y="705"/>
      <point x="105" y="705"/>
    </contour>
    <contour>
      <point x="467" y="17" type="curve"/>
      <point x="467" y="137"/>
      <point x="467" y="9"/>
      <point x="467" y="129" type="curve"/>
      <point x="433" y="129"/>
      <point x="467" y="129"/>
      <point x="433" y="129" type="curve"/>
      <point x="433" y="9"/>
      <point x="433" y="137"/>
      <point x="433" y="17" type="curve"/>
      <point x="467" y="17"/>
      <point x="433" y="17"/>
    </contour>
    <contour>
      <point x="71" y="687" type="curve"/>
      <point x="185" y="687"/>
      <point x="307" y="687"/>
      <point x="421" y="687" type="curve"/>
      <point x="418" y="691"/>
      <point x="412" y="693"/>
      <point x="409" y="696" type="curve"/>
      <point x="406" y="698"/>
      <point x="406" y="703"/>
      <point x="403" y="706" type="curve"/>
      <point x="399" y="701"/>
      <point x="395" y="700"/>
      <point x="393" y="695" type="curve"/>
      <point x="40" y="35" type="line"/>
      <point x="40" y="16"/>
      <point x="40" y="35"/>
      <point x="40" y="16" type="curve"/>
      <point x="40" y="0"/>
      <point x="40" y="16"/>
      <point x="40" y="0" type="curve"/>
      <point x="53" y="0"/>
      <point x="40" y="0"/>
      <point x="53" y="0" type="curve"/>
      <point x="462" y="0"/>
      <point x="331" y="0"/>
      <point x="467" y="0" type="curve"/>
      <point x="467" y="35"/>
      <point x="467" y="0"/>
      <point x="467" y="35" type="curve"/>
      <point x="331" y="35"/>
      <point x="190" y="35"/>
      <point x="53" y="35" type="curve"/>
      <point x="56" y="32"/>
      <point x="60" y="30"/>
      <point x="64" y="28" type="curve"/>
      <point x="68" y="25"/>
      <point x="68" y="19"/>
      <point x="72" y="16" type="curve"/>
      <point x="75" y="21"/>
      <point x="79" y="23"/>
      <point x="83" y="27" type="curve"/>
      <point x="437" y="687" type="line"/>
      <point x="437" y="706"/>
      <point x="437" y="687"/>
      <point x="437" y="706" type="curve"/>
      <point x="437" y="722"/>
      <point x="437" y="706"/>
      <point x="437" y="722" type="curve"/>
      <point x="421" y="722"/>
      <point x="437" y="722"/>
      <point x="421" y="722" type="curve"/>
      <point x="307" y="722"/>
      <point x="185" y="722"/>
      <point x="71" y="722" type="curve"/>
      <point x="71" y="687"/>
      <point x="71" y="722"/>
    </contour>
    <contour>
      <point x="273" y="839" type="curve"/>
      <point x="273" y="856"/>
      <point x="262" y="864"/>
      <point x="246" y="864" type="curve"/>
      <point x="231" y="864"/>
      <point x="221" y="855"/>
      <point x="221" y="839" type="curve"/>
      <point x="273" y="839"/>
      <point x="221" y="839"/>
      <point x="273" y="839" type="curve"/>
      <point x="273" y="823"/>
      <point x="262" y="814"/>
      <point x="246" y="814" type="curve"/>
      <point x="231" y="814"/>
      <point x="221" y="823"/>
      <point x="221" y="839" type="curve"/>
      <point x="273" y="839"/>
      <point x="221" y="839"/>
    </contour>
  </outline>
</glyph>
<glyph name="florin" format="1">
  <advance width="324"/>
  <unicode hex="0192"/>
  <outline>
    <contour>
      <point x="290" y="549" type="curve"/>
      <point x="229" y="549"/>
      <point x="161" y="549"/>
      <point x="100" y="549" type="curve"/>
      <point x="100" y="515"/>
      <point x="100" y="549"/>
      <point x="100" y="515" type="curve"/>
      <point x="161" y="515"/>
      <point x="229" y="515"/>
      <point x="290" y="515" type="curve"/>
      <point x="290" y="549"/>
      <point x="290" y="515"/>
    </contour>
    <contour>
      <point x="320" y="826" type="curve"/>
      <point x="247" y="845"/>
      <point x="206" y="786"/>
      <point x="193" y="703" type="curve"/>
      <point x="164" y="491"/>
      <point x="135" y="279"/>
      <point x="105" y="68" type="curve"/>
      <point x="97" y="6"/>
      <point x="77" y="-44"/>
      <point x="27" y="-30" type="curve"/>
      <point x="19" y="-65"/>
      <point x="27" y="-30"/>
      <point x="19" y="-65" type="curve"/>
      <point x="93" y="-83"/>
      <point x="135" y="-23"/>
      <point x="147" y="63" type="curve"/>
      <point x="177" y="275"/>
      <point x="207" y="488"/>
      <point x="237" y="701" type="curve"/>
      <point x="244" y="759"/>
      <point x="265" y="804"/>
      <point x="312" y="791" type="curve"/>
      <point x="320" y="826"/>
      <point x="312" y="791"/>
    </contour>
  </outline>
</glyph>
<glyph name="circumflex" format="1">
  <advance width="424"/>
  <unicode hex="02C6"/>
  <outline>
    <contour>
      <point x="126" y="590" type="move" name="_top"/>
    </contour>
    <contour>
      <point x="63" y="590" type="line"/>
      <point x="143" y="756" type="line"/>
      <point x="91" y="756" type="line"/>
      <point x="23" y="590" type="line"/>
    </contour>
    <contour>
      <point x="229" y="590" type="line"/>
      <point x="160" y="756" type="line"/>
      <point x="108" y="756" type="line"/>
      <point x="188" y="590" type="line"/>
    </contour>
  </outline>
</glyph>
<glyph name="caron" format="1">
  <advance width="317"/>
  <unicode hex="02C7"/>
  <outline>
    <contour>
      <point x="113" y="592" type="move" name="_top"/>
    </contour>
    <contour>
      <point x="176" y="758" type="line"/>
      <point x="95" y="592" type="line"/>
      <point x="147" y="592" type="line"/>
      <point x="216" y="758" type="line"/>
    </contour>
    <contour>
      <point x="10" y="758" type="line"/>
      <point x="79" y="592" type="line"/>
      <point x="131" y="592" type="line"/>
      <point x="50" y="758" type="line"/>
    </contour>
  </outline>
</glyph>
<glyph name="dotaccent" format="1">
  <advance width="490"/>
  <unicode hex="02D9"/>
  <outline>
    <contour>
      <point x="232" y="647" type="move" name="_top"/>
    </contour>
    <contour>
      <point x="258" y="669" type="curve"/>
      <point x="258" y="686"/>
      <point x="247" y="694"/>
      <point x="231" y="694" type="curve"/>
      <point x="216" y="694"/>
      <point x="206" y="684"/>
      <point x="206" y="669" type="curve"/>
      <point x="258" y="669"/>
      <point x="206" y="669"/>
      <point x="258" y="669" type="curve"/>
      <point x="258" y="653"/>
      <point x="247" y="644"/>
      <point x="231" y="644" type="curve"/>
      <point x="216" y="644"/>
      <point x="206" y="653"/>
      <point x="206" y="669" type="curve"/>
      <point x="258" y="669"/>
      <point x="206" y="669"/>
    </contour>
  </outline>
</glyph>
<glyph name="ring" format="1">
  <advance width="275"/>
  <unicode hex="02DA"/>
  <outline>
    <contour>
      <point x="98" y="539" type="move" name="_top"/>
    </contour>
    <contour>
      <point x="5" y="658" type="curve"/>
      <point x="5" y="590"/>
      <point x="34" y="538"/>
      <point x="98" y="538" type="curve"/>
      <point x="162" y="538"/>
      <point x="191" y="589"/>
      <point x="191" y="658" type="curve"/>
      <point x="191" y="728"/>
      <point x="161" y="780"/>
      <point x="96" y="780" type="curve"/>
      <point x="33" y="780"/>
      <point x="5" y="728"/>
      <point x="5" y="658" type="curve"/>
      <point x="43" y="658"/>
      <point x="4" y="658"/>
      <point x="42" y="658" type="curve"/>
      <point x="42" y="706"/>
      <point x="53" y="746"/>
      <point x="96" y="746" type="curve"/>
      <point x="139" y="746"/>
      <point x="153" y="707"/>
      <point x="153" y="658" type="curve"/>
      <point x="153" y="611"/>
      <point x="141" y="570"/>
      <point x="98" y="570" type="curve"/>
      <point x="54" y="570"/>
      <point x="42" y="611"/>
      <point x="42" y="658" type="curve"/>
      <point x="4" y="658"/>
      <point x="43" y="658"/>
    </contour>
  </outline>
</glyph>
<glyph name="tilde" format="1">
  <advance width="414"/>
  <unicode hex="02DC"/>
  <outline>
    <contour>
      <point x="142" y="595" type="move" name="_top"/>
    </contour>
    <contour>
      <point x="255" y="729" type="curve"/>
      <point x="245" y="681"/>
      <point x="239" y="635"/>
      <point x="208" y="635" type="curve"/>
      <point x="178" y="635"/>
      <point x="165" y="655"/>
      <point x="149" y="680" type="curve"/>
      <point x="129" y="708"/>
      <point x="114" y="731"/>
      <point x="80" y="731" type="curve"/>
      <point x="22" y="731"/>
      <point x="9" y="673"/>
      <point x="-1" y="610" type="curve"/>
      <point x="31" y="596"/>
      <point x="-1" y="610"/>
      <point x="31" y="596" type="curve"/>
      <point x="41" y="647"/>
      <point x="47" y="690"/>
      <point x="85" y="690" type="curve"/>
      <point x="112" y="690"/>
      <point x="121" y="670"/>
      <point x="135" y="648" type="curve"/>
      <point x="157" y="617"/>
      <point x="174" y="595"/>
      <point x="211" y="595" type="curve"/>
      <point x="270" y="595"/>
      <point x="276" y="655"/>
      <point x="289" y="717" type="curve"/>
      <point x="255" y="729"/>
      <point x="289" y="717"/>
    </contour>
  </outline>
</glyph>
<glyph name="hungarumlaut" format="1">
  <advance width="400"/>
  <unicode hex="02DD"/>
  <outline>
    <contour>
      <point x="172" y="691" type="move" name="_top"/>
    </contour>
    <contour>
      <point x="120" y="714" type="line"/>
      <point x="201" y="880" type="line"/>
      <point x="149" y="880" type="line"/>
      <point x="80" y="714" type="line"/>
    </contour>
    <contour>
      <point x="235" y="714" type="line"/>
      <point x="316" y="880" type="line"/>
      <point x="264" y="880" type="line"/>
      <point x="195" y="714" type="line"/>
    </contour>
  </outline>
</glyph>
<glyph name="dvAnusvara" format="1">
  <advance width="0"/>
  <unicode hex="0902"/>
  <outline>
    <contour>
      <point x="-72" y="745" type="move" name="_abvm.e"/>
    </contour>
    <contour>
      <point x="-75" y="897" type="curve"/>
      <point x="-75" y="911"/>
      <point x="-83" y="920"/>
      <point x="-97" y="920" type="curve"/>
      <point x="-111" y="920"/>
      <point x="-120" y="910"/>
      <point x="-120" y="897" type="curve"/>
      <point x="-86" y="897"/>
      <point x="-108" y="897"/>
      <point x="-75" y="897" type="curve"/>
      <point x="-75" y="883"/>
      <point x="-83" y="875"/>
      <point x="-97" y="875" type="curve"/>
      <point x="-111" y="875"/>
      <point x="-120" y="884"/>
      <point x="-120" y="897" type="curve"/>
      <point x="-86" y="897"/>
      <point x="-108" y="897"/>
    </contour>
  </outline>
</glyph>
<glyph name="dvA" format="1">
  <advance width="615"/>
  <unicode hex="0905"/>
  <outline>
    <contour>
      <point x="475" y="449" type="line"/>
      <point x="445" y="411"/>
      <point x="407" y="394"/>
      <point x="358" y="394" type="curve" smooth="yes"/>
      <point x="304" y="394"/>
      <point x="261" y="401"/>
      <point x="215" y="429" type="curve"/>
      <point x="203" y="404" type="line"/>
      <point x="251" y="374"/>
      <point x="299" y="363"/>
      <point x="357" y="363" type="curve" smooth="yes"/>
      <point x="418" y="363"/>
      <point x="466" y="384"/>
      <point x="499" y="432" type="curve"/>
    </contour>
    <component base="dvA_base"/>
    <component base="dvStem" xOffset="346"/>
  </outline>
</glyph>
<glyph name="dvAA" format="1">
  <advance width="807"/>
  <unicode hex="0906"/>
  <outline>
    <contour>
      <point x="478" y="444" type="line"/>
      <point x="450" y="409"/>
      <point x="420" y="390"/>
      <point x="375" y="390" type="curve" smooth="yes"/>
      <point x="311" y="390"/>
      <point x="268" y="408"/>
      <point x="206" y="423" type="curve"/>
      <point x="204" y="419"/>
      <point x="199" y="403"/>
      <point x="197" y="399" type="curve"/>
      <point x="261" y="382"/>
      <point x="307" y="359"/>
      <point x="375" y="359" type="curve" smooth="yes"/>
      <point x="431" y="359"/>
      <point x="471" y="382"/>
      <point x="501" y="428" type="curve"/>
    </contour>
    <contour>
      <point x="489" y="0" type="curve"/>
      <point x="516" y="0"/>
      <point x="533" y="0"/>
      <point x="561" y="0" type="curve"/>
      <point x="561" y="35"/>
      <point x="561" y="0"/>
      <point x="561" y="35" type="curve"/>
      <point x="477" y="35"/>
      <point x="573" y="35"/>
      <point x="489" y="35" type="curve"/>
      <point x="489" y="0"/>
      <point x="489" y="35"/>
    </contour>
    <contour>
      <point x="489" y="35" type="curve"/>
      <point x="367" y="35"/>
      <point x="506" y="35"/>
      <point x="384" y="35" type="curve"/>
      <point x="384" y="0"/>
      <point x="384" y="35"/>
      <point x="384" y="0" type="curve"/>
      <point x="424" y="0"/>
      <point x="448" y="0"/>
      <point x="489" y="0" type="curve"/>
      <point x="489" y="35"/>
      <point x="489" y="0"/>
    </contour>
    <contour>
      <point x="508" y="0" type="curve"/>
      <point x="508" y="241"/>
      <point x="508" y="481"/>
      <point x="508" y="722" type="curve"/>
      <point x="467" y="722"/>
      <point x="508" y="722"/>
      <point x="467" y="722" type="curve"/>
      <point x="467" y="481"/>
      <point x="467" y="241"/>
      <point x="467" y="0" type="curve"/>
      <point x="508" y="0"/>
      <point x="467" y="0"/>
    </contour>
    <contour>
      <point x="480" y="684" type="curve"/>
      <point x="559" y="684"/>
      <point x="619" y="684"/>
      <point x="698" y="684" type="curve"/>
      <point x="698" y="722"/>
      <point x="698" y="684"/>
      <point x="698" y="722" type="curve"/>
      <point x="619" y="722"/>
      <point x="559" y="722"/>
      <point x="480" y="722" type="curve"/>
      <point x="480" y="684"/>
      <point x="480" y="722"/>
    </contour>
    <contour>
      <point x="94" y="630" type="curve"/>
      <point x="124" y="665"/>
      <point x="152" y="690"/>
      <point x="198" y="690" type="curve"/>
      <point x="271" y="690"/>
      <point x="302" y="633"/>
      <point x="301" y="560" type="curve"/>
      <point x="301" y="479"/>
      <point x="248" y="428"/>
      <point x="165" y="428" type="curve"/>
      <point x="165" y="405"/>
      <point x="165" y="419"/>
      <point x="165" y="396" type="curve"/>
      <point x="273" y="396"/>
      <point x="343" y="460"/>
      <point x="343" y="565" type="curve"/>
      <point x="342" y="657"/>
      <point x="298" y="727"/>
      <point x="203" y="727" type="curve"/>
      <point x="145" y="727"/>
      <point x="107" y="702"/>
      <point x="69" y="659" type="curve"/>
      <point x="86" y="639"/>
      <point x="77" y="651"/>
    </contour>
    <contour>
      <point x="55" y="160" type="curve"/>
      <point x="88" y="108"/>
      <point x="136" y="70"/>
      <point x="197" y="70" type="curve"/>
      <point x="299" y="65"/>
      <point x="359" y="140"/>
      <point x="357" y="248" type="curve"/>
      <point x="356" y="358"/>
      <point x="277" y="420"/>
      <point x="165" y="420" type="curve"/>
      <point x="165" y="399"/>
      <point x="165" y="411"/>
      <point x="165" y="391" type="curve"/>
      <point x="255" y="391"/>
      <point x="316" y="338"/>
      <point x="317" y="248" type="curve"/>
      <point x="317" y="164"/>
      <point x="277" y="101"/>
      <point x="200" y="105" type="curve"/>
      <point x="149" y="105"/>
      <point x="111" y="139"/>
      <point x="84" y="183" type="curve"/>
      <point x="64" y="167"/>
      <point x="75" y="176"/>
    </contour>
    <contour>
      <point x="681" y="0" type="curve"/>
      <point x="719" y="0"/>
      <point x="740" y="0"/>
      <point x="780" y="0" type="curve"/>
      <point x="780" y="35"/>
      <point x="780" y="0"/>
      <point x="780" y="35" type="curve"/>
      <point x="664" y="35"/>
      <point x="797" y="35"/>
      <point x="681" y="35" type="curve"/>
      <point x="681" y="0"/>
      <point x="681" y="35"/>
    </contour>
    <contour>
      <point x="681" y="35" type="curve"/>
      <point x="591" y="35"/>
      <point x="693" y="35"/>
      <point x="603" y="35" type="curve"/>
      <point x="603" y="0"/>
      <point x="603" y="35"/>
      <point x="603" y="0" type="curve"/>
      <point x="632" y="0"/>
      <point x="650" y="0"/>
      <point x="681" y="0" type="curve"/>
      <point x="681" y="35"/>
      <point x="681" y="0"/>
    </contour>
    <contour>
      <point x="701" y="0" type="curve"/>
      <point x="701" y="241"/>
      <point x="701" y="481"/>
      <point x="701" y="722" type="curve"/>
      <point x="659" y="722"/>
      <point x="701" y="722"/>
      <point x="659" y="722" type="curve"/>
      <point x="659" y="481"/>
      <point x="659" y="241"/>
      <point x="659" y="0" type="curve"/>
      <point x="701" y="0"/>
      <point x="659" y="0"/>
    </contour>
    <contour>
      <point x="672" y="684" type="curve"/>
      <point x="728" y="684"/>
      <point x="771" y="684"/>
      <point x="827" y="684" type="curve"/>
      <point x="827" y="722"/>
      <point x="827" y="684"/>
      <point x="827" y="722" type="curve"/>
      <point x="771" y="722"/>
      <point x="728" y="722"/>
      <point x="672" y="722" type="curve"/>
      <point x="672" y="684"/>
      <point x="672" y="722"/>
    </contour>
  </outline>
</glyph>
<glyph name="dvU" format="1">
  <advance width="428"/>
  <unicode hex="0909"/>
  <outline>
    <contour>
      <point x="61" y="160" type="curve"/>
      <point x="94" y="108"/>
      <point x="143" y="70"/>
      <point x="204" y="70" type="curve"/>
      <point x="306" y="65"/>
      <point x="365" y="140"/>
      <point x="364" y="248" type="curve"/>
      <point x="362" y="358"/>
      <point x="283" y="420"/>
      <point x="172" y="420" type="curve"/>
      <point x="172" y="399"/>
      <point x="172" y="411"/>
      <point x="172" y="391" type="curve"/>
      <point x="261" y="391"/>
      <point x="322" y="338"/>
      <point x="323" y="248" type="curve"/>
      <point x="324" y="164"/>
      <point x="283" y="101"/>
      <point x="206" y="105" type="curve"/>
      <point x="155" y="105"/>
      <point x="118" y="139"/>
      <point x="90" y="183" type="curve"/>
      <point x="70" y="167"/>
      <point x="81" y="176"/>
    </contour>
    <contour>
      <point x="204" y="689" type="line"/>
      <point x="278" y="689"/>
      <point x="308" y="633"/>
      <point x="307" y="560" type="curve"/>
      <point x="307" y="479"/>
      <point x="255" y="428"/>
      <point x="172" y="428" type="curve"/>
      <point x="172" y="405"/>
      <point x="172" y="419"/>
      <point x="172" y="396" type="curve"/>
      <point x="279" y="396"/>
      <point x="349" y="460"/>
      <point x="349" y="565" type="curve"/>
      <point x="349" y="657"/>
      <point x="305" y="720"/>
      <point x="209" y="720" type="curve"/>
    </contour>
    <component base="dvTopbar" xScale="0.714424469245" xOffset="-13"/>
  </outline>
</glyph>
<glyph name="dvUU" format="1">
  <advance width="661"/>
  <unicode hex="090A"/>
  <outline>
    <contour>
      <point x="487" y="113" type="curve"/>
      <point x="488" y="78" type="line"/>
      <point x="576" y="78"/>
      <point x="634" y="141"/>
      <point x="634" y="231" type="curve"/>
      <point x="634" y="316"/>
      <point x="571" y="369"/>
      <point x="482" y="369" type="curve"/>
      <point x="384" y="369"/>
      <point x="335" y="288"/>
      <point x="319" y="185" type="curve"/>
      <point x="352" y="172" type="line"/>
      <point x="365" y="260"/>
      <point x="401" y="332"/>
      <point x="484" y="332" type="curve"/>
      <point x="547" y="332"/>
      <point x="593" y="293"/>
      <point x="593" y="231" type="curve"/>
      <point x="593" y="162"/>
      <point x="552" y="113"/>
    </contour>
    <component base="dvU"/>
    <component base="dvTopbar" xScale="0.717358108453" xOffset="220"/>
  </outline>
</glyph>
<glyph name="dvvR" format="1">
  <advance width="691"/>
  <unicode hex="090B"/>
  <outline>
    <contour>
      <point x="585" y="568" type="line"/>
      <point x="585" y="491"/>
      <point x="554" y="425"/>
      <point x="473" y="425" type="curve"/>
      <point x="436" y="425"/>
      <point x="407" y="425"/>
      <point x="369" y="425" type="curve"/>
      <point x="369" y="413"/>
      <point x="369" y="404"/>
      <point x="369" y="392" type="curve"/>
      <point x="407" y="392"/>
      <point x="437" y="392"/>
      <point x="475" y="392" type="curve"/>
      <point x="576" y="392"/>
      <point x="624" y="471"/>
      <point x="624" y="568" type="curve"/>
    </contour>
    <contour>
      <point x="399" y="0" type="curve"/>
      <point x="399" y="241"/>
      <point x="399" y="480"/>
      <point x="399" y="721" type="curve"/>
      <point x="358" y="721"/>
      <point x="399" y="721"/>
      <point x="358" y="721" type="curve"/>
      <point x="358" y="480"/>
      <point x="358" y="241"/>
      <point x="358" y="0" type="curve"/>
      <point x="399" y="0"/>
      <point x="358" y="0"/>
    </contour>
    <component base="dvmE" xScale="0.93523455347" yScale="0.93523455347" xOffset="729" yOffset="-255"/>
    <component base="dvTopbar" xScale="1.13241005639" xOffset="-11"/>
    <component base="dvStroke_down" yScale="1.15749964206" xOffset="263" yOffset="235"/>
    <component base="dvmvR" xOffset="693" yOffset="216"/>
    <component base="dvRaker" xOffset="40" yOffset="36"/>
  </outline>
</glyph>
<glyph name="dvE" format="1">
  <advance width="451"/>
  <unicode hex="090F"/>
  <outline>
    <contour>
      <point x="275" y="249" type="curve"/>
      <point x="352" y="316"/>
      <point x="381" y="386"/>
      <point x="381" y="484" type="curve"/>
      <point x="381" y="557"/>
      <point x="381" y="629"/>
      <point x="381" y="703" type="curve"/>
      <point x="340" y="703"/>
      <point x="381" y="703"/>
      <point x="340" y="703" type="curve"/>
      <point x="340" y="628"/>
      <point x="340" y="554"/>
      <point x="340" y="479" type="curve"/>
      <point x="340" y="396"/>
      <point x="316" y="337"/>
      <point x="250" y="280" type="curve"/>
      <point x="263" y="265"/>
      <point x="262" y="263"/>
    </contour>
    <contour>
      <point x="326" y="23" type="curve"/>
      <point x="179" y="86"/>
      <point x="109" y="210"/>
      <point x="109" y="360" type="curve"/>
      <point x="109" y="475"/>
      <point x="109" y="589"/>
      <point x="109" y="704" type="curve"/>
      <point x="67" y="704"/>
      <point x="109" y="704"/>
      <point x="67" y="704" type="curve"/>
      <point x="67" y="587"/>
      <point x="67" y="470"/>
      <point x="67" y="354" type="curve"/>
      <point x="67" y="189"/>
      <point x="150" y="56"/>
      <point x="312" y="-12" type="curve"/>
      <point x="319" y="4"/>
      <point x="320" y="7"/>
    </contour>
    <component base="dvTopbar" xScale="0.749888173655" xOffset="-12"/>
  </outline>
</glyph>
<glyph name="dvNGA" format="1">
  <advance width="471"/>
  <unicode hex="0919"/>
  <outline>
    <contour>
      <point x="296" y="-50" type="move" name="blwm.virama"/>
    </contour>
    <contour>
      <point x="292" y="720" type="move" name="abvm.e"/>
    </contour>
    <contour>
      <point x="311" y="-135" type="move" name="blwm.u"/>
    </contour>
    <component base="dvDDA"/>
    <component base="dvAnusvara" xOffset="496" yOffset="-515"/>
    <component base="dvTopbar" xScale="0.752081716114" xOffset="11"/>
  </outline>
</glyph>
<glyph name="dvCHA" format="1">
  <advance width="579"/>
  <unicode hex="091B"/>
  <outline>
    <contour>
      <point x="349" y="-32" type="move" name="blwm.virama"/>
    </contour>
    <contour>
      <point x="449" y="720" type="move" name="abvm.e"/>
    </contour>
    <contour>
      <point x="349" y="-111" type="move" name="blwm.u"/>
    </contour>
    <component base="dvCH"/>
    <component base="dvStem_short" yScale="0.762219554571" xOffset="141" yOffset="168"/>
  </outline>
</glyph>
<glyph name="dvTTA" format="1">
  <advance width="450"/>
  <unicode hex="091F"/>
  <outline>
    <contour>
      <point x="324" y="-7" type="move" name="blwm.virama"/>
    </contour>
    <contour>
      <point x="293" y="719" type="move" name="abvm.e"/>
    </contour>
    <contour>
      <point x="356" y="-93" type="move" name="blwm.u"/>
    </contour>
    <contour>
      <point x="254" y="527" type="curve"/>
      <point x="248" y="527"/>
      <point x="243" y="527"/>
      <point x="237" y="527" type="curve"/>
      <point x="112" y="527"/>
      <point x="46" y="422"/>
      <point x="46" y="291" type="curve"/>
      <point x="46" y="159"/>
      <point x="115" y="57"/>
      <point x="237" y="57" type="curve"/>
      <point x="298" y="57"/>
      <point x="346" y="73"/>
      <point x="395" y="106" type="curve"/>
      <point x="378" y="134" type="line"/>
      <point x="334" y="107"/>
      <point x="293" y="92"/>
      <point x="239" y="92" type="curve"/>
      <point x="139" y="92"/>
      <point x="87" y="181"/>
      <point x="87" y="291" type="curve"/>
      <point x="87" y="402"/>
      <point x="144" y="492"/>
      <point x="248" y="492" type="curve"/>
      <point x="265" y="492"/>
      <point x="278" y="492"/>
      <point x="295" y="492" type="curve"/>
      <point x="280" y="504"/>
      <point x="269" y="514"/>
    </contour>
    <contour>
      <point x="470" y="722" type="curve"/>
      <point x="307" y="722"/>
      <point x="143" y="722"/>
      <point x="-20" y="722" type="curve"/>
      <point x="-20" y="687"/>
      <point x="-20" y="722"/>
      <point x="-20" y="687" type="curve"/>
      <point x="143" y="687"/>
      <point x="307" y="687"/>
      <point x="470" y="687" type="curve"/>
      <point x="470" y="722"/>
      <point x="470" y="687"/>
    </contour>
    <contour>
      <point x="254" y="704" type="curve"/>
      <point x="254" y="645"/>
      <point x="254" y="585"/>
      <point x="254" y="527" type="curve"/>
      <point x="295" y="492"/>
      <point x="254" y="527"/>
      <point x="295" y="492" type="curve"/>
      <point x="295" y="562"/>
      <point x="295" y="633"/>
      <point x="295" y="704" type="curve"/>
      <point x="254" y="704"/>
      <point x="295" y="704"/>
    </contour>
  </outline>
</glyph>
<glyph name="dvTTHA" format="1">
  <advance width="483"/>
  <unicode hex="0920"/>
  <outline>
    <contour>
      <point x="329" y="10" type="move" name="blwm.virama"/>
    </contour>
    <contour>
      <point x="267" y="722" type="move" name="abvm.e"/>
    </contour>
    <contour>
      <point x="349" y="-75" type="move" name="blwm.u"/>
    </contour>
    <contour>
      <point x="385" y="305" type="curve"/>
      <point x="385" y="195"/>
      <point x="347" y="100"/>
      <point x="250" y="100" type="curve"/>
      <point x="151" y="100"/>
      <point x="111" y="195"/>
      <point x="111" y="306" type="curve"/>
      <point x="111" y="411"/>
      <point x="150" y="499"/>
      <point x="244" y="499" type="curve"/>
      <point x="339" y="499"/>
      <point x="385" y="411"/>
      <point x="385" y="305" type="curve"/>
      <point x="399" y="305"/>
      <point x="410" y="305"/>
      <point x="424" y="305" type="curve"/>
      <point x="424" y="432"/>
      <point x="363" y="533"/>
      <point x="246" y="533" type="curve"/>
      <point x="130" y="533"/>
      <point x="71" y="432"/>
      <point x="71" y="306" type="curve"/>
      <point x="71" y="173"/>
      <point x="127" y="65"/>
      <point x="246" y="65" type="curve"/>
      <point x="367" y="65"/>
      <point x="424" y="173"/>
      <point x="424" y="305" type="curve"/>
      <point x="410" y="305"/>
      <point x="399" y="305"/>
    </contour>
    <component base="dvTopbar" xScale="0.797060737942" xOffset="-12"/>
    <component base="dvStem_short" yScale="0.868625145804" xOffset="-35" yOffset="92"/>
  </outline>
</glyph>
<glyph name="dvDDA" format="1">
  <advance width="415"/>
  <unicode hex="0921"/>
  <outline>
    <contour>
      <point x="271" y="-66" type="move" name="blwm.virama"/>
    </contour>
    <contour>
      <point x="291" y="721" type="move" name="abvm.e"/>
    </contour>
    <contour>
      <point x="290" y="-154" type="move" name="blwm.u"/>
    </contour>
    <component base="dvTopbar" xScale="0.69369774234" xOffset="-13"/>
    <component base="dvDDA_base" xOffset="-10" yOffset="-3"/>
  </outline>
</glyph>
